<svg width="200" height="200" viewBox="0 0 200 200" fill="none" xmlns="http://www.w3.org/2000/svg">
<g clip-path="url(#clip0_757_5050)">
<path d="M72.6913 39.0602C73.1243 38.9942 73.5583 38.934 73.993 38.8807C74.2766 38.8338 74.2766 38.8338 74.566 38.786C78.0136 38.3329 81.6539 39.9451 84.4238 41.8915C85.4066 42.6467 86.3474 43.4496 87.2789 44.2668C87.2902 44.0296 87.3015 43.7924 87.3132 43.548C87.6568 38.4023 89.2319 34.2532 93.1468 30.7839C95.8081 28.5983 99.5465 27.9649 102.899 28.2879C106.935 28.9913 109.713 30.9404 112.193 34.1341C114.186 37.1721 114.758 40.7097 114.928 44.2668C115.264 43.9839 115.264 43.9839 115.606 43.6953C119.007 40.8722 122.723 38.546 127.316 38.7011C130.855 39.0449 133.345 40.3592 135.833 42.8193C136.08 43.0549 136.08 43.0549 136.331 43.2952C138.65 45.5878 139.9 48.5509 139.985 51.8187C139.809 57.0357 137.047 61.1459 133.413 64.6585C131.503 66.4409 129.399 68.0081 127.316 69.5818C127.454 69.7134 127.592 69.845 127.734 69.9805C128.962 71.1752 130.025 72.3761 130.974 73.801C131.102 73.9924 131.231 74.1838 131.363 74.381C135.64 80.9165 137.762 88.2665 138.627 95.974C138.648 96.158 138.669 96.3421 138.691 96.5317C139.192 101.145 139.309 105.975 138.727 110.582C138.63 111.389 138.571 112.191 138.519 113.001C138.1 119.402 136.905 125.792 135.575 132.061C135.508 132.378 135.508 132.378 135.439 132.702C134.756 135.888 133.964 139.035 133.084 142.173C132.845 143.026 132.618 143.879 132.41 144.74C131.969 146.551 131.603 148.013 130.189 149.297C129.47 149.499 129.47 149.499 128.932 149.477C128.86 149.704 128.86 149.704 128.787 149.935C128.724 150.132 128.661 150.329 128.595 150.531C128.533 150.727 128.47 150.923 128.406 151.125C128.214 151.631 128.214 151.631 127.855 151.99C128.066 152.157 128.277 152.323 128.494 152.495C129.111 153.247 129.111 153.247 129.151 154.059C128.936 155.727 128.156 157.254 127.484 158.779C127.412 158.946 127.339 159.112 127.265 159.284C126.034 162.108 124.715 164.869 123.174 167.54C122.843 168.122 122.531 168.712 122.22 169.306C120.47 172.464 118.019 174.944 115.5 177.496C115.324 177.677 115.148 177.857 114.967 178.043C111.166 181.923 106.946 184.536 101.348 184.692C95.6473 184.722 91.0122 182.038 87.0653 178.146C84.7991 175.881 82.6838 173.576 80.995 170.842C80.8642 170.632 80.7334 170.422 80.5986 170.205C77.3934 164.997 74.8499 159.459 72.787 153.707C72.5496 153.048 72.3056 152.392 72.0608 151.736C70.8539 148.464 69.8765 145.15 68.9832 141.78C68.8088 141.123 68.631 140.466 68.4518 139.81C66.9825 134.365 65.8256 128.844 65.016 123.264C64.9513 122.83 64.8866 122.396 64.8218 121.962C62.057 103.229 62.057 103.229 63.7593 94.7173C64.4098 93.9457 64.9267 93.5159 65.9137 93.2809C66.121 92.5597 66.2776 91.8795 66.2728 91.1265C65.6744 90.4682 65.6744 90.4682 65.016 89.8697C64.5432 83.8751 69.0812 76.2393 72.7362 71.7363C73.108 71.3484 73.4854 70.9659 73.8682 70.5889C74.1563 70.3042 74.1563 70.3042 74.4502 70.0137C74.5955 69.8712 74.7409 69.7286 74.8907 69.5818C74.6905 69.4305 74.6905 69.4305 74.4862 69.2762C69.1112 65.1932 63.5805 60.8139 62.4029 53.7333C61.6164 47.1512 66.1148 40.5261 72.6913 39.0602Z" fill="#FEA83E"/>
<path d="M99.4317 62.4909C99.8692 62.4595 100.307 62.4296 100.744 62.4001C100.656 62.6667 100.656 62.6667 100.565 62.9387C99.8658 63.2698 99.1663 63.5782 98.4553 63.8813C92.8183 66.4153 87.8978 70.8811 84.7654 76.2246C85.2098 76.3135 85.2098 76.3135 85.6631 76.4041C86.2466 76.7857 86.2466 76.7857 86.7404 77.4814C86.9115 78.3811 86.9283 79.2604 86.9199 80.1744C86.9197 80.3668 86.9194 80.5591 86.9192 80.7572C86.8872 81.5189 86.7904 82.067 86.3925 82.7217C85.554 83.2179 85.0008 83.2001 84.0473 83.0471C83.3538 82.4253 83.0109 81.9751 82.9055 81.0357C82.903 80.5088 82.9342 79.982 82.97 79.4563C82.0471 81.0644 81.3246 82.6775 80.7146 84.4273C80.5875 84.7897 80.5875 84.7897 80.4579 85.1594C77.9907 92.3715 77.2977 100.282 77.7178 107.87C77.7522 108.512 77.7634 109.156 77.7634 109.798C74.4455 109.798 71.1277 109.798 67.7092 109.798C66.4413 105.995 66.9576 100.65 67.4687 96.7053C67.5282 95.9923 67.5076 95.4138 67.3502 94.7171C66.9387 94.2158 66.9387 94.2158 66.4525 93.8194C66.2747 93.6417 66.097 93.4639 65.9139 93.2808C65.9398 92.7569 65.9398 92.7569 66.0597 92.1699C66.0979 91.9748 66.1361 91.7797 66.1754 91.5787C66.2076 91.4294 66.2398 91.2801 66.2729 91.1263C66.4951 91.0819 66.4951 91.0819 66.7218 91.0365C67.6045 90.6582 68.2087 90.0835 68.7865 89.3309C69.0353 88.6379 69.2153 88.0225 69.37 87.3111C73.0302 72.7858 84.7578 63.6145 99.4317 62.4909Z" fill="#FD9B1F"/>
<path d="M67.7091 113.748C68.0682 113.389 68.0682 113.389 68.8985 113.367C69.217 113.374 69.5355 113.382 69.8636 113.389C70.1302 113.382 70.3968 113.375 70.6715 113.367C71.2999 113.389 71.2999 113.389 71.659 113.748C71.8853 113.661 71.8853 113.661 72.1162 113.572C72.7862 113.375 73.3409 113.341 74.0378 113.344C74.2572 113.344 74.4766 113.343 74.7027 113.342C75.2497 113.389 75.2497 113.389 75.6088 113.748C75.7532 113.685 75.8976 113.623 76.0464 113.558C76.847 113.347 77.4897 113.446 78.3019 113.569C78.3103 113.729 78.3187 113.89 78.3274 114.055C78.4287 115.782 78.6233 117.48 78.8742 119.191C78.9332 119.597 78.9332 119.597 78.9934 120.012C79.9945 126.782 81.4343 133.399 83.1188 140.029C83.4314 141.263 83.7395 142.497 84.0471 143.731C82.1538 143.904 80.2657 143.973 78.3647 143.994C78.021 143.998 77.6773 144.006 77.3337 144.016C76.8318 144.03 76.3297 144.035 75.8276 144.04C75.5313 144.045 75.2349 144.051 74.9296 144.056C74.1725 143.911 74.1725 143.911 73.6483 143.366C73.2663 142.638 73.0296 141.986 72.8246 141.19C72.7484 140.896 72.6723 140.603 72.5939 140.3C72.4755 139.821 72.4755 139.821 72.3547 139.333C72.313 139.167 72.2714 139.002 72.2285 138.831C70.341 131.308 68.8564 123.623 67.9924 115.914C67.9299 115.366 67.8564 114.819 67.7624 114.276C67.736 114.015 67.736 114.015 67.7091 113.748Z" fill="#FC9A1F"/>
<path d="M72.6915 39.0601C73.1245 38.994 73.5584 38.9338 73.9931 38.8805C74.2768 38.8337 74.2768 38.8337 74.5661 38.7858C78.0137 38.3328 81.654 39.945 84.4239 41.8913C85.4067 42.6466 86.3476 43.4494 87.279 44.2667C87.2904 44.0295 87.3017 43.7922 87.3134 43.5478C87.6569 38.4021 89.2321 34.253 93.147 30.7837C95.8083 28.5982 99.5467 27.9648 102.899 28.2877C106.935 28.9912 109.713 30.9402 112.193 34.134C114.186 37.1719 114.758 40.7095 114.928 44.2667C115.264 43.9838 115.264 43.9838 115.606 43.6951C119.008 40.8721 122.724 38.5459 127.316 38.701C130.856 39.0448 133.345 40.3591 135.833 42.8192C136.08 43.0547 136.08 43.0547 136.331 43.295C138.651 45.5876 139.901 48.5508 139.985 51.8185C139.81 57.0355 137.047 61.1457 133.413 64.6584C131.503 66.4407 129.399 68.008 127.316 69.5817C127.454 69.7132 127.592 69.8448 127.735 69.9804C128.963 71.175 130.025 72.3759 130.974 73.8008C131.103 73.9922 131.231 74.1836 131.363 74.3808C135.64 80.9164 137.762 88.2663 138.627 95.9739C138.648 96.1579 138.669 96.3419 138.691 96.5315C139.192 101.145 139.309 105.975 138.727 110.582C138.63 111.389 138.571 112.19 138.519 113.001C138.1 119.402 136.905 125.792 135.575 132.061C135.508 132.378 135.508 132.378 135.439 132.702C134.756 135.888 133.964 139.035 133.084 142.173C132.845 143.026 132.618 143.879 132.411 144.74C131.967 146.558 131.585 147.989 130.189 149.297C129.291 149.476 129.291 149.476 128.811 149.23C128.576 149.047 128.576 149.047 128.337 148.859C128.179 148.741 128.02 148.623 127.857 148.501C127.496 148.04 127.496 148.04 127.395 147.436C127.541 146.232 127.907 145.121 128.27 143.967C129.058 141.382 129.742 138.782 130.38 136.157C130.423 135.98 130.466 135.803 130.511 135.62C131.007 133.679 131.007 133.679 131.358 131.71C131.446 131.163 131.446 131.163 131.805 130.804C129.904 130.652 128.018 130.601 126.111 130.607C125.825 130.608 125.538 130.608 125.243 130.608C124.625 130.609 124.008 130.61 123.39 130.611C122.414 130.614 121.438 130.615 120.462 130.616C118.393 130.618 116.324 130.621 114.255 130.625C111.849 130.629 109.444 130.633 107.039 130.635C106.075 130.636 105.112 130.638 104.148 130.641C103.562 130.641 102.975 130.642 102.389 130.642C102.119 130.643 101.85 130.644 101.573 130.645C101.328 130.645 101.084 130.645 100.832 130.645C100.619 130.646 100.405 130.646 100.186 130.646C99.4332 130.615 99.1514 130.464 98.5563 129.985C98.0513 129.368 98.0513 129.368 97.9167 128.65C98.0513 127.932 98.0513 127.932 98.4216 127.315C100.131 126.202 102.904 126.654 104.888 126.669C105.181 126.67 105.475 126.672 105.778 126.673C106.41 126.676 107.043 126.68 107.676 126.683C108.848 126.69 110.019 126.694 111.191 126.698C111.362 126.698 111.532 126.699 111.708 126.7C111.88 126.7 112.052 126.701 112.229 126.701C114.554 126.709 116.88 126.718 119.205 126.733C120.947 126.744 122.689 126.75 124.432 126.753C125.096 126.755 125.76 126.759 126.424 126.764C127.348 126.772 128.272 126.774 129.197 126.774C129.473 126.778 129.749 126.781 130.033 126.785C130.284 126.784 130.534 126.783 130.792 126.782C131.12 126.783 131.12 126.783 131.454 126.785C132.011 126.727 132.011 126.727 132.316 126.276C132.646 125.48 132.754 124.649 132.882 123.802C132.927 123.515 132.927 123.515 132.974 123.221C133.065 122.637 133.153 122.053 133.241 121.468C133.314 120.991 133.314 120.991 133.388 120.504C134.558 112.559 135.583 104.159 134.498 96.1534C134.472 95.9534 134.446 95.7534 134.419 95.5473C133.048 85.2866 128.945 75.4 120.659 68.8383C116.284 65.5559 111.024 63.511 105.592 62.9387C105.412 62.9198 105.233 62.9009 105.048 62.8814C96.7206 62.0382 88.714 63.7375 81.8929 68.684C81.6924 68.8173 81.492 68.9506 81.2855 69.0879C78.6908 71.0606 76.3057 73.6834 74.5318 76.4041C74.4339 76.5542 74.336 76.7043 74.2351 76.8589C72.0269 80.2991 70.3029 84.0628 69.37 88.0517C69.0387 89.4346 68.7238 90.1448 67.5297 90.9468C66.7891 91.1039 66.7891 91.1039 66.0934 90.9468C65.465 90.5204 65.465 90.5204 65.0162 89.8695C64.6324 83.8164 69.0358 76.2953 72.7364 71.7361C73.1081 71.3483 73.4855 70.9658 73.8683 70.5888C74.1564 70.304 74.1564 70.304 74.4503 70.0135C74.5957 69.871 74.7411 69.7285 74.8908 69.5817C74.6906 69.4304 74.6906 69.4304 74.4863 69.2761C69.1114 65.193 63.5807 60.8138 62.4031 53.7332C61.6165 47.151 66.115 40.526 72.6915 39.0601Z" fill="#010100"/>
<path d="M98.7694 32.4172C101.355 31.992 104.252 32.1823 106.49 33.674C109.174 35.8234 110.392 38.9314 110.798 42.2919C111.007 45.4952 110.73 48.6412 110.26 51.8074C110.231 52.0071 110.202 52.2069 110.173 52.4127C109.976 53.7693 109.764 55.1228 109.542 56.4754C109.495 56.7656 109.449 57.0559 109.401 57.3549C109.359 57.5979 109.316 57.8409 109.272 58.0913C109.237 58.2949 109.202 58.4986 109.166 58.7084C109.003 59.1685 109.003 59.1685 108.285 59.5276C107.626 59.4511 107.626 59.4511 106.815 59.2919C102.445 58.5454 97.8985 58.6241 93.5627 59.5276C92.9701 58.3526 92.7862 57.1546 92.5753 55.8695C92.5368 55.6392 92.4983 55.4089 92.4587 55.1716C91.8743 51.6005 91.4995 48.0638 91.4083 44.4463C91.394 44.0891 91.394 44.0891 91.3795 43.7247C91.2484 38.6437 93.6274 33.7908 98.7694 32.4172Z" fill="#8CD26F"/>
<path d="M74.5205 42.7071C77.3522 42.4597 80.3567 43.6617 82.611 45.3441C83.7073 46.3465 84.7332 47.424 85.7663 48.4907C86.1376 48.8694 86.5194 49.2378 86.9031 49.6039C88.281 51.0052 88.5736 52.0615 88.6501 54.0089C88.7108 55.458 89.0454 56.8668 89.344 58.2822C89.6506 59.8116 89.6506 59.8116 89.2539 60.6049C88.6789 60.8728 88.6789 60.8728 87.9523 61.1211C84.1435 62.4811 81.0788 64.3636 77.943 66.8887C75.4324 65.1995 73.1929 63.3308 71.042 61.1996C70.8221 60.9846 70.6022 60.7695 70.3756 60.5479C68.0478 58.197 66.2858 55.3757 66.1608 51.987C66.3189 47.2335 69.9065 43.5054 74.5205 42.7071Z" fill="#6CC646"/>
<path d="M116.434 48.4501C119.501 45.2257 122.697 42.8394 127.316 42.6509C130.436 43.0693 132.503 44.5932 134.498 46.9598C135.882 49.0118 136.23 51.3408 135.813 53.7703C134.963 56.9638 133.273 59.0265 130.963 61.3341C130.73 61.5668 130.497 61.7994 130.258 62.0392C126.463 65.789 126.463 65.789 124.264 66.8886C124.158 66.7882 124.053 66.6877 123.944 66.5842C121.02 63.9709 117.165 61.9294 113.42 60.7759C112.953 60.6047 112.953 60.6047 112.414 60.0661C112.494 59.4833 112.494 59.4833 112.695 58.7308C112.958 57.6798 113.163 56.6685 113.279 55.591C113.619 52.4271 114.248 50.7926 116.434 48.4501Z" fill="#6CC646"/>
<path d="M74.8908 147.861C75.9088 147.427 76.9239 147.437 78.0117 147.429C78.2077 147.427 78.4037 147.425 78.6057 147.422C79.0188 147.419 79.432 147.417 79.8452 147.415C80.4781 147.412 81.1106 147.401 81.7434 147.389C82.1453 147.387 82.5471 147.385 82.949 147.384C83.1383 147.379 83.3275 147.375 83.5225 147.37C84.8225 147.378 84.8225 147.378 85.3956 147.955C85.6931 148.649 85.9577 149.336 86.1947 150.053C86.2928 150.344 86.3909 150.635 86.492 150.935C86.6483 151.402 86.6483 151.402 86.8077 151.878C89.4437 159.599 92.9551 168.476 98.8178 174.349C98.94 174.471 99.0622 174.594 99.188 174.72C99.4449 174.977 99.7021 175.234 99.9598 175.49C100.35 175.878 100.738 176.268 101.126 176.659C102.32 177.853 103.5 179.012 104.874 179.998C101.24 181.143 97.8373 180.679 94.4605 178.921C90.2442 176.715 86.9097 172.85 84.4063 168.867C84.2534 168.624 84.2534 168.624 84.0973 168.377C80.0954 161.943 77.3748 154.988 74.8908 147.861Z" fill="#FD9A1F"/>
<path d="M96.0763 79.2769C97.9062 78.8132 99.8354 78.863 101.709 78.8729C101.977 78.8715 102.245 78.8701 102.521 78.8687C102.78 78.8692 103.04 78.8696 103.307 78.8701C103.539 78.8705 103.771 78.8709 104.011 78.8713C105.241 78.9549 105.94 79.0937 106.842 79.9614C107.575 81.0041 107.549 81.9894 107.499 83.2267C107.498 83.4285 107.497 83.6303 107.496 83.8383C107.456 85.8374 107.047 87.1326 105.603 88.5792C104.219 89.8974 103.229 90.5474 101.319 90.6103C98.9032 90.5339 97.5542 89.5724 95.9031 87.8505C94.3554 85.9364 94.7171 83.2355 94.8195 80.8927C95.0865 80.0916 95.4015 79.7968 96.0763 79.2769Z" fill="#030201"/>
<path d="M114.221 85.3026C115.303 84.5983 116.357 84.6747 117.621 84.663C117.95 84.637 118.28 84.6111 118.62 84.5844C119.416 84.663 119.416 84.663 120.067 85.0894C120.652 85.9816 120.677 86.4896 120.494 87.5356C119.711 88.2891 119.236 88.5908 118.15 88.7243C117.839 88.7134 117.527 88.7026 117.206 88.6914C116.892 88.6837 116.578 88.6761 116.254 88.6682C115.35 88.6046 115.06 88.5393 114.356 87.9732C113.851 87.356 113.851 87.356 113.716 86.6379C113.851 85.9197 113.851 85.9197 114.221 85.3026Z" fill="#F4F2EF"/>
<path d="M81.8928 85.2915C82.9861 84.6082 84.0404 84.6749 85.304 84.6631C85.6336 84.6372 85.9632 84.6113 86.3027 84.5846C87.0994 84.6631 87.0994 84.6631 87.7502 85.0895C88.3348 85.9818 88.3597 86.4898 88.1767 87.5358C87.1267 88.5355 86.3797 88.7608 84.945 88.7477C84.6413 88.7504 84.3377 88.7532 84.0248 88.7561C82.9784 88.585 82.4826 88.2548 81.7133 87.5358C81.422 86.5826 81.3962 86.1605 81.8928 85.2915Z" fill="#F4F2F0"/>
<path d="M84.2269 76.4041C85.1256 76.2244 85.4968 76.3043 86.2803 76.7744C86.985 77.8572 86.9315 78.908 86.9199 80.1745C86.9197 80.3668 86.9195 80.5591 86.9192 80.7573C86.8872 81.5189 86.7905 82.067 86.3925 82.7217C85.554 83.2179 85.0008 83.2001 84.0473 83.0471C83.1611 82.1355 82.8308 81.4219 82.814 80.1418C82.8174 79.9712 82.8208 79.8005 82.8242 79.6246C82.8185 79.4532 82.8129 79.2819 82.807 79.1053C82.8134 77.7773 83.1925 77.205 84.2269 76.4041Z" fill="#060401"/>
<path d="M116.544 76.4041C117.442 76.2244 117.814 76.3043 118.597 76.7744C119.302 77.8572 119.248 78.908 119.237 80.1745C119.237 80.3668 119.236 80.5591 119.236 80.7573C119.204 81.5189 119.107 82.067 118.709 82.7217C117.871 83.2179 117.318 83.2001 116.364 83.0471C115.478 82.1355 115.148 81.4219 115.131 80.1418C115.134 79.9712 115.138 79.8005 115.141 79.6246C115.135 79.4532 115.13 79.2819 115.124 79.1053C115.13 77.7773 115.509 77.205 116.544 76.4041Z" fill="#050301"/>
<path d="M98.5899 83.2268C99.5754 82.811 100.469 82.8315 101.53 82.8453C101.853 82.8485 102.177 82.8518 102.51 82.8551C102.757 82.8593 103.004 82.8634 103.258 82.8677C103.573 83.7523 103.723 84.2828 103.437 85.2017C102.673 86.1882 102.338 86.5656 101.115 86.8288C100.054 86.6062 99.6018 86.2919 98.8865 85.5012C98.4186 84.7457 98.4811 84.0845 98.5899 83.2268Z" fill="#444444"/>
<path d="M64.8367 93.6399C65.4875 93.3791 65.7344 93.4828 66.6321 93.6399C67.423 94.442 67.6953 94.8923 67.7815 96.0251C67.7595 96.3713 67.7314 96.7171 67.6981 97.0624C67.6788 97.3391 67.6788 97.3391 67.6592 97.6213C67.6216 98.1501 67.577 98.6777 67.5297 99.2056C67.3799 101.019 67.3314 102.818 67.3278 104.637C67.3269 104.867 67.3261 105.096 67.3253 105.333C67.3274 106.654 67.3885 107.946 67.5298 109.26C68.3717 109.588 69.072 109.663 69.9734 109.661C70.3869 109.661 70.3869 109.661 70.8087 109.662C71.2599 109.659 71.2599 109.659 71.7203 109.657C72.0383 109.657 72.3563 109.656 72.6839 109.656C73.3746 109.655 74.0652 109.654 74.7559 109.651C75.8474 109.647 76.9389 109.646 78.0305 109.645C79.7561 109.643 81.4818 109.639 83.2075 109.635C86.3001 109.627 89.3926 109.621 92.4852 109.617C93.571 109.615 94.6567 109.613 95.7424 109.609C96.5747 109.607 97.4071 109.606 98.2394 109.604C98.5414 109.603 98.8433 109.602 99.1543 109.601C99.4285 109.6 99.7026 109.6 99.985 109.6C100.344 109.599 100.344 109.599 100.709 109.598C101.481 109.626 101.775 109.762 102.394 110.236C102.899 110.876 102.899 110.876 103.022 111.785C102.899 112.671 102.899 112.671 102.557 113.166C101.759 113.744 101.144 113.695 100.166 113.713C99.9836 113.717 99.8017 113.722 99.6142 113.726C99.0334 113.738 98.4528 113.744 97.8718 113.748C97.5044 113.753 97.137 113.757 96.7695 113.762C95.616 113.774 94.4626 113.773 93.309 113.772C92.8858 113.772 92.4625 113.772 92.0393 113.773C91.1609 113.773 90.2825 113.773 89.4041 113.772C88.284 113.771 87.164 113.771 86.0439 113.772C85.1733 113.773 84.3027 113.773 83.4321 113.772C83.0191 113.772 82.6061 113.772 82.1932 113.773C80.1696 113.774 78.1643 113.759 76.1476 113.569C75.0875 113.542 74.0506 113.589 72.9945 113.67C71.9793 113.744 71.055 113.691 70.0433 113.569C69.7508 113.602 69.4582 113.635 69.1568 113.67C68.9161 113.696 68.6754 113.722 68.4274 113.748C68.3089 113.63 68.1904 113.511 68.0684 113.389C68.0312 114.885 68.1713 116.327 68.3601 117.81C68.3921 118.063 68.4241 118.315 68.4571 118.574C68.7811 121.032 69.2238 123.459 69.7079 125.889C69.8758 126.736 70.0389 127.583 70.2018 128.431C70.8904 131.982 71.6619 135.497 72.5808 138.995C72.7252 139.558 72.8591 140.123 72.9882 140.69C73.0606 140.997 73.133 141.305 73.2077 141.622C73.2655 141.878 73.3234 142.135 73.383 142.399C73.7138 143.208 73.9165 143.354 74.7113 143.731C75.5698 143.831 76.4225 143.813 77.2858 143.799C77.677 143.797 77.677 143.797 78.0762 143.795C78.6422 143.791 79.2082 143.786 79.7743 143.78C80.6699 143.77 81.5655 143.764 82.4612 143.76C84.6857 143.749 86.9101 143.731 89.1345 143.712C91.0141 143.695 92.8937 143.682 94.7734 143.674C95.6561 143.669 96.5387 143.659 97.4213 143.648C97.9624 143.645 98.5034 143.643 99.0444 143.641C99.4128 143.634 99.4128 143.634 99.7887 143.628C100.828 143.628 101.486 143.652 102.424 144.13C102.899 144.629 102.899 144.629 103.045 145.515C102.899 146.424 102.899 146.424 102.529 147.064C100.927 148.056 98.5044 147.707 96.6559 147.699C96.3099 147.698 96.3099 147.698 95.9569 147.698C95.4617 147.697 94.9665 147.696 94.4713 147.695C93.6881 147.692 92.9049 147.691 92.1217 147.69C90.4626 147.688 88.8035 147.685 87.1444 147.681C85.2136 147.677 83.2829 147.673 81.3522 147.671C80.5797 147.67 79.8072 147.668 79.0347 147.665C78.5643 147.665 78.0938 147.664 77.6234 147.664C77.4079 147.663 77.1925 147.662 76.9705 147.661C75.9149 147.645 75.9149 147.645 74.8908 147.861C74.9988 148.069 75.1067 148.277 75.2179 148.491C75.5717 149.22 75.8558 149.932 76.1217 150.696C78.3574 157.008 81.0445 162.991 84.5859 168.687C84.6991 168.869 84.8123 169.052 84.929 169.239C88.2695 174.5 92.982 178.861 99.1286 180.357C102.671 181.042 106.468 179.686 109.428 177.764C112.716 175.357 115.383 172.058 117.621 168.687C117.732 168.523 117.842 168.358 117.956 168.189C120.468 164.394 122.485 160.095 124.108 155.85C124.171 155.688 124.233 155.526 124.297 155.359C124.467 154.911 124.634 154.46 124.8 154.01C125.183 153.203 125.553 152.737 126.239 152.17C127.036 151.934 127.036 151.934 127.855 151.99C128.595 152.484 128.595 152.484 129.112 153.247C129.193 155.249 128.276 156.981 127.485 158.779C127.412 158.945 127.339 159.112 127.265 159.284C126.034 162.108 124.715 164.869 123.174 167.54C122.843 168.122 122.532 168.712 122.22 169.306C120.47 172.464 118.019 174.944 115.5 177.496C115.324 177.676 115.148 177.857 114.967 178.043C111.166 181.923 106.946 184.535 101.349 184.692C95.6475 184.722 91.0124 182.038 87.0655 178.146C84.7993 175.881 82.684 173.576 80.9952 170.842C80.8643 170.632 80.7335 170.422 80.5987 170.205C77.3936 164.997 74.85 159.459 72.7871 153.706C72.5498 153.048 72.3058 152.392 72.061 151.735C70.854 148.464 69.8767 145.15 68.9833 141.78C68.8089 141.123 68.6311 140.466 68.452 139.81C66.9827 134.365 65.8257 128.844 65.0162 123.264C64.9515 122.83 64.8945 122.471 64.8219 121.961C63.5419 112.975 61.8307 101.582 63.3443 96.2106C63.675 95.0368 63.7592 94.0718 64.8367 93.6399Z" fill="#020100"/>
</g>
<defs>
<clipPath id="clip0_757_5050">
<rect width="130" height="130" fill="white" transform="translate(9 99.9238) rotate(-45)"/>
</clipPath>
</defs>
</svg>
