<svg width="200" height="200" viewBox="0 0 200 200" fill="none" xmlns="http://www.w3.org/2000/svg">
<g clip-path="url(#clip0_757_5546)">
<path d="M100.95 17.8411C101.89 18.0702 102.245 18.5606 102.883 19.2812C103.374 20.1371 103.374 20.1371 103.842 21.123C104.107 21.6757 104.107 21.6757 104.378 22.2396C104.567 22.6414 104.756 23.0433 104.945 23.4453C105.145 23.866 105.346 24.2867 105.546 24.7073C107.004 27.7689 108.425 30.8474 109.843 33.9276C111.695 37.9305 113.637 41.8891 115.58 45.8482C115.708 46.1089 115.836 46.3696 115.967 46.6381C116.207 47.1262 116.446 47.614 116.687 48.1016C117.361 49.4762 117.987 50.8613 118.578 52.2734C120.416 51.2681 122.115 50.1208 123.823 48.9101C124.105 48.7119 124.386 48.5137 124.676 48.3095C125.527 47.7099 126.377 47.109 127.227 46.5078C127.694 46.1774 128.162 45.8471 128.63 45.5168C129.288 45.0526 129.946 44.5883 130.603 44.1235C132.691 42.6483 134.785 41.183 136.88 39.7193C137.261 39.4533 137.261 39.4533 137.649 39.1819C137.892 39.0128 138.135 38.8437 138.385 38.6695C138.835 38.3517 139.281 38.0287 139.723 37.6998C140.69 36.9808 141.272 36.5864 142.481 36.3779C143.562 36.5781 143.562 36.5781 144.523 37.1186C145.258 38.3361 145.211 38.6913 145.08 40.0675C145.027 40.6258 145.027 40.6258 144.973 41.1955C144.773 42.9735 144.529 44.7422 144.263 46.5115C144.18 47.0763 144.18 47.0763 144.094 47.6525C143.978 48.4393 143.86 49.2261 143.742 50.0127C143.561 51.2212 143.383 52.4301 143.205 53.6391C143.091 54.4063 142.976 55.1736 142.862 55.9407C142.782 56.4837 142.782 56.4837 142.7 57.0376C142.625 57.5369 142.625 57.5369 142.548 58.0461C142.504 58.3394 142.46 58.6327 142.415 58.9349C142.281 59.6406 142.281 59.6406 141.961 60.2812C142.197 60.3213 142.432 60.3614 142.675 60.4027C144.079 60.7172 145.286 61.3785 146.565 62.0229C146.849 62.1658 147.133 62.3086 147.426 62.4558C157.688 67.7244 165.865 76.1123 169.44 87.2012C169.571 87.6233 169.7 88.0458 169.828 88.4687C169.93 88.8044 170.031 89.1401 170.136 89.486C171.313 93.7931 171.536 98.125 171.43 102.562C171.763 102.644 172.097 102.726 172.441 102.81C175.621 103.724 178.357 106.454 179.978 109.265C182.161 113.478 182.915 118.293 181.499 122.922C179.639 127.535 176.594 130.631 172.07 132.672C171.859 132.672 171.647 132.672 171.43 132.672C171.449 133.217 171.449 133.217 171.47 133.773C171.435 144.987 166.813 155.202 159.038 163.142C145.293 176.717 123.437 181.981 104.624 182.065C104.114 182.068 104.114 182.068 103.594 182.072C102.503 182.077 101.411 182.079 100.32 182.08C99.9475 182.08 99.5748 182.081 99.1907 182.081C93.6242 182.078 88.2097 181.905 82.7031 181.039C82.3945 180.994 82.0858 180.95 81.7678 180.904C72.4464 179.552 63.2584 176.964 54.8359 172.711C54.6376 172.612 54.4392 172.513 54.2349 172.411C43.5715 167.059 34.5603 158.522 30.6924 147.046C29.1834 142.345 28.4739 137.607 28.5703 132.672C28.1479 132.544 28.1479 132.544 27.717 132.413C23.5322 130.918 20.9253 127.921 19.0335 124.021C17.4631 120.19 17.2952 115.3 18.8583 111.425C20.9288 107.241 23.6495 104.494 27.9297 102.562C28.1411 102.562 28.3525 102.562 28.5703 102.562C28.5536 102.159 28.5536 102.159 28.5365 101.748C28.2721 90.0022 32.3887 80.1631 40.2517 71.591C45.1887 66.4696 51.4983 62.6784 58.039 59.9609C58.2504 59.9609 58.4618 59.9609 58.6797 59.9609C58.6242 59.6806 58.5688 59.4003 58.5117 59.1115C57.8073 55.462 57.2226 51.7982 56.6707 48.1228C56.5161 47.0985 56.3573 46.075 56.1985 45.0514C56.0994 44.3949 56.0005 43.7385 55.902 43.0819C55.8543 42.7786 55.8066 42.4753 55.7575 42.1628C55.2441 38.6672 55.2441 38.6672 56.3174 37.0986C57.414 36.3482 58.0001 36.4152 59.3203 36.5781C60.3809 37.1248 61.3103 37.8252 62.2632 38.54C62.8336 38.9539 63.4042 39.3676 63.9748 39.7812C64.2651 39.9943 64.5554 40.2073 64.8544 40.4268C66.2181 41.4207 67.6043 42.3815 68.9897 43.3447C71.2191 44.9033 73.4423 46.4704 75.6633 48.041C77.68 49.4657 79.7086 50.8729 81.7422 52.2734C82.605 51.2139 83.1781 50.0984 83.7716 48.8701C83.8726 48.6619 83.9736 48.4537 84.0776 48.2392C84.4083 47.556 84.7369 46.8718 85.0654 46.1875C85.2977 45.706 85.5301 45.2245 85.7626 44.7431C87.1517 41.8599 88.5118 38.9647 89.8501 36.0576C91.4707 32.5415 93.1334 29.0468 94.8211 25.5624C95.0958 24.9948 95.3698 24.427 95.643 23.8588C96.0265 23.0622 96.4125 22.267 96.7994 21.4721C96.9143 21.2323 97.0292 20.9925 97.1476 20.7454C98.1552 18.689 98.5758 17.9097 100.95 17.8411Z" fill="#020101"/>
<path d="M100 26.3281C100.211 26.3281 100.423 26.3281 100.641 26.3281C106.514 38.3053 106.514 38.3053 108.889 43.4648C110.294 46.5142 111.716 49.554 113.17 52.5805C113.383 53.0256 113.596 53.4711 113.808 53.9169C114.102 54.535 114.399 55.1517 114.697 55.7681C114.867 56.122 115.036 56.4759 115.211 56.8405C115.639 57.6161 115.965 58.1365 116.656 58.6797C117.671 58.9007 118.314 58.8223 119.23 58.3278C120.006 57.8139 120.754 57.2726 121.501 56.7178C122.074 56.3039 122.648 55.8902 123.221 55.4766C123.514 55.2635 123.806 55.0504 124.107 54.8309C125.475 53.8401 126.861 52.8775 128.248 51.9131C129.806 50.8239 131.363 49.7321 132.913 48.6311C133.278 48.3726 133.278 48.3726 133.649 48.1089C134.1 47.7887 134.551 47.4679 135.001 47.1464C136.433 46.1291 137.899 45.1815 139.398 44.2656C139.36 44.553 139.321 44.8404 139.281 45.1365C139.227 45.5362 139.173 45.9359 139.118 46.3477C139.089 46.5627 139.06 46.7777 139.031 46.9992C138.879 48.1343 138.732 49.2697 138.595 50.4066C138.337 52.5481 138.045 54.6688 137.637 56.7878C137.437 57.9478 137.295 59.1129 137.156 60.2812C136.95 62.0143 136.686 63.7226 136.355 65.4363C136.156 66.5963 136.014 67.7613 135.875 68.9297C135.702 70.3801 135.511 71.819 135.234 73.2539C134.966 74.6494 134.781 76.0474 134.614 77.458C134.531 78.1215 134.447 78.7847 134.362 79.4478C134.302 79.9186 134.244 80.3897 134.188 80.861C133.56 85.9686 133.56 85.9686 131.817 87.6054C127.774 90.5447 123.444 92.1655 118.578 93.1733C118.269 93.2382 117.96 93.3031 117.641 93.37C112.037 94.4586 106.4 94.6541 100.707 94.6206C99.6805 94.6148 98.6541 94.614 97.6277 94.6141C92.3107 94.6036 92.3107 94.6036 89.7074 94.4454C89.3972 94.4267 89.087 94.4081 88.7674 94.3888C88.1826 94.351 87.598 94.3086 87.0139 94.2608C86.7549 94.2436 86.4959 94.2263 86.229 94.2085C85.8903 94.1814 85.8903 94.1814 85.5448 94.1537C84.9104 94.1885 84.9104 94.1885 84.3933 94.6577C83.9049 95.2101 83.9049 95.2101 83.8442 96.1362C84.0199 97.3658 84.2949 97.6413 85.2656 98.3984C89.3086 99.4358 93.8135 99.1378 97.9526 99.1226C99.0495 99.1192 100.146 99.1226 101.243 99.1266C104.795 99.1291 108.323 99.0426 111.864 98.7525C112.17 98.7275 112.475 98.7026 112.79 98.6768C115.737 98.4086 118.591 97.8239 121.461 97.1172C121.951 97.0038 121.951 97.0038 122.451 96.8882C127.887 95.539 133.987 92.9978 137.156 88.1284C138.099 86.2366 138.178 84.1125 138.373 82.0394C138.463 81.179 138.607 80.3316 138.758 79.48C139.006 78.0487 139.211 76.6165 139.398 75.1758C139.826 71.8998 140.399 68.6543 141 65.4062C147.197 66.1169 154.23 72.3858 158.169 76.94C161.626 81.3685 163.748 86.2941 163.102 91.9922C161.241 99.8017 156.026 105.475 149.388 109.669C140.241 115.284 130.107 118.597 119.579 120.4C119.205 120.465 118.831 120.53 118.445 120.597C112.363 121.592 106.277 121.913 100.12 121.901C99.7823 121.901 99.4445 121.901 99.0965 121.901C90.6808 121.884 82.338 121.271 74.1771 119.1C73.415 118.899 72.6505 118.713 71.8838 118.531C62.3539 116.215 52.9776 112.276 45.5468 105.766C45.3532 105.618 45.1595 105.47 44.96 105.318C41.6668 102.773 39.3217 99.0302 37.8593 95.1953C37.6971 94.7921 37.6971 94.7921 37.5315 94.3808C36.041 90.1896 36.8571 85.7027 38.6801 81.7622C42.8048 73.9994 50.6823 68.4018 58.6797 65.0859C58.9968 65.0859 59.3139 65.0859 59.6406 65.0859C60.3121 68.9876 60.9641 72.8811 61.4248 76.8136C61.5819 78.0513 61.8049 79.2662 62.0467 80.4897C62.2051 81.434 62.3015 82.3768 62.3941 83.3294C62.7253 86.5595 63.5376 89.1783 65.9743 91.4379C68.1931 93.1624 70.7803 94.9934 73.6142 95.3354C74.7253 95.3076 74.7253 95.3076 75.3359 94.5146C75.7365 93.363 75.7156 92.8317 75.3359 91.6719C74.5666 91.1528 73.9076 90.7865 73.0737 90.4106C68.513 88.1546 68.513 88.1546 67.472 85.6923C66.8331 83.6239 66.5996 81.4738 66.3241 79.3335C66.1914 78.3027 66.0526 77.2727 65.9142 76.2426C65.8442 75.7211 65.7745 75.1996 65.7052 74.6781C65.4062 72.4318 65.0819 70.1897 64.7456 67.9487C64.694 67.6036 64.6424 67.2585 64.5892 66.9029C64.4863 66.215 64.3832 65.5271 64.28 64.8393C63.9591 62.6978 63.643 60.5557 63.3269 58.4135C63.0483 56.5275 62.766 54.6422 62.4784 52.7577C62.3892 52.1687 62.3892 52.1687 62.2982 51.5677C62.1842 50.8156 62.0692 50.0636 61.9528 49.3118C61.9016 48.9724 61.8504 48.633 61.7977 48.2833C61.7522 47.9861 61.7067 47.6889 61.6598 47.3827C61.5554 46.4439 61.5461 45.5298 61.5625 44.5859C62.8556 45.1657 63.9872 45.9825 65.146 46.7881C65.3715 46.944 65.5971 47.1 65.8294 47.2607C67.8839 48.6842 69.9252 50.1261 71.9651 51.5703C73.8455 52.9005 75.7339 54.2193 77.6222 55.5383C77.876 55.7157 78.1299 55.8931 78.3914 56.0759C78.7553 56.3294 78.7553 56.3294 79.1265 56.5881C79.5776 56.9068 80.0254 57.2303 80.469 57.5594C81.6713 58.4512 81.6713 58.4512 83.1035 58.8398C84.1105 58.6567 84.2989 58.477 84.9453 57.7188C85.3009 57.1373 85.3009 57.1373 85.6058 56.4876C85.7271 56.2406 85.8484 55.9935 85.9734 55.7389C86.1668 55.3372 86.1668 55.3372 86.3642 54.9273C86.5008 54.6472 86.6375 54.3671 86.7783 54.0786C87.2237 53.1642 87.6661 52.2484 88.1084 51.3325C88.4152 50.7004 88.7222 50.0683 89.0293 49.4363C90.8543 45.6725 92.6478 41.8958 94.3946 38.095C96.2095 34.1469 98.1031 30.2374 100 26.3281Z" fill="#C06535"/>
<path d="M100 26.3281C100.211 26.3281 100.423 26.3281 100.641 26.3281C106.515 38.3053 106.515 38.3053 108.889 43.4648C110.294 46.5141 111.716 49.554 113.17 52.5805C113.383 53.0256 113.596 53.4711 113.808 53.9169C114.102 54.535 114.399 55.1517 114.697 55.7681C114.867 56.122 115.036 56.4759 115.211 56.8405C115.639 57.6161 115.966 58.1365 116.656 58.6797C117.671 58.9007 118.314 58.8223 119.23 58.3278C120.006 57.8139 120.754 57.2726 121.501 56.7178C122.074 56.3039 122.648 55.8902 123.221 55.4766C123.514 55.2635 123.806 55.0504 124.107 54.8309C125.475 53.8401 126.861 52.8775 128.248 51.9131C129.806 50.8239 131.363 49.7321 132.913 48.6311C133.156 48.4588 133.399 48.2865 133.65 48.1089C134.1 47.7887 134.551 47.4679 135.001 47.1464C136.433 46.1291 137.899 45.1815 139.398 44.2656C139.36 44.553 139.321 44.8404 139.281 45.1365C139.2 45.736 139.2 45.736 139.118 46.3477C139.089 46.5627 139.06 46.7777 139.031 46.9992C138.879 48.1343 138.732 49.2697 138.595 50.4066C138.337 52.5481 138.045 54.6688 137.637 56.7878C137.437 57.9478 137.296 59.1129 137.156 60.2812C136.95 62.0143 136.686 63.7226 136.355 65.4363C136.156 66.5963 136.014 67.7613 135.875 68.9297C135.702 70.3801 135.511 71.819 135.234 73.2539C134.966 74.6494 134.781 76.0474 134.614 77.458C134.531 78.1214 134.447 78.7847 134.362 79.4478C134.302 79.9186 134.244 80.3897 134.188 80.861C133.561 85.9686 133.561 85.9686 131.817 87.6054C127.774 90.5447 123.444 92.1655 118.578 93.1733C118.269 93.2382 117.96 93.3031 117.641 93.37C112.037 94.4586 106.4 94.6541 100.707 94.6206C99.6805 94.6147 98.6542 94.614 97.6277 94.6141C96.9504 94.6127 96.2731 94.6108 95.5957 94.6085C95.1028 94.607 95.1028 94.607 94.5998 94.6054C92.967 94.5926 91.3475 94.5429 89.7188 94.4228C89.2556 94.3905 89.2556 94.3905 88.7831 94.3576C88.2022 94.3141 87.6217 94.2635 87.0421 94.2045C86.3103 94.1497 85.669 94.1116 84.9453 94.2344C84.1475 94.9783 84.1475 94.9783 83.6641 95.8359C81.2742 96.3058 78.2526 94.9395 75.9766 94.2344C75.918 93.8384 75.8593 93.4424 75.7989 93.0344C75.499 91.8413 75.3834 91.7058 74.3125 90.9399C73.8964 90.7425 73.4766 90.553 73.0537 90.3706C72.6163 90.1586 72.18 89.9442 71.745 89.7275C71.5353 89.6237 71.3257 89.52 71.1097 89.4131C69.3517 88.4899 68.2459 87.5226 67.472 85.6923C66.8331 83.6239 66.5997 81.4738 66.3242 79.3335C66.1915 78.3027 66.0526 77.2727 65.9142 76.2426C65.8442 75.7211 65.7746 75.1996 65.7053 74.6781C65.4063 72.4318 65.0819 70.1897 64.7456 67.9487C64.694 67.6036 64.6425 67.2585 64.5893 66.9029C64.4864 66.215 64.3833 65.5271 64.28 64.8393C63.9592 62.6978 63.643 60.5557 63.327 58.4135C63.0484 56.5275 62.7661 54.6422 62.4784 52.7577C62.419 52.365 62.3595 51.9723 62.2982 51.5677C62.1843 50.8156 62.0692 50.0636 61.9529 49.3118C61.9017 48.9724 61.8505 48.633 61.7978 48.2833C61.7522 47.9861 61.7067 47.6889 61.6598 47.3826C61.5554 46.4438 61.5462 45.5298 61.5625 44.5859C62.8556 45.1657 63.9872 45.9825 65.146 46.7881C65.3716 46.944 65.5971 47.1 65.8295 47.2607C67.8839 48.6842 69.9253 50.1261 71.9652 51.5702C73.8456 52.9005 75.734 54.2193 77.6223 55.5383C77.8761 55.7157 78.1299 55.8931 78.3914 56.0759C78.7553 56.3294 78.7553 56.3294 79.1265 56.5881C79.5777 56.9068 80.0255 57.2303 80.4691 57.5594C81.6714 58.4512 81.6714 58.4512 83.1035 58.8398C84.1106 58.6567 84.2989 58.477 84.9453 57.7187C85.301 57.1373 85.301 57.1373 85.6058 56.4876C85.7271 56.2406 85.8485 55.9935 85.9734 55.7389C86.1024 55.4711 86.2314 55.2032 86.3642 54.9273C86.5009 54.6472 86.6376 54.3671 86.7784 54.0786C87.2238 53.1642 87.6662 52.2484 88.1084 51.3325C88.4153 50.7004 88.7223 50.0683 89.0293 49.4363C90.8543 45.6725 92.6479 41.8958 94.3946 38.095C96.2096 34.1469 98.1031 30.2374 100 26.3281Z" fill="#FEE900"/>
<path d="M29.5312 107.688C29.6019 108.073 29.6019 108.073 29.6739 108.466C31.1214 115.803 33.9292 122.472 38.8203 128.188C38.956 128.35 39.0917 128.512 39.2315 128.678C41.4844 131.353 44.0069 133.5 46.8281 135.555C47.0027 135.686 47.1773 135.817 47.3572 135.952C53.7219 140.701 61.3595 143.618 68.9297 145.805C69.2504 145.897 69.571 145.99 69.9014 146.086C90.2687 151.804 114.877 151.618 134.914 144.523C135.219 144.417 135.524 144.31 135.839 144.201C139.949 142.752 143.888 141.141 147.727 139.078C148.036 138.922 148.345 138.765 148.664 138.604C151.192 137.298 153.477 135.673 155.734 133.953C155.915 133.816 156.097 133.678 156.283 133.536C164.372 127.299 168.705 117.565 170.469 107.688C173.63 108.674 175.017 110.596 176.555 113.453C177.604 116.07 177.604 119.111 176.566 121.742C175.017 124.916 172.899 126.896 169.648 128.273C168.488 128.622 167.345 128.68 166.138 128.709C165.141 128.858 164.733 129.028 164.063 129.789C163.947 130.618 163.902 131.343 163.902 132.171C163.775 135.793 163.015 138.589 160.425 141.257C157.272 143.878 154.239 144.33 150.289 144.203C149.794 144.152 149.3 144.093 148.808 144.023C147.732 143.804 147.732 143.804 146.766 144.203C146.405 145.899 146.405 145.899 146.766 147.526C148.78 149.163 151.912 148.912 154.382 148.764C157.688 148.409 160.546 146.918 163.102 144.844C163.432 144.586 163.762 144.328 164.103 144.063C164.301 143.898 164.499 143.733 164.703 143.562C164.302 145.661 163.708 147.466 162.781 149.388C162.654 149.652 162.527 149.917 162.396 150.189C156.666 161.762 145.436 168.432 133.615 172.563C118.656 177.517 101.188 178.666 85.5859 176.555C85.2723 176.515 84.9587 176.476 84.6356 176.435C76.8505 175.437 69.1971 173.661 61.8828 170.789C61.5466 170.658 61.5466 170.658 61.2036 170.524C56.0803 168.493 51.3563 165.701 47.1484 162.141C46.9734 161.993 46.7984 161.845 46.6181 161.693C40.8822 156.782 36.8605 150.607 34.9766 143.242C35.2871 143.52 35.5976 143.797 35.9175 144.083C38.4635 146.251 41.9917 148.887 45.5317 148.645C45.7634 148.621 45.9951 148.597 46.2338 148.572C49.2609 148.289 49.2609 148.289 50.6719 148.688C51.9572 149.926 52.4994 151.227 53.2344 152.852C55.3446 155.856 59.0074 157.777 62.5234 158.617C67.0062 159.102 70.6814 158.44 74.6953 156.375C74.8468 156.58 74.9984 156.785 75.1545 156.997C77.8052 160.464 81.1012 163.06 85.4796 163.97C90.1478 164.549 94.2861 163.777 98.1632 160.997C98.7037 160.551 99.1952 160.084 99.6797 159.578C100.591 160 101.311 160.479 102.082 161.12C105.504 163.739 109.263 164.298 113.453 164.062C117.581 163.5 121.37 161.524 124.023 158.297C124.491 157.669 124.901 157.047 125.305 156.375C125.514 156.479 125.724 156.584 125.94 156.692C130.949 159.09 135.02 159.403 140.359 157.977C140.377 157.456 140.389 156.936 140.399 156.415C140.411 155.98 140.411 155.98 140.422 155.537C140.437 154.713 140.437 154.713 139.719 154.133C138.91 154.075 138.91 154.075 137.97 154.138C132.786 154.315 129.712 154.256 125.814 150.634C125.241 150.182 125.241 150.182 124.104 150.229C123.054 150.514 123.054 150.514 122.542 151.23C122.287 151.798 122.035 152.367 121.791 152.939C120.434 155.919 118.45 157.785 115.42 159.036C112.308 160.042 109.313 159.863 106.352 158.497C104.551 157.463 103.099 156.135 101.862 154.473C101.309 153.737 101.309 153.737 100.34 153.472C99.0167 153.499 98.6921 153.839 97.7578 154.773C97.4104 155.193 97.0634 155.614 96.7168 156.035C94.7488 158.327 92.2079 159.366 89.2508 159.659C85.9897 159.803 83.2796 158.778 80.7825 156.692C79.3915 155.311 78.4119 153.72 77.6782 151.911C77.33 150.851 77.33 150.851 76.2969 150.289C74.7262 150.258 73.941 150.626 72.8335 151.67C70.5229 153.809 68.1563 154.332 65.0533 154.282C61.4116 154.114 59.2342 152.554 56.7578 149.969C55.4699 148.417 55.0323 146.756 54.5156 144.844C54.4099 144.527 54.3042 144.21 54.1953 143.883C52.3901 143.558 52.3901 143.558 50.6118 143.863C47.6342 144.693 44.7177 144.44 42.0234 142.922C39.3942 141.274 37.4674 139.016 36.4205 136.061C36.1372 134.621 36.1206 133.145 36.1148 131.68C36.0903 130.296 36.0903 130.296 35.3857 129.151C34.5508 128.781 33.9654 128.732 33.0547 128.728C29.9897 128.515 27.3371 126.994 25.2671 124.755C23.1868 121.938 22.4459 118.821 22.8047 115.375C23.7544 112.014 25.3668 109.748 28.3351 107.959C28.8906 107.688 28.8906 107.688 29.5312 107.688Z" fill="#C06535"/>
<path d="M33.6953 97.7578C34.336 98.7188 34.336 98.7188 34.8239 99.6359C41.155 111.43 54.1561 117.967 66.4825 121.795C68.8825 122.503 71.2997 123.127 73.7344 123.703C74.0157 123.77 74.297 123.837 74.5868 123.906C79.1597 124.964 83.8023 125.488 88.4688 125.945C88.7286 125.972 88.9885 125.999 89.2562 126.027C91.2918 126.228 93.3031 126.317 95.348 126.319C95.6554 126.321 95.9629 126.322 96.2796 126.324C97.2662 126.327 98.2527 126.327 99.2393 126.326C99.5777 126.325 99.9162 126.325 100.265 126.324C110.954 126.3 121.803 125.44 132.031 122.102C132.647 121.908 133.263 121.715 133.879 121.522C137.868 120.251 141.723 118.816 145.484 116.977C145.716 116.864 145.947 116.751 146.186 116.635C154.496 112.54 162.383 106.54 165.984 97.7578C166.09 97.7578 166.196 97.7578 166.305 97.7578C166.606 107.725 164.344 118.217 157.656 125.945C157.418 126.262 157.181 126.58 156.936 126.906C155.674 128.399 154.064 129.552 152.531 130.75C152.283 130.954 152.034 131.159 151.778 131.369C147.039 135.082 141.267 137.475 135.631 139.462C135.013 139.683 134.401 139.922 133.79 140.163C127.583 142.58 120.837 143.563 114.261 144.382C113.474 144.481 112.688 144.586 111.902 144.698C108.133 145.214 104.401 145.265 100.601 145.244C100.282 145.243 99.9635 145.242 99.6352 145.241C95.0326 145.224 90.4731 145.145 85.9063 144.523C85.5781 144.48 85.2499 144.437 84.9117 144.393C75.0382 143.073 65.4137 140.599 56.4375 136.195C56.2108 136.087 55.9842 135.978 55.7506 135.866C45.9578 131.128 39.2382 123.885 35.5371 113.633C33.7112 108.285 33.5709 103.373 33.6953 97.7578Z" fill="#B85A28"/>
<path d="M29.5312 107.688C29.6019 108.073 29.6019 108.073 29.6739 108.466C31.1214 115.803 33.9292 122.472 38.8203 128.188C38.956 128.35 39.0917 128.512 39.2315 128.678C41.4844 131.353 44.0069 133.5 46.8281 135.555C47.0027 135.686 47.1773 135.817 47.3572 135.952C53.7219 140.701 61.3595 143.618 68.9297 145.805C69.2504 145.897 69.571 145.99 69.9014 146.086C90.2687 151.804 114.877 151.618 134.914 144.523C135.219 144.417 135.524 144.31 135.839 144.201C139.949 142.752 143.888 141.141 147.727 139.078C148.036 138.922 148.345 138.765 148.664 138.604C151.192 137.298 153.477 135.673 155.734 133.953C155.915 133.816 156.097 133.678 156.283 133.536C164.372 127.299 168.705 117.565 170.469 107.688C173.63 108.674 175.017 110.596 176.555 113.453C177.604 116.07 177.604 119.111 176.566 121.742C175.017 124.916 172.899 126.896 169.648 128.273C168.488 128.622 167.345 128.68 166.138 128.709C165.141 128.858 164.733 129.028 164.063 129.789C163.947 130.618 163.902 131.343 163.902 132.171C163.775 135.793 163.015 138.589 160.425 141.257C157.272 143.878 154.239 144.33 150.289 144.203C149.794 144.152 149.3 144.093 148.808 144.023C147.732 143.804 147.732 143.804 146.766 144.203C146.667 144.788 146.667 144.788 146.565 145.384C146.528 145.604 146.491 145.823 146.453 146.049C146.394 146.802 146.394 146.802 146.809 147.554C147.086 148.367 147.086 148.367 146.784 149.157C145.186 151.594 143.767 153.462 141.32 155.094C140.079 154.493 140.079 154.493 139.719 154.133C139.146 154.128 138.573 154.144 138.001 154.169C132.817 154.331 129.709 154.253 125.814 150.634C125.241 150.182 125.241 150.182 124.104 150.229C123.054 150.514 123.054 150.514 122.542 151.23C122.287 151.798 122.035 152.367 121.791 152.939C120.434 155.919 118.45 157.785 115.42 159.036C112.308 160.042 109.313 159.863 106.352 158.497C104.551 157.463 103.099 156.135 101.862 154.473C101.309 153.737 101.309 153.737 100.34 153.472C99.0167 153.499 98.6921 153.839 97.7578 154.773C97.4104 155.193 97.0634 155.614 96.7168 156.035C94.7488 158.327 92.2079 159.366 89.2508 159.659C85.9897 159.803 83.2796 158.778 80.7825 156.692C79.3915 155.311 78.4119 153.72 77.6782 151.911C77.33 150.851 77.33 150.851 76.2969 150.289C74.7262 150.258 73.941 150.626 72.8335 151.67C70.5229 153.809 68.1563 154.332 65.0533 154.282C61.4116 154.114 59.2342 152.554 56.7578 149.969C55.4699 148.417 55.0323 146.756 54.5156 144.844C54.4099 144.527 54.3042 144.21 54.1953 143.883C52.3901 143.558 52.3901 143.558 50.6118 143.863C47.6342 144.693 44.7177 144.44 42.0234 142.922C39.3942 141.274 37.4674 139.016 36.4205 136.061C36.1372 134.621 36.1206 133.145 36.1148 131.68C36.0903 130.296 36.0903 130.296 35.3857 129.151C34.5508 128.781 33.9654 128.732 33.0547 128.728C29.9897 128.515 27.3371 126.994 25.2671 124.755C23.1868 121.938 22.4459 118.821 22.8047 115.375C23.7544 112.014 25.3668 109.748 28.3351 107.959C28.8906 107.688 28.8906 107.688 29.5312 107.688Z" fill="#EBEBEB"/>
<path d="M139.078 44.2656C139.452 45.387 139.343 45.9945 139.172 47.1584C139.088 47.7369 139.088 47.7369 139.002 48.3271C138.942 48.7309 138.881 49.1347 138.818 49.5508C138.761 49.9447 138.703 50.3386 138.645 50.7444C138.34 52.8171 137.999 54.878 137.615 56.9374C137.418 58.0489 137.285 59.1597 137.156 60.2812C136.951 62.0145 136.686 63.7227 136.355 65.4363C136.156 66.5963 136.014 67.7613 135.875 68.9297C135.702 70.3801 135.511 71.819 135.234 73.2539C134.966 74.6494 134.781 76.0474 134.614 77.458C134.531 78.1215 134.447 78.7847 134.362 79.4478C134.302 79.9186 134.244 80.3897 134.188 80.861C133.561 85.9686 133.561 85.9686 131.817 87.6054C126.683 91.3382 119.852 93.9141 113.453 93.9141C113.453 93.7027 113.453 93.4913 113.453 93.2734C113.824 93.0839 114.195 92.8944 114.577 92.6991C115.07 92.4436 115.563 92.1879 116.056 91.9321C116.299 91.8081 116.543 91.684 116.794 91.5561C119.119 90.3436 121.199 88.9609 122.422 86.5469C122.813 85.096 123.013 83.6287 123.216 82.1413C123.281 81.702 123.347 81.2627 123.412 80.8235C123.551 79.8963 123.686 78.9686 123.818 78.0405C124.019 76.6374 124.233 75.2365 124.45 73.8359C124.774 71.7383 125.093 69.6401 125.408 67.541C125.622 66.1093 125.839 64.6779 126.057 63.2467C126.199 62.3063 126.341 61.3656 126.481 60.4248C126.548 59.9825 126.615 59.5403 126.682 59.0982C127.121 56.3945 127.121 56.3945 127.176 53.6664C127.227 52.5938 127.227 52.5938 127.832 51.8832C128.252 51.6119 128.252 51.6119 128.68 51.335C128.99 51.1282 129.3 50.9213 129.619 50.7082C129.953 50.498 130.286 50.2878 130.63 50.0713C131.305 49.6252 131.981 49.179 132.656 48.7325C132.986 48.5179 133.317 48.3033 133.658 48.0822C134.896 47.2706 136.099 46.4161 137.296 45.5469C137.65 45.2932 138.003 45.0396 138.356 44.7861C138.594 44.6144 138.833 44.4426 139.078 44.2656Z" fill="#F0DC00"/>
<path d="M151.57 84.6251C152.191 84.9454 152.191 84.9454 152.531 85.5861C152.772 87.7536 152.772 87.7536 152.031 88.9694C151.25 89.4298 151.25 89.4298 150.109 89.4298C149.008 89.1095 149.008 89.1095 148.387 88.569C147.939 87.5925 147.892 86.97 148.047 85.9064C148.991 84.4717 149.925 84.4157 151.57 84.6251Z" fill="#070301"/>
<path d="M50.6719 84.6249C51.4527 85.1454 51.4527 85.1454 51.9532 85.9061C52.1334 86.8471 52.1334 86.8471 51.9532 87.828C51.2109 88.8036 50.743 89.3437 49.5308 89.6097C48.4506 89.3605 48.0911 89.0702 47.4688 88.1483C47.2643 87.0188 47.2579 85.9828 47.8091 84.9452C48.8074 84.43 49.5709 84.4897 50.6719 84.6249Z" fill="#060301"/>
<path d="M100.18 108.028C101.281 108.328 101.281 108.328 101.902 108.688C102.457 109.668 102.377 110.432 102.242 111.531C101.722 112.312 101.722 112.312 100.961 112.812C99.7962 113.007 99.2687 112.963 98.2783 112.312C97.5581 111.232 97.5759 110.562 97.7578 109.289C98.4845 108.126 98.8001 108.004 100.18 108.028Z" fill="#060301"/>
<path d="M77.438 105.125C78.5391 105.445 78.5391 105.445 79.1797 105.946C79.683 107.172 79.4713 107.998 79.1797 109.289C77.9962 110.078 77.3755 110.055 75.9766 109.93C75.356 109.609 75.356 109.609 75.0157 108.969C74.7748 106.801 74.7748 106.801 75.5162 105.585C76.2969 105.125 76.2969 105.125 77.438 105.125Z" fill="#070301"/>
<path d="M123.423 105.346C124.023 105.445 124.023 105.445 124.664 105.766C125.186 106.809 125.153 107.828 124.984 108.969C124.644 109.609 124.644 109.609 124.023 109.93C122.764 110.09 122.069 110.122 121 109.409C120.353 108.425 120.331 107.885 120.5 106.727C121.108 105.283 121.992 105.26 123.423 105.346Z" fill="#050201"/>
<path d="M143.242 98.3985C144.105 99.0992 144.184 99.5466 144.343 100.641C144.203 101.602 144.203 101.602 143.703 102.362C142.634 103.075 141.939 103.043 140.68 102.883C140.059 102.563 140.059 102.563 139.719 101.922C139.55 100.781 139.517 99.7626 140.039 98.7189C141.084 98.1966 142.103 98.1873 143.242 98.3985Z" fill="#050201"/>
<path d="M58.7197 98.2996C59.3203 98.3984 59.3203 98.3984 59.9609 98.7187C60.4828 99.7625 60.45 100.781 60.2813 101.922C59.9409 102.562 59.9409 102.562 59.3203 102.883C58.0612 103.043 57.3662 103.075 56.2974 102.362C55.6498 101.378 55.6279 100.838 55.7969 99.6797C56.4047 98.2361 57.2884 98.2128 58.7197 98.2996Z" fill="#050201"/>
</g>
<defs>
<clipPath id="clip0_757_5546">
<rect width="164" height="164" fill="white" transform="translate(18 18)"/>
</clipPath>
</defs>
</svg>
