<svg width="200" height="200" viewBox="0 0 200 200" fill="none" xmlns="http://www.w3.org/2000/svg">
<g clip-path="url(#clip0_757_5000)">
<g clip-path="url(#clip1_757_5000)">
<path d="M7.72653 61.3685C8.0685 61.0949 8.4142 60.8258 8.76403 60.5622C8.98622 60.3798 8.98622 60.3798 9.2129 60.1937C11.9721 58.0776 15.9308 57.6536 19.3027 57.9542C20.5315 58.1169 21.7477 58.3418 22.963 58.5838C22.8542 58.3727 22.7454 58.1616 22.6333 57.9441C20.358 53.3161 19.6476 48.9352 21.3034 43.9733C22.5153 40.7499 25.4362 38.3322 28.5007 36.9357C32.3477 35.527 35.7286 35.8256 39.4727 37.3517C42.7182 38.9859 44.9819 41.7638 46.9077 44.7594C47.057 44.3465 47.057 44.3465 47.2093 43.9253C48.7435 39.7797 50.7986 35.9071 54.8534 33.7452C58.0904 32.2733 60.9036 32.1667 64.2883 33.0532C64.6197 33.1339 64.6197 33.1339 64.9577 33.2162C68.1126 34.042 70.6766 35.9832 72.3836 38.771C74.8403 43.3767 74.5029 48.3175 73.1125 53.1763C72.3489 55.6753 71.3107 58.0843 70.2937 60.4887C70.4791 60.5336 70.6644 60.5785 70.8554 60.6247C72.5162 61.0453 74.0364 61.5543 75.5713 62.3135C75.7781 62.4151 75.985 62.5167 76.1981 62.6214C83.1701 66.1427 88.6823 71.4472 93.2854 77.6895C93.3956 77.8384 93.5058 77.9872 93.6194 78.1406C96.3605 81.8852 98.8761 86.0095 100.676 90.2902C100.996 91.0378 101.345 91.7615 101.706 92.4897C104.543 98.2423 106.703 104.374 108.686 110.468C108.786 110.776 108.786 110.776 108.888 111.091C109.89 114.192 110.778 117.313 111.584 120.471C111.804 121.329 112.034 122.181 112.285 123.03C112.808 124.82 113.222 126.269 112.639 128.088C112.118 128.622 112.118 128.622 111.64 128.872C111.692 129.104 111.692 129.104 111.745 129.341C111.788 129.543 111.832 129.745 111.876 129.953C111.92 130.154 111.964 130.355 112.009 130.562C112.096 131.097 112.096 131.097 111.964 131.587C112.23 131.626 112.497 131.665 112.771 131.705C113.681 132.047 113.681 132.047 114.121 132.731C114.769 134.282 114.857 135.995 115.038 137.652C115.059 137.832 115.079 138.013 115.1 138.199C115.446 141.26 115.685 144.31 115.686 147.394C115.69 148.064 115.715 148.731 115.743 149.4C115.806 153.011 114.923 156.383 114.018 159.853C113.956 160.097 113.894 160.342 113.83 160.594C112.478 165.854 110.129 170.227 105.36 173.161C100.438 176.037 95.0819 176.031 89.7177 174.633C86.6228 173.805 83.6384 172.867 80.8085 171.343C80.5902 171.226 80.3719 171.11 80.147 170.99C74.767 168.082 69.7952 164.558 65.1325 160.607C64.5976 160.156 64.0582 159.709 63.5182 159.264C60.837 157.033 58.3339 154.653 55.8752 152.181C55.3954 151.699 54.9132 151.219 54.43 150.74C50.4351 146.76 46.6727 142.557 43.1814 138.129C42.9083 137.785 42.6352 137.442 42.362 137.098C30.6012 122.257 30.6012 122.257 27.8197 114.035C27.9973 113.042 28.23 112.411 28.9673 111.714C28.7862 110.986 28.5817 110.318 28.2011 109.669C27.3536 109.398 27.3536 109.398 26.4843 109.208C23.0775 104.253 23.1896 95.3717 24.1034 89.6444C24.2315 89.1226 24.367 88.6027 24.51 88.0848C24.6172 87.6941 24.6172 87.6941 24.7264 87.2956C24.7811 87.0995 24.8357 86.9034 24.892 86.7013C24.643 86.6705 24.643 86.6705 24.3889 86.6389C17.6925 85.7904 10.7132 84.7632 6.15304 79.22C2.18081 73.913 2.76406 65.9263 7.72653 61.3685Z" fill="#FEA83E"/>
<path d="M42.5997 68.2902C42.9628 68.0442 43.3269 67.7995 43.6911 67.5552C43.7475 67.8305 43.7475 67.8305 43.805 68.1114C43.3652 68.7476 42.9135 69.3645 42.4493 69.9825C38.8346 74.9954 36.8062 81.3232 36.7652 87.517C37.1945 87.3718 37.1945 87.3718 37.6324 87.2236C38.3285 87.2623 38.3285 87.2623 39.1039 87.6179C39.702 88.3116 40.1562 89.0646 40.6059 89.8604C40.7019 90.0271 40.7979 90.1938 40.8967 90.3655C41.2498 91.0411 41.4401 91.5642 41.4228 92.3301C40.9448 93.1791 40.4568 93.4403 39.5545 93.7845C38.643 93.5928 38.121 93.3743 37.56 92.6135C37.2944 92.1584 37.058 91.6866 36.8262 91.2134C36.831 93.0676 37.0118 94.8258 37.3584 96.6461C37.4296 97.0235 37.4296 97.0235 37.5022 97.4085C38.9716 104.888 42.3266 112.085 46.4847 118.447C46.8355 118.986 47.1667 119.537 47.4882 120.094C44.6148 121.753 41.7414 123.412 38.781 125.121C35.7811 122.461 33.556 117.574 32.0262 113.902C31.7211 113.255 31.4141 112.764 30.9294 112.24C30.3224 112.011 30.3224 112.011 29.7031 111.911C29.4603 111.846 29.2175 111.781 28.9673 111.714C28.7279 111.247 28.7279 111.247 28.5382 110.679C28.4738 110.491 28.4093 110.303 28.3428 110.109C28.2961 109.964 28.2493 109.818 28.2011 109.669C28.3713 109.519 28.3713 109.519 28.5449 109.366C29.1202 108.597 29.3561 107.797 29.4802 106.857C29.3492 106.132 29.1973 105.509 28.9756 104.816C24.8828 90.4066 30.4536 76.6001 42.5997 68.2902Z" fill="#FD9B1F"/>
<path d="M40.7559 128.542C40.8873 128.051 40.8873 128.051 41.5952 127.616C41.8747 127.464 42.1542 127.311 42.4422 127.153C42.6694 127.014 42.8966 126.874 43.1307 126.73C43.6861 126.435 43.6861 126.435 44.1766 126.567C44.3289 126.378 44.3289 126.378 44.4842 126.185C44.9659 125.679 45.4298 125.373 46.0348 125.027C46.2243 124.917 46.4139 124.806 46.6092 124.693C47.1068 124.46 47.1068 124.46 47.5973 124.592C47.6909 124.465 47.7845 124.338 47.8809 124.208C48.4689 123.625 49.0748 123.389 49.8398 123.09C49.9273 123.224 50.0148 123.359 50.1049 123.498C51.0561 124.943 52.0735 126.316 53.1463 127.672C53.4006 127.995 53.4006 127.995 53.66 128.324C57.9124 133.687 62.4675 138.697 67.2416 143.597C68.1289 144.508 69.0129 145.423 69.8966 146.339C68.343 147.434 66.7426 148.439 65.1065 149.407C64.8112 149.583 64.5173 149.761 64.2247 149.941C63.7971 150.205 63.3649 150.46 62.9325 150.716C62.6786 150.868 62.4247 151.021 62.1631 151.179C61.4346 151.431 61.4346 151.431 60.7083 151.222C60.0133 150.782 59.4822 150.335 58.9067 149.749C58.694 149.533 58.4814 149.317 58.2623 149.094C57.9202 148.738 57.9202 148.738 57.5712 148.375C57.4524 148.253 57.3335 148.13 57.2111 148.004C51.8152 142.433 46.6866 136.519 42.0841 130.275C41.756 129.832 41.4189 129.395 41.0658 128.972C40.9124 128.759 40.9124 128.759 40.7559 128.542Z" fill="#FC9A1F"/>
<path d="M7.72653 61.3686C8.0685 61.095 8.4142 60.8259 8.76403 60.5623C8.98622 60.3799 8.98622 60.3799 9.2129 60.1938C11.9721 58.0777 15.9308 57.6537 19.3027 57.9543C20.5315 58.117 21.7477 58.3419 22.963 58.5839C22.8542 58.3728 22.7454 58.1617 22.6333 57.9442C20.358 53.3161 19.6476 48.9353 21.3034 43.9734C22.5153 40.75 25.4362 38.3323 28.5007 36.9358C32.3477 35.5271 35.7286 35.8257 39.4727 37.3518C42.7182 38.986 44.9819 41.7639 46.9077 44.7594C47.057 44.3466 47.057 44.3466 47.2093 43.9254C48.7435 39.7798 50.7985 35.9072 54.8534 33.7453C58.0904 32.2734 60.9036 32.1668 64.2883 33.0533C64.6197 33.134 64.6197 33.134 64.9577 33.2163C68.1126 34.0421 70.6766 35.9833 72.3836 38.7711C74.8403 43.3767 74.5029 48.3176 73.1125 53.1764C72.3489 55.6754 71.3107 58.0844 70.2937 60.4888C70.4791 60.5337 70.6644 60.5786 70.8554 60.6248C72.5162 61.0454 74.0364 61.5544 75.5713 62.3136C75.7781 62.4152 75.985 62.5168 76.1981 62.6215C83.1701 66.1428 88.6823 71.4473 93.2854 77.6896C93.3956 77.8385 93.5058 77.9873 93.6194 78.1407C96.3604 81.8853 98.8761 86.0096 100.676 90.2903C100.996 91.0379 101.345 91.7615 101.706 92.4897C104.543 98.2424 106.703 104.374 108.686 110.468C108.786 110.776 108.786 110.776 108.888 111.091C109.89 114.192 110.778 117.313 111.584 120.471C111.804 121.329 112.034 122.181 112.285 123.03C112.809 124.827 113.195 126.257 112.639 128.088C111.951 128.692 111.951 128.692 111.412 128.719C111.118 128.677 111.118 128.677 110.817 128.635C110.62 128.611 110.424 128.588 110.222 128.564C109.678 128.346 109.678 128.346 109.289 127.873C108.813 126.757 108.575 125.613 108.312 124.431C107.702 121.799 106.995 119.205 106.234 116.613C106.183 116.438 106.132 116.263 106.079 116.082C105.539 114.153 105.539 114.153 104.858 112.272C104.661 111.755 104.661 111.755 104.792 111.265C103.07 112.084 101.411 112.982 99.7632 113.941C99.5151 114.084 99.2669 114.228 99.0112 114.376C98.4768 114.685 97.9426 114.995 97.4087 115.305C96.5643 115.795 95.7194 116.284 94.8744 116.773C93.0837 117.809 91.2937 118.847 89.5037 119.884C87.4228 121.091 85.3416 122.297 83.2596 123.501C82.4258 123.984 81.5925 124.468 80.7593 124.951C80.2516 125.245 79.7438 125.539 79.2361 125.833C79.0034 125.968 78.7708 126.104 78.5311 126.243C78.3193 126.365 78.1075 126.488 77.8892 126.614C77.7048 126.721 77.5205 126.827 77.3305 126.938C76.663 127.287 76.3433 127.297 75.5887 127.18C74.8428 126.898 74.8428 126.898 74.3671 126.343C74.1247 125.654 74.1247 125.654 74.1368 124.934C75.0608 123.116 77.6886 122.121 79.4136 121.142C79.6687 120.996 79.9238 120.851 80.1866 120.701C80.7361 120.387 81.2858 120.074 81.8356 119.761C82.8536 119.18 83.8702 118.598 84.8868 118.016C85.035 117.931 85.1832 117.846 85.3359 117.758C85.4851 117.673 85.6343 117.587 85.788 117.499C87.8054 116.343 89.8237 115.189 91.8445 114.039C93.3588 113.177 94.8707 112.311 96.3813 111.443C96.9574 111.113 97.5343 110.784 98.1121 110.457C98.9164 110.001 99.7178 109.54 100.519 109.078C100.759 108.944 101 108.809 101.248 108.67C101.465 108.544 101.681 108.417 101.904 108.287C102.189 108.125 102.189 108.125 102.479 107.959C102.932 107.63 102.932 107.63 102.971 107.087C102.859 106.233 102.537 105.459 102.224 104.662C102.12 104.39 102.12 104.39 102.013 104.113C101.8 103.562 101.584 103.012 101.368 102.462C101.192 102.012 101.192 102.012 101.013 101.553C98.0534 94.0872 94.741 86.3 89.799 79.9098C89.6764 79.7496 89.5538 79.5894 89.4274 79.4244C83.1102 71.2236 74.6131 64.7134 64.1569 63.1734C58.7264 62.5186 53.1493 63.3773 48.1585 65.5979C47.9935 65.6713 47.8285 65.7447 47.6585 65.8204C40.0254 69.2537 33.9412 74.7287 30.5071 82.423C30.4002 82.6387 30.2933 82.8543 30.1831 83.0765C28.9223 86.0823 28.1682 89.5462 27.9923 92.7894C27.9826 92.9683 27.9728 93.1473 27.9628 93.3316C27.7705 97.415 28.1593 101.536 29.3459 105.457C29.7504 106.821 29.8328 107.593 29.1997 108.885C28.6369 109.391 28.6369 109.391 27.9558 109.603C27.1984 109.548 27.1984 109.548 26.4843 109.209C23.1254 104.158 23.1782 95.4431 24.1034 89.6445C24.2315 89.1227 24.367 88.6027 24.51 88.0849C24.6172 87.6942 24.6172 87.6942 24.7264 87.2957C24.7811 87.0996 24.8357 86.9035 24.892 86.7014C24.643 86.6705 24.643 86.6705 24.3889 86.639C17.6925 85.7905 10.7132 84.7633 6.15304 79.2201C2.18081 73.9131 2.76406 65.9264 7.72653 61.3686Z" fill="#010100"/>
<path d="M26.9893 42.5766C29.0158 40.9155 31.6199 39.6318 34.3035 39.8049C37.7033 40.3239 40.312 42.4066 42.3441 45.1137C44.126 47.7839 45.4597 50.6465 46.6354 53.6238C46.7103 53.8111 46.7852 53.9985 46.8624 54.1916C47.3707 55.4646 47.8638 56.7428 48.3475 58.0254C48.4525 58.2999 48.5575 58.5744 48.6657 58.8572C48.7503 59.089 48.835 59.3207 48.9222 59.5595C48.9935 59.7534 49.0649 59.9474 49.1384 60.1472C49.2275 60.627 49.2275 60.627 48.7851 61.2971C48.1766 61.5601 48.1766 61.5601 47.3943 61.828C43.237 63.3662 39.3385 65.7078 36.0354 68.6582C34.9346 67.9369 34.1764 66.9914 33.3511 65.9839C33.2027 65.8037 33.0542 65.6235 32.9012 65.4378C30.6096 62.6374 28.5167 59.7619 26.6289 56.6746C26.438 56.3724 26.438 56.3724 26.2432 56.064C23.5891 51.7294 23.2229 46.3371 26.9893 42.5766Z" fill="#8CD26F"/>
<path d="M11.1339 63.6123C13.4625 61.9822 16.6655 61.5209 19.459 61.8508C20.9096 62.1707 22.3369 62.591 23.7648 62.9982C24.2758 63.1405 24.7906 63.2687 25.306 63.3939C27.1999 63.9185 27.9815 64.6869 29.0214 66.3352C29.7985 67.5598 30.7927 68.6125 31.759 69.689C32.7892 70.8602 32.7892 70.8602 32.8423 71.7455C32.4783 72.2651 32.4783 72.2651 31.9732 72.8434C29.3547 75.9256 27.6418 79.0883 26.1887 82.843C23.1698 82.6354 20.296 82.1368 17.3677 81.3666C17.0697 81.2903 16.7717 81.214 16.4647 81.1354C13.2734 80.2633 10.3368 78.7011 8.53412 75.8288C6.29433 71.6331 7.53722 66.6107 11.1339 63.6123Z" fill="#6CC646"/>
<path d="M50.3034 47.6296C51.3475 43.3035 52.9223 39.6389 56.8282 37.1661C59.7394 35.9685 62.2913 36.2547 65.2021 37.3069C67.4271 38.3918 68.8929 40.2348 69.7462 42.5476C70.6069 45.7382 70.1751 48.3692 69.3282 51.5228C69.243 51.8407 69.1578 52.1585 69.07 52.486C67.6586 57.6307 67.6586 57.6307 66.3039 59.6827C66.1622 59.6484 66.0206 59.6142 65.8747 59.579C62.0356 58.7779 57.6763 58.9374 53.8564 59.8108C53.3664 59.8961 53.3664 59.8961 52.6306 59.699C52.4078 59.1547 52.4078 59.1547 52.2059 58.4023C51.9081 57.3607 51.5806 56.382 51.1419 55.391C49.8541 52.4813 49.5815 50.7512 50.3034 47.6296Z" fill="#6CC646"/>
<path d="M64.0315 154.493C64.6963 153.608 65.5806 153.11 66.5182 152.558C66.687 152.459 66.8557 152.359 67.0296 152.256C67.3857 152.046 67.7423 151.838 68.0994 151.63C68.6458 151.311 69.188 150.985 69.7304 150.658C70.0772 150.455 70.4243 150.253 70.7716 150.051C70.9333 149.952 71.095 149.854 71.2616 149.752C72.3914 149.109 72.3914 149.109 73.1762 149.323C73.7806 149.774 74.3536 150.237 74.9171 150.74C75.1476 150.943 75.3781 151.146 75.6156 151.355C75.9843 151.681 75.9843 151.681 76.3604 152.013C82.5038 157.382 89.9831 163.314 97.997 165.469C98.1641 165.514 98.3311 165.559 98.5033 165.605C98.8542 165.7 99.2053 165.793 99.5566 165.886C100.089 166.027 100.62 166.171 101.151 166.315C102.782 166.753 104.383 167.166 106.066 167.333C103.491 170.142 100.313 171.441 96.5095 171.607C91.7552 171.805 86.9348 170.125 82.7752 167.927C82.5215 167.793 82.5215 167.793 82.2626 167.657C75.58 164.086 69.7461 159.423 64.0315 154.493Z" fill="#FD9A1F"/>
<path d="M48.0869 84.5048C49.4397 83.1883 51.1355 82.2668 52.7632 81.3385C52.9944 81.2034 53.2256 81.0683 53.4638 80.9291C53.6887 80.7998 53.9137 80.6705 54.1454 80.5372C54.3467 80.4215 54.548 80.3057 54.7554 80.1864C55.8624 79.6439 56.5377 79.4143 57.7521 79.7149C58.9089 80.2511 59.3789 81.1175 59.9545 82.2139C60.0544 82.3893 60.1543 82.5646 60.2573 82.7453C61.2224 84.4964 61.5154 85.8228 60.9885 87.7975C60.4487 89.6312 59.9162 90.6893 58.2942 91.6983C56.1636 92.8402 54.5146 92.682 52.2237 92.0165C49.9263 91.1326 48.8891 88.6126 47.8064 86.5326C47.6371 85.7053 47.7624 85.2925 48.0869 84.5048Z" fill="#030201"/>
<path d="M66.8135 80.6509C67.3985 79.4999 68.3498 79.039 69.4382 78.397C69.7106 78.2098 69.9831 78.0226 70.2638 77.8297C70.993 77.4993 70.993 77.4993 71.7699 77.5432C72.7223 78.0236 72.9978 78.4511 73.3623 79.4485C73.0616 80.4921 72.8011 80.9909 71.9274 81.6495C71.652 81.796 71.3766 81.9424 71.0928 82.0933C70.817 82.2437 70.5412 82.3941 70.2571 82.5491C69.4424 82.946 69.1583 83.0346 68.2654 82.8965C67.5195 82.6145 67.5195 82.6145 67.0438 82.0598C66.8014 81.3706 66.8014 81.3706 66.8135 80.6509Z" fill="#F4F2EF"/>
<path d="M38.8108 96.8055C39.416 95.667 40.3624 95.1977 41.4508 94.5557C41.7232 94.3684 41.9957 94.1812 42.2764 93.9883C43.0056 93.658 43.0056 93.658 43.7825 93.7018C44.7349 94.1822 45.0104 94.6098 45.3749 95.6071C44.9654 96.9979 44.4312 97.5665 43.1821 98.2725C42.9205 98.4267 42.6589 98.5809 42.3894 98.7398C41.3977 99.1149 40.8032 99.0768 39.7774 98.8388C39.0486 98.1589 38.8152 97.8063 38.8108 96.8055Z" fill="#F4F2F0"/>
<path d="M36.3885 87.9419C37.0769 87.3369 37.4383 87.2205 38.352 87.2358C39.5036 87.8212 39.9827 88.7579 40.6059 89.8605C40.7019 90.0272 40.7978 90.1939 40.8967 90.3656C41.2498 91.0412 41.4401 91.5643 41.4228 92.3302C40.9447 93.1792 40.4567 93.4404 39.5544 93.7846C38.3312 93.4382 37.6883 92.9854 37.0338 91.8852C36.9513 91.7357 36.8689 91.5862 36.784 91.4322C36.6934 91.2866 36.6028 91.141 36.5094 90.991C35.851 89.8378 35.8931 89.1526 36.3885 87.9419Z" fill="#060401"/>
<path d="M64.3759 71.7834C65.0643 71.1784 65.4257 71.062 66.3394 71.0774C67.4911 71.6628 67.9701 72.5995 68.5933 73.7021C68.6893 73.8687 68.7852 74.0354 68.8841 74.2071C69.2372 74.8828 69.4275 75.4058 69.4102 76.1717C68.9321 77.0208 68.4441 77.2819 67.5419 77.6261C66.3186 77.2798 65.6758 76.827 65.0212 75.7268C64.9388 75.5773 64.8563 75.4278 64.7714 75.2738C64.6808 75.1282 64.5902 74.9826 64.4969 74.8326C63.8384 73.6793 63.8805 72.9942 64.3759 71.7834Z" fill="#050301"/>
<path d="M52.2385 86.6687C52.8841 85.8158 53.6686 85.3866 54.5938 84.8683C54.8756 84.7094 55.1575 84.5504 55.4478 84.3866C55.6636 84.2669 55.8793 84.1471 56.1016 84.0237C56.8164 84.6325 57.2116 85.0169 57.4241 85.9553C57.2555 87.1917 57.1538 87.6861 56.226 88.5257C55.1964 88.8632 54.6474 88.8172 53.6326 88.4901C52.8497 88.0698 52.5732 87.4659 52.2385 86.6687Z" fill="#444444"/>
<path d="M28.214 112.564C28.6471 112.012 28.9128 111.979 29.7688 111.666C30.8548 111.965 31.3158 112.219 31.9569 113.157C32.1109 113.468 32.2595 113.781 32.4032 114.097C32.5249 114.346 32.5249 114.346 32.649 114.6C32.8808 115.077 33.106 115.556 33.3291 116.037C34.1058 117.682 34.9635 119.265 35.8697 120.842C35.9839 121.041 36.0981 121.24 36.2158 121.446C36.8781 122.589 37.5771 123.677 38.3562 124.744C39.2497 124.608 39.8934 124.322 40.673 123.87C41.0312 123.663 41.0312 123.663 41.3967 123.453C41.7863 123.225 41.7863 123.225 42.1838 122.993C42.4591 122.834 42.7343 122.674 43.018 122.51C43.6157 122.164 44.2131 121.818 44.81 121.47C45.7533 120.921 46.6978 120.374 47.6426 119.827C49.136 118.963 50.6286 118.097 52.1209 117.23C54.7951 115.677 57.4704 114.125 60.1467 112.576C61.0862 112.031 62.0251 111.486 62.9637 110.941C63.6834 110.522 64.4036 110.105 65.1237 109.688C65.3846 109.536 65.6455 109.384 65.9142 109.227C66.1515 109.09 66.3888 108.953 66.6332 108.811C66.9433 108.631 66.9433 108.631 67.2596 108.447C67.9417 108.086 68.2644 108.057 69.0376 108.158C69.7947 108.459 69.7947 108.459 70.356 109.185C70.6924 110.014 70.6924 110.014 70.6439 110.614C70.2419 111.513 69.6848 111.778 68.8463 112.283C68.6909 112.378 68.5355 112.473 68.3753 112.57C67.8784 112.871 67.3784 113.166 66.8774 113.46C66.5615 113.648 66.2456 113.836 65.9297 114.023C64.9364 114.61 63.9374 115.187 62.9378 115.762C62.5713 115.974 62.2049 116.186 61.8385 116.398C61.0779 116.837 60.317 117.276 59.5559 117.715C58.5853 118.274 57.6156 118.834 56.6461 119.395C55.8925 119.831 55.1385 120.266 54.3843 120.701C54.0266 120.907 53.669 121.114 53.3115 121.321C51.5598 122.334 49.8155 123.323 47.9739 124.167C47.0423 124.674 46.1679 125.233 45.2937 125.831C44.4518 126.403 43.6249 126.82 42.6874 127.219C42.4507 127.394 42.2141 127.569 41.9702 127.75C41.7747 127.893 41.5792 128.035 41.3778 128.183C41.216 128.139 41.0541 128.096 40.8873 128.051C41.6032 129.366 42.4453 130.544 43.3506 131.734C43.5043 131.937 43.6581 132.139 43.8166 132.347C45.3257 134.313 46.9228 136.194 48.557 138.056C49.1258 138.706 49.6909 139.358 50.2559 140.011C52.6278 142.742 55.0532 145.4 57.5982 147.971C58.0049 148.386 58.403 148.808 58.7982 149.234C59.0147 149.464 59.2312 149.694 59.4543 149.932C59.6327 150.125 59.811 150.318 59.9947 150.517C60.6859 151.052 60.9341 151.077 61.8113 151.007C62.6049 150.664 63.3339 150.221 64.0745 149.778C64.4123 149.58 64.4123 149.58 64.757 149.379C65.2455 149.093 65.7332 148.806 66.2202 148.517C66.9909 148.061 67.7638 147.608 68.5374 147.157C70.4584 146.035 72.3757 144.907 74.2923 143.778C75.9118 142.824 77.5331 141.873 79.157 140.926C79.9189 140.48 80.678 140.03 81.4371 139.58C81.9043 139.307 82.3716 139.034 82.8391 138.762C83.1549 138.572 83.1549 138.572 83.4771 138.378C84.3775 137.859 84.9593 137.55 86.0105 137.496C86.6713 137.69 86.6713 137.69 87.2409 138.385C87.569 139.245 87.569 139.245 87.5681 139.984C86.6766 141.644 84.4045 142.553 82.7996 143.47C82.4997 143.643 82.4997 143.643 82.1938 143.819C81.7646 144.066 81.3352 144.313 80.9057 144.559C80.2262 144.949 79.5474 145.339 78.8687 145.73C77.4308 146.558 75.9923 147.384 74.5536 148.211C72.8794 149.173 71.2055 150.135 69.5324 151.098C68.8628 151.483 68.1927 151.868 67.5225 152.252C67.1148 152.487 66.7071 152.721 66.2994 152.956C66.1124 153.063 65.9253 153.17 65.7326 153.28C64.8104 153.794 64.8104 153.794 64.0315 154.493C64.229 154.619 64.4266 154.746 64.6301 154.876C65.3008 155.33 65.9028 155.804 66.5151 156.333C71.6074 160.682 76.9259 164.52 82.8409 167.682C83.0301 167.783 83.2192 167.884 83.414 167.988C88.9371 170.874 95.1992 172.295 101.27 170.517C104.681 169.339 107.291 166.266 108.893 163.121C110.537 159.393 111.197 155.203 111.45 151.164C111.464 150.967 111.477 150.769 111.491 150.565C111.769 146.023 111.367 141.291 110.65 136.803C110.623 136.632 110.596 136.461 110.568 136.284C110.491 135.81 110.41 135.337 110.328 134.864C110.257 133.974 110.344 133.385 110.655 132.551C111.227 131.948 111.227 131.948 111.964 131.587C112.853 131.645 112.853 131.645 113.681 132.047C114.753 133.741 114.825 135.699 115.038 137.652C115.059 137.832 115.079 138.013 115.1 138.199C115.446 141.26 115.685 144.31 115.686 147.394C115.69 148.064 115.715 148.731 115.743 149.4C115.806 153.011 114.923 156.384 114.018 159.853C113.956 160.098 113.894 160.342 113.83 160.594C112.478 165.854 110.129 170.227 105.36 173.161C100.438 176.038 95.0819 176.031 89.7177 174.634C86.6228 173.805 83.6384 172.867 80.8085 171.343C80.5902 171.227 80.3719 171.11 80.147 170.99C74.767 168.082 69.7952 164.558 65.1325 160.608C64.5976 160.156 64.0582 159.71 63.5182 159.264C60.837 157.034 58.3339 154.653 55.8752 152.181C55.3954 151.699 54.9132 151.219 54.43 150.741C50.4351 146.76 46.6727 142.557 43.1814 138.129C42.9083 137.785 42.6793 137.503 42.362 137.098C36.7604 129.956 29.5817 120.945 28.2068 115.536C27.9064 114.354 27.4968 113.476 28.214 112.564Z" fill="#020100"/>
</g>
<g clip-path="url(#clip2_757_5000)">
<path d="M143.59 33.0601C143.998 33.2194 144.404 33.3843 144.807 33.5555C145.076 33.6567 145.076 33.6567 145.351 33.76C148.563 35.0914 150.91 38.3078 152.335 41.3783C152.809 42.5237 153.222 43.6894 153.62 44.863C153.749 44.6632 153.877 44.4634 154.009 44.2576C156.88 39.9731 160.318 37.1674 165.443 36.1204C168.841 35.5582 172.395 36.8789 175.137 38.8347C178.28 41.4619 179.712 44.5392 180.262 48.5447C180.47 52.1725 179.196 55.5218 177.565 58.6874C177.997 58.6103 177.997 58.6103 178.438 58.5315C182.795 57.7874 187.176 57.6309 191.076 60.0615C193.969 62.1289 195.468 64.5119 196.393 67.8864C196.489 68.2137 196.489 68.2137 196.587 68.5476C197.449 71.6927 197.05 74.8838 195.489 77.756C192.729 82.1864 188.281 84.3646 183.378 85.5899C180.832 86.1781 178.227 86.4835 175.636 86.8049C175.69 86.9879 175.743 87.1709 175.799 87.3594C176.265 89.008 176.584 90.5791 176.694 92.2879C176.71 92.5178 176.725 92.7477 176.741 92.9846C177.178 100.783 175.34 108.209 172.235 115.317C172.162 115.487 172.088 115.657 172.012 115.832C170.139 120.078 167.825 124.318 165.018 128.018C164.53 128.668 164.079 129.333 163.628 130.009C160.065 135.342 155.835 140.279 151.548 145.043C151.332 145.284 151.332 145.284 151.11 145.53C148.926 147.948 146.667 150.278 144.335 152.555C143.702 153.174 143.079 153.799 142.469 154.441C141.18 155.789 140.133 156.872 138.266 157.277C137.543 157.093 137.543 157.093 137.088 156.804C136.912 156.965 136.912 156.965 136.733 157.129C136.58 157.267 136.427 157.406 136.269 157.549C136.117 157.687 135.965 157.826 135.808 157.968C135.389 158.311 135.389 158.311 134.898 158.442C134.998 158.692 135.097 158.942 135.2 159.199C135.358 160.159 135.358 160.159 134.986 160.882C133.967 162.219 132.527 163.151 131.183 164.136C131.037 164.244 130.891 164.352 130.74 164.463C128.262 166.294 125.74 168.026 123.07 169.568C122.492 169.907 121.927 170.262 121.361 170.621C118.265 172.48 114.903 173.402 111.446 174.353C111.203 174.422 110.96 174.49 110.71 174.561C105.479 176.02 100.518 176.173 95.592 173.51C90.6398 170.685 87.9676 166.043 86.4955 160.699C85.6653 157.605 84.986 154.551 84.8907 151.338C84.8824 151.091 84.8741 150.844 84.8655 150.589C84.694 144.476 85.2603 138.408 86.3499 132.395C86.4738 131.705 86.5905 131.015 86.7066 130.325C87.2973 126.888 88.1075 123.529 89.0189 120.164C89.1966 119.508 89.3708 118.85 89.5437 118.192C90.9937 112.742 92.7523 107.383 94.8414 102.145C95.0024 101.737 95.1634 101.328 95.3244 100.92C102.296 83.3145 102.296 83.3145 108.026 76.7945C108.976 76.4516 109.638 76.3379 110.61 76.6279C111.15 76.1068 111.626 75.5961 111.999 74.9416C111.809 74.0722 111.809 74.0722 111.539 73.2248C114.126 67.7969 121.874 63.4531 127.291 61.3809C127.807 61.2309 128.325 61.0883 128.845 60.9532C129.237 60.8506 129.237 60.8506 129.637 60.746C129.834 60.6953 130.031 60.6445 130.234 60.5923C130.136 60.3612 130.136 60.3612 130.037 60.1254C127.423 53.9019 124.823 47.344 127.344 40.6232C129.954 34.5296 137.162 31.0414 143.59 33.0601Z" fill="#FEA83E"/>
<path d="M155.032 66.7218C155.427 66.9133 155.821 67.1063 156.215 67.2995C156.004 67.486 156.004 67.486 155.79 67.6762C155.019 67.6135 154.259 67.5308 153.492 67.4377C147.343 66.8137 140.849 68.221 135.464 71.2824C135.805 71.5816 135.805 71.5816 136.152 71.8868C136.467 72.5089 136.467 72.5089 136.546 73.3583C136.245 74.2231 135.819 74.9929 135.355 75.7803C135.259 75.9468 135.162 76.1132 135.063 76.2847C134.655 76.9283 134.297 77.3546 133.625 77.7226C132.651 77.7331 132.18 77.4411 131.431 76.8318C131.141 75.9465 131.07 75.3853 131.448 74.519C131.709 74.0614 132 73.6208 132.294 73.1835C130.69 74.1147 129.258 75.1504 127.855 76.3607C127.564 76.611 127.564 76.611 127.266 76.8664C121.524 81.8787 116.968 88.3828 113.538 95.1647C113.247 95.7378 112.935 96.3004 112.614 96.8571C109.74 95.1982 106.867 93.5393 103.906 91.8301C104.71 87.902 107.83 83.5316 110.245 80.3709C110.653 79.7831 110.924 79.2719 111.136 78.5898C111.03 77.9499 111.03 77.9499 110.807 77.3635C110.742 77.1207 110.677 76.8779 110.61 76.6277C110.895 76.187 110.895 76.187 111.292 75.7386C111.423 75.5887 111.553 75.4389 111.688 75.2845C111.79 75.1713 111.893 75.0581 111.998 74.9414C112.213 75.014 112.213 75.014 112.432 75.0881C113.386 75.2019 114.196 75.0062 115.073 74.6434C115.635 74.1676 116.099 73.7246 116.588 73.1859C127.021 62.4367 141.763 60.358 155.032 66.7218Z" fill="#FD9B1F"/>
<path d="M101.931 95.2507C102.422 95.1192 102.422 95.1192 103.152 95.515C103.424 95.6806 103.696 95.8463 103.977 96.0169C104.211 96.1438 104.446 96.2707 104.688 96.4015C105.221 96.7351 105.221 96.7351 105.352 97.2256C105.592 97.263 105.592 97.263 105.836 97.3012C106.515 97.4655 107.012 97.7142 107.614 98.0652C107.805 98.1741 107.995 98.283 108.191 98.3952C108.641 98.71 108.641 98.71 108.773 99.2005C108.929 99.2182 109.086 99.2359 109.247 99.2541C110.046 99.472 110.553 99.8789 111.195 100.392C111.122 100.535 111.049 100.678 110.974 100.825C110.198 102.371 109.518 103.939 108.88 105.546C108.727 105.928 108.727 105.928 108.572 106.317C106.054 112.681 103.993 119.131 102.136 125.716C101.79 126.94 101.44 128.163 101.089 129.386C99.3634 128.588 97.6934 127.704 96.0369 126.771C95.7368 126.604 95.4355 126.438 95.133 126.275C94.6913 126.036 94.2538 125.79 93.8165 125.543C93.5571 125.4 93.2978 125.256 93.0305 125.108C92.4477 124.604 92.4477 124.604 92.2662 123.87C92.2994 123.048 92.4206 122.365 92.6409 121.573C92.7217 121.281 92.8026 120.989 92.8858 120.688C93.0228 120.214 93.0228 120.214 93.1625 119.73C93.2092 119.566 93.256 119.402 93.3041 119.232C95.4309 111.774 97.9879 104.376 101.094 97.2679C101.314 96.7621 101.524 96.2517 101.714 95.7341C101.822 95.4948 101.822 95.4948 101.931 95.2507Z" fill="#FC9A1F"/>
<path d="M143.59 33.0601C143.998 33.2194 144.404 33.3843 144.807 33.5555C145.076 33.6567 145.076 33.6567 145.351 33.76C148.563 35.0914 150.909 38.3077 152.335 41.3783C152.809 42.5237 153.222 43.6894 153.62 44.863C153.748 44.6632 153.877 44.4634 154.009 44.2576C156.88 39.9731 160.318 37.1674 165.443 36.1204C168.841 35.5582 172.395 36.8789 175.137 38.8347C178.28 41.4619 179.712 44.5392 180.262 48.5447C180.47 52.1724 179.196 55.5218 177.565 58.6874C177.997 58.6103 177.997 58.6103 178.438 58.5315C182.795 57.7874 187.176 57.6309 191.076 60.0615C193.969 62.1289 195.468 64.5119 196.393 67.8864C196.489 68.2137 196.489 68.2137 196.586 68.5476C197.449 71.6927 197.05 74.8838 195.489 77.756C192.728 82.1864 188.281 84.3646 183.378 85.5899C180.832 86.1781 178.226 86.4835 175.636 86.8049C175.69 86.9879 175.743 87.1709 175.799 87.3594C176.265 89.008 176.584 90.5791 176.694 92.2879C176.71 92.5178 176.725 92.7477 176.741 92.9846C177.177 100.783 175.34 108.209 172.235 115.317C172.161 115.487 172.088 115.656 172.012 115.832C170.139 120.078 167.825 124.318 165.018 128.018C164.53 128.668 164.078 129.333 163.628 130.009C160.065 135.342 155.835 140.279 151.548 145.043C151.332 145.284 151.332 145.284 151.11 145.53C148.925 147.948 146.667 150.278 144.335 152.555C143.702 153.174 143.079 153.799 142.469 154.441C141.175 155.794 140.129 156.842 138.266 157.277C137.399 156.983 137.399 156.983 137.106 156.53C136.995 156.254 136.995 156.254 136.881 155.972C136.803 155.79 136.725 155.609 136.644 155.421C136.562 154.842 136.562 154.842 136.777 154.268C137.505 153.298 138.377 152.52 139.269 151.701C141.244 149.857 143.137 147.947 145.001 145.992C145.127 145.861 145.253 145.729 145.383 145.593C146.783 144.16 146.783 144.16 148.072 142.63C148.421 142.201 148.421 142.201 148.912 142.07C147.341 140.988 145.734 140 144.08 139.052C143.831 138.909 143.583 138.766 143.327 138.619C142.792 138.311 142.256 138.003 141.721 137.695C140.874 137.209 140.028 136.722 139.182 136.235C137.39 135.202 135.596 134.17 133.803 133.139C131.717 131.94 129.633 130.741 127.548 129.54C126.713 129.059 125.878 128.579 125.042 128.1C124.534 127.807 124.026 127.514 123.517 127.221C123.284 127.087 123.05 126.954 122.81 126.816C122.598 126.694 122.386 126.571 122.168 126.445C121.983 126.339 121.798 126.233 121.608 126.123C120.972 125.72 120.803 125.448 120.527 124.736C120.398 123.949 120.398 123.949 120.641 123.26C121.117 122.705 121.117 122.705 121.746 122.356C123.782 122.247 125.958 124.025 127.668 125.03C127.922 125.178 128.176 125.326 128.437 125.478C128.984 125.797 129.53 126.117 130.076 126.436C131.087 127.028 132.1 127.617 133.113 128.206C133.26 128.292 133.408 128.378 133.56 128.467C133.709 128.553 133.857 128.64 134.01 128.729C136.02 129.898 138.029 131.069 140.035 132.244C141.539 133.124 143.045 134.001 144.552 134.875C145.126 135.208 145.699 135.544 146.271 135.88C147.068 136.349 147.868 136.813 148.668 137.275C148.905 137.416 149.143 137.557 149.387 137.703C149.605 137.827 149.822 137.952 150.046 138.08C150.329 138.245 150.329 138.245 150.618 138.414C151.129 138.642 151.129 138.642 151.619 138.403C152.302 137.879 152.812 137.213 153.345 136.544C153.529 136.318 153.529 136.318 153.716 136.087C154.087 135.627 154.455 135.165 154.823 134.703C155.125 134.325 155.125 134.325 155.432 133.941C160.418 127.645 165.506 120.883 168.569 113.408C168.647 113.221 168.724 113.035 168.804 112.843C172.747 103.272 174.137 92.658 170.242 82.8327C168.094 77.8023 164.562 73.4017 160.144 70.1899C159.997 70.0837 159.851 69.9775 159.701 69.8681C152.911 64.9743 145.127 62.4427 136.747 63.3159C136.507 63.3311 136.266 63.3463 136.019 63.362C132.785 63.773 129.409 64.8519 126.512 66.3212C126.352 66.4022 126.192 66.4832 126.028 66.5667C122.395 68.4419 119.02 70.8393 116.218 73.8274C115.239 74.8593 114.612 75.317 113.177 75.4145C112.457 75.1802 112.457 75.1802 111.933 74.6963C111.602 74.0128 111.602 74.0128 111.538 73.2248C114.233 67.7907 121.807 63.4789 127.291 61.3809C127.807 61.2308 128.325 61.0883 128.845 60.9532C129.237 60.8506 129.237 60.8506 129.637 60.746C129.834 60.6953 130.031 60.6445 130.234 60.5923C130.136 60.3612 130.136 60.3612 130.037 60.1254C127.423 53.9019 124.823 47.344 127.344 40.6232C129.953 34.5296 137.162 31.0414 143.59 33.0601Z" fill="#010100"/>
<path d="M169.496 40.3462C171.948 41.2707 174.361 42.8841 175.553 45.2947C176.804 48.4985 176.304 51.799 174.976 54.9124C173.555 57.7907 171.742 60.377 169.752 62.8838C169.627 63.0424 169.502 63.201 169.374 63.3643C168.525 64.4411 167.665 65.5072 166.796 66.5674C166.611 66.7956 166.425 67.0238 166.235 67.2589C166.076 67.448 165.918 67.6372 165.755 67.8321C165.622 67.9909 165.49 68.1497 165.354 68.3133C164.983 68.6304 164.983 68.6304 164.181 68.5822C163.649 68.1868 163.649 68.1868 163.026 67.6432C159.615 64.812 155.638 62.6066 151.432 61.2212C151.506 59.9072 151.946 58.7778 152.405 57.5594C152.487 57.3407 152.569 57.122 152.653 56.8967C153.933 53.5119 155.377 50.2616 157.106 47.0832C157.273 46.7667 157.273 46.7667 157.442 46.4438C159.869 41.978 164.356 38.9647 169.496 40.3462Z" fill="#8CD26F"/>
<path d="M143.351 37.1329C145.927 38.3344 147.928 40.8776 149.039 43.4618C149.487 44.878 149.837 46.3242 150.198 47.7645C150.33 48.2781 150.477 48.788 150.626 49.297C151.119 51.1994 150.844 52.2605 149.936 53.9853C149.264 55.2706 148.85 56.658 148.401 58.033C147.902 59.5108 147.902 59.5108 147.161 59.9995C146.529 59.944 146.529 59.944 145.776 59.7957C141.798 59.0691 138.202 59.167 134.224 59.786C132.894 57.0678 131.889 54.3297 131.092 51.4085C131.009 51.1124 130.926 50.8162 130.841 50.511C130 47.3112 129.885 43.9868 131.471 40.9896C133.985 36.952 138.956 35.5172 143.351 37.1329Z" fill="#6CC646"/>
<path d="M176.777 63.0631C181.046 61.8043 185.007 61.3358 189.101 63.4821C191.594 65.4044 192.622 67.7576 193.166 70.8045C193.339 73.2738 192.476 75.4647 190.9 77.3601C188.567 79.7008 186.072 80.6423 182.918 81.4857C182.6 81.5708 182.282 81.656 181.955 81.7437C176.793 83.0938 176.793 83.0938 174.339 82.9465C174.298 82.8067 174.257 82.667 174.214 82.523C172.989 78.7977 170.671 75.1022 168.004 72.2308C167.685 71.849 167.685 71.849 167.488 71.1133C167.848 70.6482 167.848 70.6482 168.399 70.0971C169.152 69.3184 169.836 68.5454 170.475 67.67C172.351 65.0999 173.713 63.9988 176.777 63.0631Z" fill="#6CC646"/>
<path d="M91.0946 128.384C92.193 128.517 93.0669 129.034 94.0134 129.57C94.1842 129.666 94.355 129.762 94.5309 129.862C94.8904 130.065 95.2494 130.27 95.6079 130.475C96.1578 130.789 96.7111 131.095 97.2648 131.402C97.614 131.601 97.963 131.8 98.3117 132C98.4778 132.091 98.6439 132.181 98.8151 132.275C99.9369 132.932 99.9369 132.932 100.145 133.718C100.056 134.467 99.941 135.195 99.7879 135.934C99.7274 136.235 99.6668 136.537 99.6044 136.847C99.5064 137.329 99.5064 137.329 99.4063 137.821C97.8287 145.826 96.4313 155.269 98.5719 163.287C98.6164 163.454 98.661 163.621 98.7069 163.793C98.8008 164.144 98.8952 164.495 98.9903 164.846C99.1341 165.377 99.2752 165.909 99.4161 166.441C99.8525 168.073 100.295 169.666 100.992 171.207C97.2722 170.382 94.5579 168.278 92.5124 165.068C89.9638 161.049 89.0086 156.035 88.8323 151.333C88.8211 151.047 88.8211 151.047 88.8097 150.754C88.5606 143.182 89.6824 135.798 91.0946 128.384Z" fill="#FD9A1F"/>
<path d="M143.734 79.5811C145.55 80.0945 147.196 81.1023 148.814 82.0478C149.047 82.1804 149.279 82.3131 149.519 82.4498C149.743 82.58 149.968 82.7101 150.199 82.8441C150.4 82.9606 150.601 83.0771 150.808 83.1971C151.831 83.8844 152.368 84.3545 152.715 85.5565C152.829 86.8264 152.313 87.6666 151.652 88.7133C151.55 88.8875 151.448 89.0617 151.343 89.2412C150.309 90.9526 149.307 91.8696 147.333 92.4006C145.475 92.85 144.293 92.9178 142.608 92.0176C140.554 90.7434 139.866 89.2362 139.297 86.9195C138.914 84.488 140.577 82.3298 141.837 80.3521C142.469 79.7918 142.889 79.694 143.734 79.5811Z" fill="#030201"/>
<path d="M156.435 93.8721C157.724 93.8032 158.599 94.3966 159.699 95.0182C159.997 95.1605 160.296 95.3028 160.603 95.4495C161.254 95.9159 161.254 95.9159 161.604 96.6105C161.664 97.6756 161.432 98.1279 160.75 98.9422C159.696 99.2037 159.134 99.2275 158.127 98.8002C157.862 98.6349 157.598 98.4696 157.325 98.2993C157.057 98.1356 156.789 97.972 156.513 97.8034C155.761 97.2963 155.543 97.0946 155.216 96.2522C155.087 95.4653 155.087 95.4653 155.33 94.776C155.805 94.2214 155.805 94.2214 156.435 93.8721Z" fill="#F4F2EF"/>
<path d="M128.443 77.6983C129.732 77.6531 130.611 78.2381 131.712 78.8597C132.01 79.002 132.308 79.1444 132.616 79.291C133.266 79.7574 133.266 79.7574 133.617 80.4521C133.677 81.5171 133.445 81.9695 132.763 82.7838C131.354 83.1246 130.594 82.9462 129.358 82.2174C129.094 82.068 128.83 81.9186 128.557 81.7647C127.737 81.0933 127.472 80.5594 127.166 79.5521C127.39 78.5809 127.579 78.2025 128.443 77.6983Z" fill="#F4F2F0"/>
<path d="M134.908 71.1687C135.776 71.4624 136.058 71.7172 136.501 72.5162C136.57 73.8062 135.998 74.6895 135.355 75.7805C135.259 75.9469 135.162 76.1133 135.063 76.2848C134.655 76.9284 134.297 77.3547 133.625 77.7227C132.651 77.7332 132.18 77.4412 131.431 76.8319C131.119 75.5993 131.19 74.8162 131.816 73.6993C131.904 73.5531 131.992 73.407 132.083 73.2564C132.164 73.1052 132.245 72.9539 132.328 72.7981C132.997 71.6512 133.612 71.3451 134.908 71.1687Z" fill="#060401"/>
<path d="M162.895 87.3272C163.764 87.6209 164.045 87.8757 164.489 88.6746C164.558 89.9647 163.986 90.8479 163.343 91.9389C163.246 92.1053 163.15 92.2718 163.051 92.4433C162.642 93.0869 162.284 93.5132 161.612 93.8812C160.638 93.8917 160.168 93.5996 159.419 92.9904C159.107 91.7578 159.178 90.9747 159.803 89.8577C159.891 89.7116 159.98 89.5654 160.07 89.4149C160.151 89.2636 160.232 89.1124 160.315 88.9565C160.985 87.8097 161.599 87.5036 162.895 87.3272Z" fill="#050301"/>
<path d="M143.936 84.2586C144.997 84.3912 145.761 84.856 146.672 85.3981C146.951 85.5627 147.23 85.7273 147.517 85.8969C147.728 86.0238 147.94 86.1508 148.158 86.2816C147.988 87.205 147.853 87.7395 147.146 88.3927C145.991 88.8649 145.512 89.024 144.321 88.6404C143.514 87.9174 143.279 87.419 143.055 86.3766C143.028 85.4884 143.413 84.947 143.936 84.2586Z" fill="#444444"/>
<path d="M109.498 76.4001C110.192 76.4996 110.354 76.7129 111.053 77.2978C111.337 78.3879 111.347 78.914 110.856 79.9382C110.663 80.2269 110.466 80.5124 110.265 80.7947C110.11 81.0247 110.11 81.0247 109.952 81.2593C109.655 81.6984 109.352 82.1331 109.047 82.5667C108.011 84.0617 107.069 85.5959 106.157 87.1691C106.041 87.3677 105.926 87.5664 105.806 87.771C105.148 88.9162 104.555 90.0656 104.02 91.2738C104.585 91.9795 105.154 92.3941 105.936 92.843C106.294 93.05 106.294 93.05 106.659 93.2612C107.051 93.4848 107.051 93.4848 107.451 93.7129C107.726 93.8717 108.002 94.0305 108.286 94.1941C108.884 94.5388 109.483 94.8829 110.082 95.226C111.03 95.7683 111.976 96.3128 112.922 96.8576C114.417 97.7187 115.913 98.5783 117.41 99.4373C120.092 100.977 122.774 102.518 125.454 104.061C126.395 104.602 127.336 105.143 128.278 105.683C129 106.097 129.722 106.512 130.443 106.927C130.705 107.077 130.967 107.227 131.238 107.381C131.475 107.518 131.713 107.655 131.957 107.796C132.268 107.974 132.268 107.974 132.586 108.156C133.239 108.567 133.426 108.832 133.725 109.551C133.843 110.358 133.843 110.358 133.495 111.207C132.945 111.913 132.945 111.913 132.401 112.171C131.422 112.272 130.913 111.922 130.057 111.448C129.897 111.361 129.738 111.274 129.573 111.184C129.064 110.904 128.558 110.619 128.053 110.332C127.732 110.152 127.412 109.973 127.091 109.793C126.087 109.226 125.088 108.649 124.09 108.071C123.723 107.86 123.356 107.648 122.99 107.437C122.229 106.998 121.468 106.558 120.708 106.118C119.738 105.557 118.768 104.998 117.798 104.439C117.043 104.004 116.289 103.569 115.536 103.133C115.178 102.926 114.82 102.72 114.463 102.514C112.709 101.503 110.98 100.487 109.329 99.3144C108.425 98.7608 107.503 98.2833 106.548 97.8253C105.631 97.3822 104.857 96.8743 104.043 96.2623C103.772 96.1448 103.502 96.0274 103.224 95.9065C103.003 95.8086 102.781 95.7107 102.553 95.6098C102.51 95.4479 102.467 95.2861 102.422 95.1193C101.642 96.3965 101.042 97.7148 100.464 99.094C100.366 99.3284 100.267 99.5627 100.166 99.8042C99.218 102.094 98.3877 104.418 97.592 106.764C97.3139 107.581 97.0314 108.397 96.7485 109.213C95.5694 112.632 94.4803 116.062 93.5267 119.551C93.3703 120.111 93.204 120.667 93.0324 121.222C92.9413 121.525 92.8503 121.827 92.7565 122.139C92.6783 122.39 92.6002 122.641 92.5198 122.9C92.4015 123.766 92.5043 123.993 93.0039 124.718C93.6973 125.234 94.4452 125.644 95.1998 126.063C95.5396 126.257 95.5396 126.257 95.8863 126.455C96.3782 126.735 96.8709 127.014 97.3643 127.291C98.1449 127.73 98.9232 128.174 99.7009 128.618C101.633 129.721 103.568 130.817 105.505 131.912C107.141 132.838 108.775 133.766 110.407 134.699C111.174 135.136 111.943 135.568 112.713 136.001C113.183 136.269 113.653 136.537 114.122 136.806C114.445 136.984 114.445 136.984 114.773 137.167C115.673 137.687 116.231 138.036 116.804 138.92C116.966 139.589 116.966 139.589 116.649 140.43C116.068 141.144 116.068 141.144 115.428 141.513C113.545 141.57 111.622 140.057 110.025 139.126C109.725 138.953 109.725 138.953 109.42 138.776C108.991 138.528 108.563 138.279 108.135 138.03C107.458 137.637 106.78 137.244 106.102 136.852C104.666 136.02 103.231 135.188 101.796 134.355C100.126 133.386 98.4561 132.417 96.7851 131.45C96.1167 131.063 95.4488 130.675 94.781 130.287C94.3739 130.051 93.9668 129.815 93.5596 129.579C93.3735 129.471 93.1874 129.362 92.9957 129.25C92.0895 128.709 92.0895 128.709 91.0946 128.384C91.084 128.618 91.0734 128.852 91.0625 129.093C91.0045 129.901 90.8947 130.66 90.7428 131.455C89.523 138.039 88.8587 144.564 89.0776 151.268C89.0845 151.482 89.0915 151.696 89.0987 151.917C89.3614 158.143 91.2618 164.277 95.8369 168.645C98.5622 171.01 102.529 171.734 106.053 171.549C110.104 171.108 114.063 169.585 117.687 167.785C117.865 167.698 118.043 167.611 118.226 167.521C122.299 165.491 126.196 162.776 129.724 159.911C129.859 159.802 129.993 159.693 130.132 159.581C130.504 159.277 130.873 158.971 131.242 158.664C131.978 158.156 132.531 157.938 133.409 157.789C134.217 157.984 134.217 157.984 134.898 158.442C135.293 159.24 135.293 159.24 135.358 160.159C134.427 161.934 132.768 162.975 131.183 164.136C131.037 164.244 130.891 164.352 130.74 164.463C128.262 166.294 125.74 168.026 123.07 169.568C122.492 169.907 121.927 170.262 121.361 170.62C118.265 172.48 114.903 173.402 111.446 174.353C111.203 174.422 110.96 174.49 110.71 174.561C105.479 176.02 100.518 176.173 95.5919 173.51C90.6398 170.685 87.9675 166.043 86.4955 160.699C85.6653 157.605 84.9859 154.551 84.8907 151.338C84.8823 151.091 84.874 150.843 84.8655 150.589C84.694 144.475 85.2603 138.408 86.3499 132.394C86.4737 131.705 86.5904 131.015 86.7065 130.324C87.2972 126.887 88.1075 123.529 89.0189 120.164C89.1965 119.507 89.3708 118.85 89.5437 118.192C90.9937 112.742 92.7522 107.382 94.8414 102.145C95.0024 101.737 95.1326 101.397 95.3243 100.92C98.7088 92.4977 102.924 81.775 106.92 77.8801C107.793 77.029 108.349 76.2354 109.498 76.4001Z" fill="#020100"/>
</g>
<g clip-path="url(#clip3_757_5000)">
<path d="M72.6915 39.0602C73.1244 38.9942 73.5584 38.934 73.9931 38.8807C74.2767 38.8338 74.2767 38.8338 74.5661 38.786C78.0137 38.3329 81.654 39.9451 84.4239 41.8915C85.4067 42.6467 86.3475 43.4496 87.279 44.2668C87.2903 44.0296 87.3017 43.7924 87.3134 43.548C87.6569 38.4023 89.2321 34.2532 93.147 30.7839C95.8082 28.5983 99.5466 27.9649 102.899 28.2879C106.935 28.9913 109.713 30.9404 112.193 34.1341C114.186 37.1721 114.758 40.7097 114.928 44.2668C115.264 43.9839 115.264 43.9839 115.606 43.6953C119.008 40.8722 122.724 38.546 127.316 38.7011C130.855 39.0449 133.345 40.3592 135.833 42.8193C136.08 43.0549 136.08 43.0549 136.331 43.2952C138.651 45.5878 139.9 48.5509 139.985 51.8187C139.81 57.0357 137.047 61.1459 133.413 64.6585C131.503 66.4409 129.399 68.0081 127.316 69.5818C127.454 69.7134 127.592 69.845 127.735 69.9805C128.963 71.1752 130.025 72.3761 130.974 73.801C131.103 73.9924 131.231 74.1838 131.363 74.381C135.64 80.9165 137.762 88.2665 138.627 95.974C138.648 96.158 138.669 96.3421 138.691 96.5317C139.192 101.145 139.309 105.975 138.727 110.582C138.63 111.389 138.571 112.191 138.519 113.001C138.1 119.402 136.905 125.792 135.575 132.061C135.508 132.378 135.508 132.378 135.439 132.702C134.756 135.888 133.964 139.035 133.084 142.173C132.845 143.026 132.618 143.879 132.411 144.74C131.969 146.551 131.603 148.013 130.189 149.297C129.471 149.499 129.471 149.499 128.932 149.477C128.86 149.704 128.86 149.704 128.788 149.935C128.724 150.132 128.661 150.329 128.595 150.531C128.533 150.727 128.47 150.923 128.406 151.125C128.214 151.631 128.214 151.631 127.855 151.99C128.066 152.157 128.277 152.323 128.494 152.495C129.112 153.247 129.112 153.247 129.151 154.059C128.936 155.727 128.156 157.254 127.484 158.779C127.412 158.946 127.339 159.112 127.265 159.284C126.034 162.108 124.715 164.869 123.174 167.54C122.843 168.122 122.531 168.712 122.22 169.306C120.47 172.464 118.019 174.944 115.5 177.496C115.324 177.677 115.148 177.857 114.967 178.043C111.166 181.923 106.946 184.536 101.349 184.692C95.6474 184.722 91.0123 182.038 87.0654 178.146C84.7992 175.881 82.684 173.576 80.9951 170.842C80.8643 170.632 80.7335 170.422 80.5987 170.205C77.3936 164.997 74.85 159.459 72.7871 153.707C72.5497 153.048 72.3057 152.392 72.061 151.736C70.854 148.464 69.8767 145.15 68.9833 141.78C68.8089 141.123 68.6311 140.466 68.452 139.81C66.9826 134.365 65.8257 128.844 65.0162 123.264C64.9515 122.83 64.8867 122.396 64.8219 121.962C62.0571 103.229 62.0571 103.229 63.7594 94.7173C64.4099 93.9457 64.9268 93.5159 65.9139 93.2809C66.1211 92.5597 66.2777 91.8795 66.2729 91.1265C65.6745 90.4682 65.6745 90.4682 65.0162 89.8697C64.5433 83.8751 69.0813 76.2393 72.7363 71.7363C73.1081 71.3484 73.4855 70.9659 73.8683 70.5889C74.1564 70.3042 74.1564 70.3042 74.4503 70.0137C74.5957 69.8712 74.741 69.7286 74.8908 69.5818C74.6906 69.4305 74.6906 69.4305 74.4863 69.2762C69.1113 65.1932 63.5807 60.8139 62.403 53.7333C61.6165 47.1512 66.1149 40.5261 72.6915 39.0602Z" fill="#FEA83E"/>
<path d="M99.4317 62.4909C99.8692 62.4595 100.307 62.4296 100.744 62.4001C100.656 62.6667 100.656 62.6667 100.565 62.9387C99.8658 63.2698 99.1663 63.5782 98.4553 63.8813C92.8183 66.4153 87.8978 70.8811 84.7654 76.2246C85.2098 76.3135 85.2098 76.3135 85.6631 76.4041C86.2466 76.7857 86.2466 76.7857 86.7404 77.4814C86.9115 78.3811 86.9283 79.2604 86.9199 80.1744C86.9197 80.3668 86.9194 80.5591 86.9192 80.7572C86.8872 81.5189 86.7904 82.067 86.3925 82.7217C85.554 83.2179 85.0008 83.2001 84.0473 83.0471C83.3538 82.4253 83.0109 81.9751 82.9055 81.0357C82.903 80.5088 82.9342 79.982 82.97 79.4563C82.0471 81.0644 81.3246 82.6775 80.7146 84.4273C80.5875 84.7897 80.5875 84.7897 80.4579 85.1594C77.9907 92.3715 77.2977 100.282 77.7178 107.87C77.7522 108.512 77.7634 109.156 77.7634 109.798C74.4455 109.798 71.1277 109.798 67.7092 109.798C66.4413 105.995 66.9576 100.65 67.4687 96.7053C67.5282 95.9923 67.5076 95.4138 67.3502 94.7171C66.9387 94.2158 66.9387 94.2158 66.4525 93.8194C66.2747 93.6417 66.097 93.4639 65.9139 93.2808C65.9398 92.7569 65.9398 92.7569 66.0597 92.1699C66.0979 91.9748 66.1361 91.7797 66.1754 91.5787C66.2076 91.4294 66.2398 91.2801 66.2729 91.1263C66.4951 91.0819 66.4951 91.0819 66.7218 91.0365C67.6045 90.6582 68.2087 90.0835 68.7865 89.3309C69.0353 88.6379 69.2153 88.0225 69.37 87.3111C73.0302 72.7858 84.7578 63.6145 99.4317 62.4909Z" fill="#FD9B1F"/>
<path d="M67.7092 113.748C68.0683 113.389 68.0683 113.389 68.8987 113.367C69.2171 113.374 69.5356 113.382 69.8637 113.389C70.1303 113.382 70.3969 113.375 70.6716 113.367C71.3 113.389 71.3 113.389 71.6591 113.748C71.8854 113.661 71.8854 113.661 72.1163 113.572C72.7863 113.375 73.341 113.341 74.038 113.344C74.2574 113.344 74.4768 113.343 74.7028 113.342C75.2499 113.389 75.2499 113.389 75.6089 113.748C75.7533 113.685 75.8978 113.623 76.0466 113.558C76.8472 113.347 77.4898 113.446 78.302 113.569C78.3104 113.729 78.3188 113.89 78.3275 114.055C78.4288 115.782 78.6234 117.48 78.8743 119.191C78.9333 119.597 78.9333 119.597 78.9936 120.012C79.9947 126.782 81.4344 133.399 83.1189 140.029C83.4315 141.263 83.7396 142.497 84.0473 143.731C82.1539 143.904 80.2658 143.973 78.3648 143.994C78.0211 143.998 77.6774 144.006 77.3338 144.016C76.8319 144.03 76.3298 144.035 75.8277 144.04C75.5314 144.045 75.235 144.051 74.9297 144.056C74.1726 143.911 74.1726 143.911 73.6485 143.366C73.2664 142.638 73.0298 141.986 72.8247 141.19C72.7486 140.896 72.6724 140.603 72.594 140.3C72.4756 139.821 72.4756 139.821 72.3548 139.333C72.3132 139.167 72.2715 139.002 72.2286 138.831C70.3412 131.308 68.8565 123.623 67.9926 115.914C67.93 115.366 67.8566 114.819 67.7625 114.276C67.7361 114.015 67.7361 114.015 67.7092 113.748Z" fill="#FC9A1F"/>
<path d="M72.6914 39.0601C73.1244 38.994 73.5583 38.9338 73.993 38.8805C74.2766 38.8337 74.2766 38.8337 74.566 38.7858C78.0136 38.3328 81.6539 39.945 84.4238 41.8913C85.4066 42.6466 86.3474 43.4494 87.2789 44.2667C87.2902 44.0295 87.3016 43.7922 87.3133 43.5478C87.6568 38.4021 89.232 34.253 93.1469 30.7837C95.8081 28.5982 99.5465 27.9648 102.899 28.2877C106.935 28.9912 109.713 30.9402 112.193 34.134C114.186 37.1719 114.758 40.7095 114.928 44.2667C115.264 43.9838 115.264 43.9838 115.606 43.6951C119.007 40.8721 122.724 38.5459 127.316 38.701C130.855 39.0448 133.345 40.3591 135.833 42.8192C136.08 43.0547 136.08 43.0547 136.331 43.295C138.65 45.5876 139.9 48.5508 139.985 51.8185C139.81 57.0355 137.047 61.1457 133.413 64.6584C131.503 66.4407 129.399 68.008 127.316 69.5817C127.454 69.7132 127.592 69.8448 127.734 69.9804C128.962 71.175 130.025 72.3759 130.974 73.8008C131.102 73.9922 131.231 74.1836 131.363 74.3808C135.64 80.9164 137.762 88.2663 138.627 95.9739C138.648 96.1579 138.669 96.3419 138.691 96.5315C139.192 101.145 139.309 105.975 138.727 110.582C138.63 111.389 138.571 112.19 138.519 113.001C138.1 119.402 136.905 125.792 135.575 132.061C135.508 132.378 135.508 132.378 135.439 132.702C134.756 135.888 133.964 139.035 133.084 142.173C132.845 143.026 132.618 143.879 132.41 144.74C131.967 146.558 131.585 147.989 130.189 149.297C129.291 149.476 129.291 149.476 128.811 149.23C128.576 149.047 128.576 149.047 128.337 148.859C128.179 148.741 128.02 148.623 127.857 148.501C127.496 148.04 127.496 148.04 127.395 147.436C127.541 146.232 127.907 145.121 128.27 143.967C129.058 141.382 129.742 138.782 130.379 136.157C130.423 135.98 130.466 135.803 130.511 135.62C131.007 133.679 131.007 133.679 131.357 131.71C131.445 131.163 131.445 131.163 131.805 130.804C129.904 130.652 128.018 130.601 126.111 130.607C125.825 130.608 125.538 130.608 125.243 130.608C124.625 130.609 124.008 130.61 123.39 130.611C122.414 130.614 121.438 130.615 120.461 130.616C118.392 130.618 116.324 130.621 114.255 130.625C111.849 130.629 109.444 130.633 107.039 130.635C106.075 130.636 105.112 130.638 104.148 130.641C103.562 130.641 102.975 130.642 102.388 130.642C102.119 130.643 101.85 130.644 101.573 130.645C101.328 130.645 101.084 130.645 100.832 130.645C100.618 130.646 100.405 130.646 100.186 130.646C99.433 130.615 99.1513 130.464 98.5562 129.985C98.0512 129.368 98.0512 129.368 97.9166 128.65C98.0512 127.932 98.0512 127.932 98.4215 127.315C100.131 126.202 102.904 126.654 104.888 126.669C105.181 126.67 105.475 126.672 105.778 126.673C106.41 126.676 107.043 126.68 107.676 126.683C108.847 126.69 110.019 126.694 111.191 126.698C111.361 126.698 111.532 126.699 111.708 126.7C111.88 126.7 112.052 126.701 112.229 126.701C114.554 126.709 116.879 126.718 119.205 126.733C120.947 126.744 122.689 126.75 124.431 126.753C125.095 126.755 125.759 126.759 126.423 126.764C127.348 126.772 128.272 126.774 129.197 126.774C129.473 126.778 129.749 126.781 130.033 126.785C130.283 126.784 130.534 126.783 130.792 126.782C131.12 126.783 131.12 126.783 131.454 126.785C132.011 126.727 132.011 126.727 132.316 126.276C132.646 125.48 132.754 124.649 132.882 123.802C132.927 123.515 132.927 123.515 132.974 123.221C133.065 122.637 133.153 122.053 133.241 121.468C133.313 120.991 133.313 120.991 133.387 120.504C134.557 112.559 135.582 104.159 134.498 96.1534C134.472 95.9534 134.445 95.7534 134.419 95.5473C133.048 85.2866 128.944 75.4 120.659 68.8383C116.284 65.5559 111.024 63.511 105.592 62.9387C105.412 62.9198 105.233 62.9009 105.048 62.8814C96.7204 62.0382 88.7139 63.7375 81.8927 68.684C81.6923 68.8173 81.4919 68.9506 81.2854 69.0879C78.6906 71.0606 76.3056 73.6834 74.5316 76.4041C74.4337 76.5542 74.3358 76.7043 74.235 76.8589C72.0268 80.2991 70.3028 84.0628 69.3699 88.0517C69.0385 89.4346 68.7237 90.1448 67.5296 90.9468C66.789 91.1039 66.789 91.1039 66.0933 90.9468C65.4649 90.5204 65.4649 90.5204 65.0161 89.8695C64.6323 83.8164 69.0357 76.2953 72.7362 71.7361C73.108 71.3483 73.4854 70.9658 73.8682 70.5888C74.1563 70.304 74.1563 70.304 74.4502 70.0135C74.5956 69.871 74.7409 69.7285 74.8907 69.5817C74.6905 69.4304 74.6905 69.4304 74.4862 69.2761C69.1112 65.193 63.5806 60.8138 62.4029 53.7332C61.6164 47.151 66.1148 40.526 72.6914 39.0601Z" fill="#010100"/>
<path d="M98.7694 32.4172C101.355 31.992 104.252 32.1823 106.49 33.674C109.174 35.8234 110.392 38.9314 110.798 42.2919C111.007 45.4952 110.73 48.6412 110.26 51.8074C110.231 52.0071 110.202 52.2069 110.173 52.4127C109.976 53.7693 109.764 55.1228 109.542 56.4754C109.495 56.7656 109.449 57.0559 109.401 57.3549C109.359 57.5979 109.316 57.8409 109.272 58.0913C109.237 58.2949 109.202 58.4986 109.166 58.7084C109.003 59.1685 109.003 59.1685 108.285 59.5276C107.626 59.4511 107.626 59.4511 106.815 59.2919C102.445 58.5454 97.8985 58.6241 93.5627 59.5276C92.9701 58.3526 92.7862 57.1546 92.5753 55.8695C92.5368 55.6392 92.4983 55.4089 92.4587 55.1716C91.8743 51.6005 91.4995 48.0638 91.4083 44.4463C91.394 44.0891 91.394 44.0891 91.3795 43.7247C91.2484 38.6437 93.6274 33.7908 98.7694 32.4172Z" fill="#8CD26F"/>
<path d="M74.5204 42.7071C77.3521 42.4597 80.3566 43.6617 82.6109 45.3441C83.7071 46.3465 84.7331 47.424 85.7661 48.4907C86.1375 48.8694 86.5192 49.2378 86.903 49.6039C88.2808 51.0052 88.5735 52.0615 88.65 54.0089C88.7107 55.458 89.0453 56.8668 89.3439 58.2822C89.6505 59.8116 89.6505 59.8116 89.2538 60.6049C88.6787 60.8728 88.6787 60.8728 87.9522 61.1211C84.1434 62.4811 81.0787 64.3636 77.9429 66.8887C75.4322 65.1995 73.1928 63.3308 71.0418 61.1996C70.8219 60.9846 70.602 60.7695 70.3755 60.5479C68.0477 58.197 66.2857 55.3757 66.1606 51.987C66.3188 47.2335 69.9064 43.5054 74.5204 42.7071Z" fill="#6CC646"/>
<path d="M116.434 48.4501C119.501 45.2257 122.697 42.8394 127.316 42.6509C130.436 43.0693 132.503 44.5932 134.498 46.9598C135.882 49.0118 136.23 51.3408 135.813 53.7703C134.963 56.9638 133.273 59.0265 130.963 61.3341C130.73 61.5668 130.498 61.7994 130.258 62.0392C126.463 65.789 126.463 65.789 124.264 66.8886C124.158 66.7882 124.053 66.6877 123.944 66.5842C121.02 63.9709 117.165 61.9294 113.42 60.7759C112.953 60.6047 112.953 60.6047 112.414 60.0661C112.494 59.4833 112.494 59.4833 112.695 58.7308C112.958 57.6798 113.164 56.6685 113.279 55.591C113.619 52.4271 114.248 50.7926 116.434 48.4501Z" fill="#6CC646"/>
<path d="M74.8908 147.861C75.9088 147.427 76.9239 147.437 78.0117 147.429C78.2077 147.427 78.4037 147.425 78.6057 147.422C79.0188 147.419 79.432 147.417 79.8452 147.415C80.4781 147.412 81.1106 147.401 81.7434 147.389C82.1453 147.387 82.5471 147.385 82.949 147.384C83.1383 147.379 83.3275 147.375 83.5225 147.37C84.8225 147.378 84.8225 147.378 85.3956 147.955C85.6931 148.649 85.9577 149.336 86.1947 150.053C86.2928 150.344 86.3909 150.635 86.492 150.935C86.6483 151.402 86.6483 151.402 86.8077 151.878C89.4437 159.599 92.9551 168.476 98.8178 174.349C98.94 174.471 99.0622 174.594 99.188 174.72C99.4449 174.977 99.7021 175.234 99.9598 175.49C100.35 175.878 100.738 176.268 101.126 176.659C102.32 177.853 103.5 179.012 104.874 179.998C101.24 181.143 97.8373 180.679 94.4605 178.921C90.2442 176.715 86.9097 172.85 84.4063 168.867C84.2534 168.624 84.2534 168.624 84.0973 168.377C80.0954 161.943 77.3748 154.988 74.8908 147.861Z" fill="#FD9A1F"/>
<path d="M96.0763 79.2769C97.9062 78.8132 99.8354 78.863 101.709 78.8729C101.977 78.8715 102.245 78.8701 102.521 78.8687C102.78 78.8692 103.04 78.8696 103.307 78.8701C103.539 78.8705 103.771 78.8709 104.011 78.8713C105.241 78.9549 105.94 79.0937 106.842 79.9614C107.575 81.0041 107.549 81.9894 107.499 83.2267C107.498 83.4285 107.497 83.6303 107.496 83.8383C107.456 85.8374 107.047 87.1326 105.603 88.5792C104.219 89.8974 103.229 90.5474 101.319 90.6103C98.9032 90.5339 97.5542 89.5724 95.9031 87.8505C94.3554 85.9364 94.7171 83.2355 94.8195 80.8927C95.0865 80.0916 95.4015 79.7968 96.0763 79.2769Z" fill="#030201"/>
<path d="M114.221 85.3026C115.303 84.5983 116.357 84.6747 117.621 84.663C117.951 84.637 118.28 84.6111 118.62 84.5844C119.416 84.663 119.416 84.663 120.067 85.0894C120.652 85.9816 120.677 86.4896 120.494 87.5356C119.711 88.2891 119.236 88.5908 118.151 88.7243C117.839 88.7134 117.527 88.7026 117.206 88.6914C116.892 88.6837 116.578 88.6761 116.254 88.6682C115.35 88.6046 115.06 88.5393 114.356 87.9732C113.851 87.356 113.851 87.356 113.716 86.6379C113.851 85.9197 113.851 85.9197 114.221 85.3026Z" fill="#F4F2EF"/>
<path d="M81.8928 85.2915C82.9861 84.6082 84.0404 84.6749 85.304 84.6631C85.6336 84.6372 85.9632 84.6113 86.3027 84.5846C87.0994 84.6631 87.0994 84.6631 87.7502 85.0895C88.3348 85.9818 88.3597 86.4898 88.1767 87.5358C87.1267 88.5355 86.3797 88.7608 84.945 88.7477C84.6413 88.7504 84.3377 88.7532 84.0248 88.7561C82.9784 88.585 82.4826 88.2548 81.7133 87.5358C81.422 86.5826 81.3962 86.1605 81.8928 85.2915Z" fill="#F4F2F0"/>
<path d="M84.2267 76.4041C85.1254 76.2244 85.4966 76.3043 86.2802 76.7744C86.9849 77.8572 86.9314 78.908 86.9198 80.1745C86.9196 80.3668 86.9194 80.5591 86.9191 80.7573C86.8871 81.5189 86.7903 82.067 86.3924 82.7217C85.5539 83.2179 85.0007 83.2001 84.0472 83.0471C83.161 82.1355 82.8307 81.4219 82.8139 80.1418C82.8173 79.9712 82.8206 79.8005 82.8241 79.6246C82.8184 79.4532 82.8127 79.2819 82.8069 79.1053C82.8133 77.7773 83.1924 77.205 84.2267 76.4041Z" fill="#060401"/>
<path d="M116.544 76.4041C117.442 76.2244 117.814 76.3043 118.597 76.7744C119.302 77.8572 119.248 78.908 119.237 80.1745C119.237 80.3668 119.236 80.5591 119.236 80.7573C119.204 81.5189 119.107 82.067 118.709 82.7217C117.871 83.2179 117.318 83.2001 116.364 83.0471C115.478 82.1355 115.148 81.4219 115.131 80.1418C115.134 79.9712 115.138 79.8005 115.141 79.6246C115.135 79.4532 115.13 79.2819 115.124 79.1053C115.13 77.7773 115.509 77.205 116.544 76.4041Z" fill="#050301"/>
<path d="M98.5899 83.2268C99.5754 82.811 100.469 82.8315 101.53 82.8453C101.853 82.8485 102.177 82.8518 102.51 82.8551C102.757 82.8593 103.004 82.8634 103.258 82.8677C103.573 83.7523 103.723 84.2828 103.437 85.2017C102.673 86.1882 102.338 86.5656 101.115 86.8288C100.054 86.6062 99.6018 86.2919 98.8865 85.5012C98.4186 84.7457 98.4811 84.0845 98.5899 83.2268Z" fill="#444444"/>
<path d="M64.8365 93.6399C65.4874 93.3791 65.7342 93.4828 66.6319 93.6399C67.4228 94.442 67.6952 94.8923 67.7814 96.0251C67.7594 96.3713 67.7313 96.7171 67.6979 97.0624C67.6787 97.3391 67.6787 97.3391 67.6591 97.6213C67.6214 98.1501 67.5769 98.6777 67.5296 99.2056C67.3798 101.019 67.3313 102.818 67.3276 104.637C67.3268 104.867 67.326 105.096 67.3251 105.333C67.3273 106.654 67.3884 107.946 67.5296 109.26C68.3716 109.588 69.0719 109.663 69.9733 109.661C70.3868 109.661 70.3868 109.661 70.8086 109.662C71.2598 109.659 71.2598 109.659 71.7202 109.657C72.0382 109.657 72.3562 109.656 72.6838 109.656C73.3745 109.655 74.0651 109.654 74.7558 109.651C75.8473 109.647 76.9388 109.646 78.0303 109.645C79.756 109.643 81.4817 109.639 83.2073 109.635C86.2999 109.627 89.3925 109.621 92.4851 109.617C93.5708 109.615 94.6565 109.613 95.7422 109.609C96.5746 109.607 97.407 109.606 98.2393 109.604C98.5412 109.603 98.8431 109.602 99.1542 109.601C99.4283 109.6 99.7025 109.6 99.9849 109.6C100.343 109.599 100.344 109.599 100.709 109.598C101.481 109.626 101.774 109.762 102.394 110.236C102.899 110.876 102.899 110.876 103.022 111.785C102.899 112.671 102.899 112.671 102.557 113.166C101.759 113.744 101.144 113.695 100.165 113.713C99.9835 113.717 99.8016 113.722 99.6141 113.726C99.0333 113.738 98.4526 113.744 97.8717 113.748C97.5043 113.753 97.1368 113.757 96.7694 113.762C95.6159 113.774 94.4625 113.773 93.3089 113.772C92.8856 113.772 92.4624 113.772 92.0392 113.773C91.1608 113.773 90.2824 113.773 89.404 113.772C88.2839 113.771 87.1638 113.771 86.0437 113.772C85.1732 113.773 84.3026 113.773 83.432 113.772C83.019 113.772 82.606 113.772 82.193 113.773C80.1694 113.774 78.1642 113.759 76.1475 113.569C75.0874 113.542 74.0504 113.589 72.9943 113.67C71.9791 113.744 71.0549 113.691 70.0432 113.569C69.7506 113.602 69.4581 113.635 69.1567 113.67C68.916 113.696 68.6753 113.722 68.4273 113.748C68.3088 113.63 68.1903 113.511 68.0682 113.389C68.0311 114.885 68.1712 116.327 68.36 117.81C68.392 118.063 68.424 118.315 68.457 118.574C68.7809 121.032 69.2237 123.459 69.7078 125.889C69.8757 126.736 70.0388 127.583 70.2017 128.431C70.8903 131.982 71.6618 135.497 72.5806 138.995C72.7251 139.558 72.859 140.123 72.988 140.69C73.0605 140.997 73.1329 141.305 73.2075 141.622C73.2654 141.878 73.3233 142.135 73.3829 142.399C73.7137 143.208 73.9163 143.354 74.7112 143.731C75.5697 143.831 76.4224 143.813 77.2857 143.799C77.6769 143.797 77.6769 143.797 78.076 143.795C78.6421 143.791 79.2081 143.786 79.7741 143.78C80.6698 143.77 81.5654 143.764 82.4611 143.76C84.6855 143.749 86.91 143.731 89.1344 143.712C91.014 143.695 92.8936 143.682 94.7732 143.674C95.656 143.669 96.5385 143.659 97.4212 143.648C97.9622 143.645 98.5033 143.643 99.0443 143.641C99.4127 143.634 99.4127 143.634 99.7885 143.628C100.828 143.628 101.486 143.652 102.424 144.13C102.899 144.629 102.899 144.629 103.045 145.515C102.899 146.424 102.899 146.424 102.528 147.064C100.926 148.056 98.5043 147.707 96.6558 147.699C96.3098 147.698 96.3098 147.698 95.9567 147.698C95.4616 147.697 94.9664 147.696 94.4712 147.695C93.688 147.692 92.9048 147.691 92.1216 147.69C90.4625 147.688 88.8034 147.685 87.1442 147.681C85.2135 147.677 83.2828 147.673 81.3521 147.671C80.5796 147.67 79.8071 147.668 79.0346 147.665C78.5641 147.665 78.0937 147.664 77.6233 147.664C77.4078 147.663 77.1924 147.662 76.9704 147.661C75.9148 147.645 75.9148 147.645 74.8907 147.861C74.9986 148.069 75.1066 148.277 75.2178 148.491C75.5716 149.22 75.8557 149.932 76.1215 150.696C78.3573 157.008 81.0444 162.991 84.5858 168.687C84.699 168.869 84.8122 169.052 84.9289 169.239C88.2693 174.5 92.9819 178.861 99.1285 180.357C102.671 181.042 106.468 179.686 109.428 177.764C112.715 175.357 115.383 172.058 117.621 168.687C117.732 168.523 117.842 168.358 117.956 168.189C120.468 164.394 122.485 160.095 124.108 155.85C124.171 155.688 124.233 155.526 124.297 155.359C124.467 154.911 124.634 154.46 124.799 154.01C125.183 153.203 125.553 152.737 126.239 152.17C127.036 151.934 127.036 151.934 127.855 151.99C128.595 152.484 128.595 152.484 129.111 153.247C129.193 155.249 128.276 156.981 127.484 158.779C127.412 158.945 127.339 159.112 127.265 159.284C126.034 162.108 124.715 164.869 123.174 167.54C122.843 168.122 122.531 168.712 122.22 169.306C120.47 172.464 118.019 174.944 115.5 177.496C115.324 177.676 115.148 177.857 114.967 178.043C111.166 181.923 106.946 184.535 101.348 184.692C95.6474 184.722 91.0123 182.038 87.0653 178.146C84.7991 175.881 82.6839 173.576 80.995 170.842C80.8642 170.632 80.7334 170.422 80.5986 170.205C77.3935 164.997 74.8499 159.459 72.787 153.706C72.5496 153.048 72.3056 152.392 72.0609 151.735C70.8539 148.464 69.8766 145.15 68.9832 141.78C68.8088 141.123 68.631 140.466 68.4519 139.81C66.9825 134.365 65.8256 128.844 65.0161 123.264C64.9514 122.83 64.8943 122.471 64.8218 121.961C63.5418 112.975 61.8306 101.582 63.3441 96.2106C63.6749 95.0368 63.7591 94.0718 64.8365 93.6399Z" fill="#020100"/>
</g>
</g>
<defs>
<clipPath id="clip0_757_5000">
<rect width="200" height="200" fill="white"/>
</clipPath>
<clipPath id="clip1_757_5000">
<rect width="130" height="130" fill="white" transform="translate(-17 145.924) rotate(-75)"/>
</clipPath>
<clipPath id="clip2_757_5000">
<rect width="130" height="130" fill="white" transform="translate(58 53.9238) rotate(-15)"/>
</clipPath>
<clipPath id="clip3_757_5000">
<rect width="130" height="130" fill="white" transform="translate(9 99.9238) rotate(-45)"/>
</clipPath>
</defs>
</svg>
