<svg width="200" height="200" viewBox="0 0 200 200" fill="none" xmlns="http://www.w3.org/2000/svg">
<g clip-path="url(#clip0_757_4950)">
<g clip-path="url(#clip1_757_4950)">
<path d="M116.274 33.6948C116.709 33.7431 117.144 33.7973 117.578 33.8583C117.864 33.8864 117.864 33.8864 118.155 33.9151C121.603 34.3698 124.702 36.8693 126.874 39.4662C127.627 40.4501 128.328 41.4691 129.017 42.4996C129.089 42.2734 129.161 42.0472 129.236 41.8141C130.9 36.9327 133.495 33.3326 138.174 30.9948C141.311 29.5725 145.086 29.9283 148.24 31.1078C151.956 32.8319 154.136 35.4337 155.704 39.1603C156.844 42.6107 156.48 46.1757 155.724 49.6557C156.121 49.4692 156.121 49.4692 156.527 49.2791C160.543 47.4326 164.734 46.1474 169.13 47.4859C172.46 48.734 174.524 50.6479 176.291 53.6681C176.468 53.9594 176.468 53.9594 176.649 54.2567C178.296 57.0714 178.736 60.2571 177.972 63.4354C176.453 68.4292 172.72 71.6844 168.301 74.1369C165.994 75.364 163.557 76.3334 161.138 77.3143C161.237 77.4772 161.336 77.64 161.439 77.8078C162.316 79.2795 163.031 80.7144 163.579 82.3365C163.653 82.5546 163.728 82.7727 163.805 82.9974C166.245 90.4173 166.391 98.0659 165.232 105.735C165.205 105.918 165.178 106.101 165.15 106.29C164.44 110.876 163.302 115.571 161.548 119.871C161.246 120.625 160.981 121.384 160.721 122.154C158.659 128.228 155.851 134.091 152.944 139.802C152.797 140.091 152.797 140.091 152.647 140.386C151.162 143.287 149.583 146.122 147.921 148.925C147.469 149.687 147.029 150.452 146.606 151.23C145.71 152.865 144.979 154.183 143.28 155.057C142.535 155.066 142.535 155.066 142.02 154.905C141.892 155.106 141.892 155.106 141.762 155.311C141.65 155.484 141.537 155.658 141.422 155.837C141.311 156.01 141.2 156.183 141.085 156.361C140.769 156.8 140.769 156.8 140.329 157.054C140.49 157.27 140.65 157.485 140.816 157.707C141.218 158.593 141.218 158.593 141.045 159.388C140.407 160.943 139.258 162.217 138.214 163.516C138.101 163.658 137.988 163.8 137.871 163.946C135.951 166.356 133.963 168.682 131.783 170.862C131.312 171.339 130.859 171.829 130.405 172.321C127.897 174.919 124.887 176.68 121.794 178.493C121.577 178.622 121.361 178.751 121.137 178.884C116.462 181.647 111.709 183.079 106.262 181.782C100.747 180.335 96.9649 176.543 94.1599 171.762C92.557 168.988 91.1104 166.214 90.1869 163.135C90.1149 162.898 90.0429 162.662 89.9687 162.418C88.2208 156.557 87.1973 150.55 86.6935 144.459C86.6347 143.762 86.5688 143.065 86.5022 142.368C86.1832 138.895 86.0967 135.442 86.1061 131.955C86.1078 131.275 86.1059 130.595 86.1027 129.915C86.0927 124.275 86.4041 118.643 87.0665 113.043C87.1163 112.607 87.1661 112.171 87.2159 111.735C89.3937 92.9244 89.3937 92.9244 93.2409 85.1436C94.069 84.5667 94.6795 84.2854 95.6937 84.3139C96.0806 83.6708 96.4079 83.0543 96.5982 82.3257C96.1905 81.535 96.1905 81.535 95.7095 80.7865C96.8043 74.8738 103.164 68.6727 107.86 65.2691C108.319 64.9907 108.783 64.7189 109.25 64.4538C109.602 64.2533 109.602 64.2533 109.961 64.0488C110.139 63.9488 110.316 63.8487 110.499 63.7457C110.344 63.5477 110.344 63.5477 110.187 63.3458C106.052 58.0107 101.843 52.3492 102.538 45.2051C103.482 38.6437 109.542 33.4087 116.274 33.6948Z" fill="#FEA83E"/>
<path d="M136.039 63.248C136.469 63.3309 136.9 63.4153 137.33 63.5001C137.175 63.7346 137.175 63.7346 137.017 63.9738C136.256 64.1128 135.501 64.2296 134.736 64.3383C128.635 65.327 122.726 68.3671 118.318 72.7178C118.724 72.9187 118.724 72.9187 119.138 73.1236C119.603 73.6431 119.603 73.6431 119.9 74.4429C119.832 75.3563 119.621 76.2099 119.376 77.0907C119.326 77.2764 119.276 77.4621 119.225 77.6535C118.997 78.3809 118.762 78.8853 118.208 79.4146C117.269 79.677 116.74 79.5166 115.858 79.122C115.349 78.3419 115.135 77.8183 115.276 76.8836C115.41 76.374 115.576 75.8732 115.747 75.3747C114.439 76.6892 113.324 78.0603 112.282 79.5926C112.065 79.9097 112.065 79.9097 111.844 80.2333C107.595 86.5611 104.878 94.0226 103.32 101.461C103.187 102.09 103.031 102.714 102.865 103.335C99.6599 102.477 96.455 101.618 93.1531 100.733C92.9129 96.7309 94.7948 91.7021 96.3095 88.024C96.5515 87.3506 96.6813 86.7865 96.7096 86.0728C96.4419 85.4821 96.4419 85.4821 96.0748 84.9734C95.9491 84.7557 95.8234 84.538 95.6939 84.3137C95.8546 83.8144 95.8546 83.8144 96.1224 83.2784C96.2097 83.0998 96.2971 82.9213 96.3872 82.7373C96.4569 82.6014 96.5266 82.4656 96.5984 82.3256C96.8245 82.3402 96.8245 82.3402 97.0552 82.355C98.0058 82.2181 98.7381 81.8193 99.491 81.2419C99.9107 80.6369 100.244 80.089 100.577 79.4419C107.872 66.3589 121.574 60.5354 136.039 63.248Z" fill="#FD9B1F"/>
<path d="M92.1306 104.548C92.5704 104.295 92.5704 104.295 93.3782 104.488C93.6839 104.577 93.9896 104.667 94.3046 104.759C94.564 104.821 94.8235 104.883 95.0908 104.947C95.6919 105.131 95.6919 105.131 95.9458 105.571C96.1871 105.545 96.1871 105.545 96.4333 105.518C97.1314 105.501 97.6758 105.613 98.3482 105.796C98.5604 105.852 98.7726 105.908 98.9911 105.966C99.5072 106.153 99.5072 106.153 99.7611 106.593C99.9169 106.57 100.073 106.546 100.233 106.522C101.061 106.526 101.656 106.788 102.409 107.117C102.375 107.274 102.342 107.431 102.308 107.593C101.959 109.287 101.707 110.977 101.507 112.695C101.458 113.103 101.458 113.103 101.409 113.519C100.624 120.318 100.302 127.082 100.213 133.922C100.196 135.194 100.174 136.466 100.152 137.738C98.2784 137.415 96.4366 136.993 94.595 136.521C94.2618 136.437 93.9279 136.355 93.5935 136.275C93.105 136.159 92.6187 136.034 92.1324 135.909C91.8448 135.838 91.5571 135.766 91.2607 135.693C90.5671 135.356 90.5671 135.356 90.2018 134.694C90.0212 133.892 89.9615 133.2 89.9694 132.379C89.9718 132.076 89.9743 131.772 89.9768 131.46C89.9864 130.967 89.9864 130.967 89.9961 130.463C89.9988 130.293 90.0014 130.122 90.0042 129.946C90.128 122.191 90.6832 114.383 91.8437 106.714C91.9251 106.168 91.9958 105.621 92.0456 105.072C92.0876 104.813 92.0876 104.813 92.1306 104.548Z" fill="#FC9A1F"/>
<path d="M116.274 33.6947C116.709 33.743 117.144 33.7972 117.578 33.8582C117.864 33.8864 117.864 33.8864 118.156 33.9151C121.603 34.3697 124.702 36.8692 126.874 39.4661C127.628 40.45 128.329 41.469 129.017 42.4995C129.089 42.2733 129.161 42.0471 129.236 41.814C130.9 36.9326 133.495 33.3325 138.174 30.9947C141.311 29.5724 145.086 29.9282 148.24 31.1077C151.956 32.8318 154.136 35.4336 155.704 39.1602C156.844 42.6106 156.48 46.1756 155.724 49.6556C156.121 49.4692 156.121 49.4692 156.527 49.279C160.543 47.4325 164.734 46.1473 169.13 47.4858C172.46 48.7339 174.524 50.6478 176.291 53.668C176.468 53.9593 176.468 53.9593 176.649 54.2566C178.296 57.0713 178.736 60.2571 177.972 63.4353C176.453 68.4292 172.72 71.6843 168.301 74.1368C165.994 75.3639 163.557 76.3333 161.138 77.3143C161.237 77.4771 161.336 77.6399 161.439 77.8077C162.316 79.2794 163.031 80.7143 163.579 82.3364C163.654 82.5545 163.728 82.7726 163.805 82.9973C166.245 90.4172 166.392 98.0658 165.232 105.735C165.205 105.918 165.178 106.101 165.15 106.29C164.44 110.876 163.302 115.571 161.548 119.871C161.246 120.625 160.981 121.384 160.721 122.154C158.659 128.228 155.851 134.091 152.944 139.802C152.797 140.091 152.797 140.091 152.647 140.386C151.163 143.287 149.583 146.122 147.921 148.925C147.469 149.687 147.029 150.452 146.606 151.23C145.707 152.871 144.968 154.155 143.281 155.057C142.367 154.998 142.367 154.998 141.967 154.636C141.788 154.398 141.788 154.398 141.605 154.155C141.483 154 141.36 153.844 141.234 153.684C141.005 153.146 141.005 153.146 141.063 152.536C141.516 151.411 142.157 150.433 142.807 149.412C144.237 147.119 145.571 144.784 146.866 142.414C146.953 142.254 147.041 142.094 147.131 141.929C148.113 140.183 148.113 140.183 148.961 138.371C149.188 137.866 149.188 137.866 149.628 137.613C147.831 136.974 146.023 136.436 144.179 135.949C143.902 135.875 143.625 135.801 143.34 135.725C142.743 135.565 142.147 135.407 141.55 135.248C140.606 134.998 139.663 134.746 138.72 134.494C136.721 133.961 134.722 133.429 132.722 132.897C130.398 132.278 128.073 131.659 125.749 131.039C124.819 130.791 123.887 130.544 122.956 130.296C122.389 130.145 121.822 129.994 121.256 129.843C120.995 129.774 120.735 129.705 120.467 129.634C120.231 129.571 119.995 129.508 119.751 129.442C119.545 129.388 119.339 129.333 119.127 129.276C118.408 129.051 118.175 128.832 117.724 128.216C117.396 127.489 117.396 127.489 117.452 126.761C117.768 126.102 117.768 126.102 118.285 125.602C120.224 124.969 122.786 126.124 124.698 126.651C124.981 126.729 125.265 126.806 125.557 126.886C126.167 127.053 126.777 127.22 127.388 127.387C128.518 127.697 129.648 128.004 130.779 128.311C130.944 128.356 131.109 128.4 131.278 128.446C131.444 128.491 131.61 128.536 131.781 128.583C134.025 129.192 136.269 129.803 138.511 130.419C140.191 130.88 141.872 131.337 143.554 131.791C144.195 131.965 144.835 132.14 145.475 132.318C146.367 132.564 147.259 132.805 148.152 133.045C148.417 133.119 148.683 133.194 148.957 133.271C149.199 133.335 149.441 133.399 149.691 133.465C150.007 133.551 150.007 133.551 150.33 133.639C150.883 133.727 150.883 133.727 151.294 133.37C151.818 132.688 152.138 131.912 152.48 131.128C152.599 130.862 152.599 130.862 152.72 130.59C152.959 130.05 153.195 129.508 153.431 128.966C153.625 128.524 153.625 128.524 153.822 128.073C157.009 120.701 160.173 112.852 161.197 104.839C161.224 104.639 161.25 104.439 161.278 104.233C162.61 93.9676 161.205 83.3558 154.9 74.8732C151.523 70.5703 146.972 67.2338 141.873 65.275C141.704 65.2103 141.536 65.1455 141.362 65.0788C133.537 62.1091 125.363 61.6783 117.494 64.6907C117.266 64.7676 117.038 64.8445 116.803 64.9237C113.786 66.1576 110.804 68.0737 108.386 70.2427C108.253 70.3623 108.119 70.4819 107.982 70.6052C104.958 73.3566 102.319 76.5458 100.386 80.1574C99.7076 81.4074 99.2197 82.0119 97.8587 82.4775C97.1027 82.4376 97.1027 82.4376 96.4713 82.1058C95.9747 81.5313 95.9747 81.5313 95.7096 80.7864C96.9056 74.8402 103.106 68.7151 107.86 65.269C108.319 64.9906 108.783 64.7188 109.25 64.4537C109.602 64.2532 109.602 64.2532 109.961 64.0487C110.139 63.9487 110.316 63.8486 110.499 63.7456C110.344 63.5476 110.344 63.5476 110.187 63.3457C106.052 58.0107 101.843 52.3491 102.538 45.205C103.482 38.6436 109.542 33.4086 116.274 33.6947Z" fill="#010100"/>
<path d="M143.183 34.0277C145.79 34.2862 148.539 35.2198 150.314 37.2398C152.352 40.0108 152.723 43.3282 152.246 46.6793C151.618 49.8274 150.537 52.7946 149.263 55.7312C149.183 55.9167 149.104 56.1021 149.022 56.2932C148.481 57.5528 147.926 58.8053 147.361 60.0543C147.241 60.3226 147.121 60.591 146.998 60.8675C146.894 61.0912 146.79 61.3149 146.683 61.5454C146.596 61.733 146.509 61.9206 146.42 62.1139C146.144 62.5162 146.144 62.5162 145.357 62.6772C144.741 62.4329 144.741 62.4329 143.998 62.0691C139.971 60.2171 135.559 59.1162 131.137 58.8668C130.868 57.5784 131.001 56.3737 131.13 55.0777C131.152 54.8453 131.175 54.6129 131.198 54.3734C131.557 50.7728 132.111 47.2596 132.959 43.7418C133.038 43.393 133.038 43.393 133.118 43.0373C134.306 38.0955 137.86 34.0236 143.183 34.0277Z" fill="#8CD26F"/>
<path d="M117.097 37.6907C119.896 38.1846 122.487 40.1233 124.229 42.3318C125.028 43.5838 125.741 44.8902 126.462 46.1879C126.723 46.6498 126.996 47.1044 127.272 47.5574C128.241 49.2675 128.25 50.3636 127.82 52.2644C127.503 53.6798 127.462 55.1273 127.384 56.5717C127.284 58.1283 127.284 58.1283 126.696 58.7919C126.071 58.9019 126.071 58.9019 125.305 58.9536C121.274 59.2815 117.826 60.3067 114.144 61.9342C112.156 59.6527 110.476 57.2681 108.95 54.6528C108.794 54.3881 108.637 54.1235 108.475 53.8509C106.835 50.9776 105.864 47.7964 106.62 44.4908C108.003 39.9402 112.433 37.2676 117.097 37.6907Z" fill="#6CC646"/>
<path d="M156.095 54.0861C159.893 51.7654 163.598 50.2877 168.108 51.301C171.013 52.5127 172.615 54.5196 173.93 57.3219C174.736 59.6623 174.469 62.0019 173.437 64.2407C171.79 67.1054 169.624 68.6605 166.795 70.2916C166.51 70.4561 166.225 70.6206 165.931 70.7901C161.296 73.43 161.296 73.43 158.887 73.9229C158.811 73.7986 158.735 73.6743 158.656 73.5462C156.508 70.2651 153.313 67.2954 149.994 65.2119C149.587 64.9257 149.587 64.9257 149.207 64.266C149.434 63.7236 149.434 63.7236 149.823 63.0488C150.349 62.1017 150.81 61.1781 151.2 60.1672C152.347 57.199 153.378 55.783 156.095 54.0861Z" fill="#6CC646"/>
<path d="M90.2386 139.357C91.3342 139.202 92.312 139.475 93.365 139.748C93.5549 139.797 93.7447 139.845 93.9404 139.896C94.3403 139.999 94.74 140.104 95.1395 140.209C95.7517 140.37 96.3656 140.523 96.9797 140.676C97.3685 140.777 97.7572 140.88 98.1457 140.982C98.3297 141.027 98.5136 141.072 98.7032 141.118C99.9568 141.462 99.9568 141.462 100.361 142.168C100.469 142.914 100.547 143.647 100.59 144.401C100.609 144.707 100.629 145.014 100.649 145.33C100.679 145.821 100.679 145.821 100.71 146.322C101.258 154.462 102.352 163.945 106.495 171.136C106.581 171.286 106.667 171.436 106.756 171.59C106.938 171.905 107.12 172.219 107.302 172.534C107.579 173.01 107.853 173.487 108.127 173.964C108.97 175.427 109.81 176.851 110.882 178.16C107.076 178.325 103.909 176.996 101.103 174.424C97.6008 171.202 95.3802 166.606 93.9932 162.11C93.9082 161.837 93.9082 161.837 93.8215 161.557C91.621 154.307 90.7934 146.884 90.2386 139.357Z" fill="#FD9A1F"/>
<path d="M128.453 78.5936C130.341 78.6193 132.191 79.1668 133.999 79.6613C134.258 79.7293 134.517 79.7972 134.784 79.8673C135.034 79.9349 135.285 80.0024 135.543 80.0721C135.767 80.1326 135.991 80.1931 136.222 80.2554C137.388 80.6545 138.028 80.9696 138.674 82.041C139.113 83.2381 138.833 84.183 138.465 85.3654C138.411 85.56 138.358 85.7546 138.303 85.9552C137.747 87.8759 137.017 89.0209 135.248 90.0447C133.569 90.9596 132.445 91.3312 130.584 90.8978C128.27 90.1987 127.216 88.9208 126.067 86.8303C125.067 84.5808 126.116 82.0655 126.821 79.8291C127.286 79.1244 127.667 78.9211 128.453 78.5936Z" fill="#030201"/>
<path d="M144.42 89.1102C145.648 88.71 146.646 89.0567 147.87 89.3724C148.195 89.4327 148.52 89.4929 148.855 89.555C149.604 89.8371 149.604 89.8371 150.122 90.4174C150.456 91.4306 150.348 91.9277 149.901 92.8906C148.95 93.416 148.413 93.5845 147.33 93.4324C147.032 93.3412 146.733 93.25 146.426 93.1561C146.125 93.0674 145.823 92.9788 145.513 92.8874C144.656 92.592 144.392 92.4538 143.859 91.7247C143.531 90.9979 143.531 90.9979 143.587 90.2694C143.902 89.6105 143.902 89.6105 144.42 89.1102Z" fill="#F4F2EF"/>
<path d="M113.196 80.7322C114.429 80.3551 115.43 80.6924 116.654 81.0081C116.979 81.0684 117.304 81.1286 117.639 81.1907C118.388 81.4728 118.388 81.4728 118.906 82.0531C119.24 83.0663 119.133 83.5634 118.685 84.5263C117.412 85.2203 116.632 85.2445 115.25 84.8605C114.956 84.7846 114.662 84.7087 114.359 84.6305C113.392 84.1944 112.999 83.7471 112.442 82.8535C112.407 81.8574 112.492 81.443 113.196 80.7322Z" fill="#F4F2F0"/>
<path d="M117.751 72.7519C118.665 72.8109 119.003 72.9841 119.639 73.6411C120.039 74.8694 119.715 75.8705 119.376 77.0908C119.326 77.2765 119.276 77.4622 119.225 77.6535C118.997 78.3809 118.761 78.8853 118.208 79.4147C117.269 79.677 116.74 79.5166 115.858 79.122C115.238 78.0121 115.104 77.2374 115.419 75.9966C115.466 75.8326 115.514 75.6686 115.562 75.4996C115.601 75.3326 115.64 75.1656 115.68 74.9935C116.03 73.7125 116.544 73.2578 117.751 72.7519Z" fill="#060401"/>
<path d="M148.967 81.1162C149.881 81.1752 150.219 81.3484 150.854 82.0053C151.255 83.2336 150.931 84.2347 150.592 85.455C150.542 85.6407 150.492 85.8265 150.441 86.0178C150.213 86.7452 149.977 87.2496 149.423 87.7789C148.485 88.0413 147.955 87.8809 147.074 87.4863C146.454 86.3764 146.32 85.6016 146.635 84.3608C146.682 84.1968 146.729 84.0328 146.778 83.8639C146.817 83.6969 146.856 83.5299 146.896 83.3578C147.246 82.0767 147.76 81.622 148.967 81.1162Z" fill="#050301"/>
<path d="M129.859 83.0593C130.918 82.9127 131.777 83.164 132.797 83.4517C133.109 83.5386 133.421 83.6255 133.742 83.715C133.979 83.7828 134.216 83.8507 134.461 83.9207C134.536 84.8566 134.543 85.4078 134.03 86.2216C133.037 86.9767 132.615 87.2544 131.365 87.1921C130.399 86.7026 130.043 86.2819 129.557 85.333C129.3 84.4822 129.532 83.8597 129.859 83.0593Z" fill="#444444"/>
<path d="M94.5604 84.3819C95.2565 84.2984 95.4681 84.4625 96.2946 84.8466C96.8509 85.8261 96.9974 86.3315 96.7875 87.4481C96.6767 87.7767 96.5601 88.1035 96.4385 88.4284C96.3483 88.6906 96.3483 88.6906 96.2563 88.9582C96.0831 89.4592 95.9034 89.9573 95.7212 90.455C95.1072 92.1674 94.5946 93.893 94.1204 95.6487C94.0601 95.8705 93.9998 96.0923 93.9377 96.3208C93.5979 97.5974 93.3225 98.8612 93.119 100.167C93.8472 100.702 94.5043 100.955 95.3756 101.186C95.7748 101.294 95.7748 101.294 96.1822 101.403C96.6187 101.518 96.6187 101.518 97.064 101.635C97.3712 101.717 97.6784 101.799 97.9949 101.883C98.6623 102.061 99.3297 102.239 99.9975 102.415C101.053 102.694 102.108 102.975 103.162 103.256C104.83 103.701 106.497 104.144 108.165 104.586C111.155 105.379 114.143 106.174 117.132 106.97C118.181 107.25 119.23 107.528 120.28 107.806C121.084 108.019 121.889 108.233 122.693 108.448C122.985 108.525 123.277 108.601 123.578 108.681C123.843 108.751 124.107 108.822 124.38 108.895C124.727 108.987 124.727 108.987 125.081 109.081C125.818 109.308 126.067 109.515 126.543 110.133C126.865 110.882 126.865 110.882 126.749 111.792C126.4 112.616 126.4 112.616 125.942 113.006C125.022 113.357 124.44 113.151 123.49 112.915C123.313 112.872 123.136 112.829 122.954 112.785C122.39 112.646 121.828 112.501 121.265 112.355C120.909 112.265 120.553 112.174 120.197 112.083C119.08 111.796 117.966 111.497 116.852 111.197C116.443 111.088 116.034 110.979 115.625 110.869C114.777 110.642 113.928 110.414 113.08 110.186C111.999 109.895 110.916 109.606 109.834 109.317C108.993 109.092 108.152 108.867 107.312 108.641C106.913 108.534 106.514 108.427 106.115 108.321C104.16 107.799 102.227 107.265 100.328 106.559C99.311 106.259 98.2971 106.036 97.2561 105.841C96.2562 105.65 95.3771 105.36 94.4316 104.979C94.1404 104.936 93.8492 104.892 93.5492 104.847C93.31 104.81 93.0708 104.773 92.8244 104.734C92.7406 104.589 92.6568 104.444 92.5705 104.295C92.1473 105.73 91.9096 107.159 91.708 108.641C91.6736 108.893 91.6393 109.144 91.6039 109.404C91.2809 111.861 91.0803 114.32 90.9189 116.793C90.8619 117.654 90.8001 118.515 90.738 119.376C90.4841 122.985 90.3197 126.579 90.3018 130.196C90.2955 130.778 90.2788 131.357 90.2567 131.938C90.2471 132.254 90.2375 132.57 90.2275 132.895C90.2171 133.158 90.2066 133.421 90.1958 133.691C90.3058 134.559 90.4639 134.752 91.1339 135.322C91.9373 135.641 92.7658 135.844 93.6033 136.054C93.9817 136.153 93.9817 136.153 94.3678 136.254C94.9154 136.397 95.4634 136.539 96.0118 136.679C96.8795 136.902 97.746 137.128 98.6122 137.356C100.764 137.921 102.917 138.479 105.071 139.036C106.891 139.507 108.71 139.981 110.527 140.459C111.381 140.683 112.236 140.901 113.092 141.12C113.615 141.257 114.138 141.395 114.661 141.533C115.019 141.622 115.019 141.622 115.384 141.713C116.387 141.982 117.017 142.175 117.799 142.88C118.129 143.485 118.129 143.485 118.04 144.379C117.664 145.219 117.664 145.219 117.141 145.741C115.337 146.284 113.087 145.32 111.304 144.834C110.97 144.744 110.97 144.744 110.629 144.652C110.151 144.524 109.673 144.394 109.195 144.265C108.439 144.06 107.683 143.856 106.926 143.652C105.324 143.221 103.723 142.788 102.121 142.355C100.257 141.852 98.3932 141.348 96.5288 140.847C95.783 140.646 95.0374 140.443 94.2918 140.241C93.8376 140.119 93.3833 139.997 92.929 139.874C92.7212 139.818 92.5133 139.761 92.2992 139.703C91.2837 139.414 91.2837 139.414 90.2386 139.357C90.289 139.586 90.3393 139.815 90.3912 140.051C90.5444 140.847 90.6346 141.608 90.6936 142.415C91.2195 149.09 92.2665 155.565 94.213 161.983C94.2752 162.189 94.3374 162.394 94.4015 162.606C96.2667 168.551 99.6898 173.984 105.24 177.02C108.484 178.598 112.503 178.271 115.86 177.18C119.658 175.706 123.088 173.21 126.123 170.534C126.272 170.403 126.421 170.273 126.575 170.139C129.983 167.124 133.045 163.493 135.711 159.813C135.813 159.673 135.915 159.532 136.021 159.388C136.301 158.998 136.578 158.607 136.855 158.215C137.434 157.534 137.912 157.18 138.722 156.809C139.552 156.788 139.552 156.788 140.329 157.054C140.917 157.723 140.917 157.723 141.218 158.593C140.778 160.549 139.444 161.984 138.214 163.516C138.101 163.658 137.988 163.8 137.871 163.947C135.951 166.356 133.963 168.682 131.784 170.862C131.313 171.339 130.859 171.829 130.405 172.321C127.897 174.919 124.888 176.68 121.794 178.493C121.577 178.622 121.361 178.751 121.137 178.884C116.462 181.648 111.709 183.079 106.262 181.782C100.748 180.335 96.965 176.543 94.1599 171.762C92.5571 168.988 91.1105 166.214 90.187 163.135C90.115 162.899 90.043 162.662 89.9688 162.418C88.2209 156.557 87.1974 150.55 86.6936 144.459C86.6348 143.762 86.5689 143.065 86.5023 142.368C86.1833 138.895 86.0968 135.442 86.1061 131.955C86.1078 131.275 86.106 130.595 86.1028 129.915C86.0927 124.275 86.4042 118.643 87.0665 113.043C87.1164 112.607 87.1543 112.245 87.216 111.735C88.3053 102.724 89.6013 91.2753 92.4535 86.4787C93.0768 85.4305 93.4078 84.5202 94.5604 84.3819Z" fill="#020100"/>
</g>
<g clip-path="url(#clip2_757_4950)">
<path d="M29.7684 48.7256C30.1695 48.5498 30.5731 48.3793 30.9792 48.2153C31.2411 48.0966 31.2411 48.0966 31.5082 47.9755C34.721 46.6456 38.6546 47.2607 41.8338 48.4238C42.9786 48.899 44.0952 49.4309 45.2064 49.9793C45.156 49.7472 45.1056 49.5151 45.0536 49.276C44.0536 44.2168 44.5012 39.8013 47.3848 35.437C49.3898 32.6371 52.8368 31.0578 56.1584 30.5021C60.2389 30.137 63.4274 31.3004 66.6488 33.7436C69.3608 36.1621 70.8284 39.4312 71.9133 42.8232C72.1643 42.463 72.1643 42.463 72.4204 42.0956C74.9753 38.4884 77.9627 35.2796 82.4389 34.2408C85.9466 33.6569 88.6915 34.282 91.7314 36.0144C92.0306 36.178 92.0306 36.178 92.3359 36.345C95.1695 37.9592 97.1437 40.4979 98.071 43.6325C99.2519 48.7171 97.6473 53.4023 95.0467 57.7356C93.6623 59.9518 92.036 62.0101 90.4314 64.0693C90.5988 64.1606 90.7662 64.252 90.9387 64.3461C92.4341 65.1822 93.7708 66.0673 95.0568 67.1979C95.2303 67.3496 95.4038 67.5012 95.5826 67.6575C101.406 72.8633 105.357 79.4137 108.188 86.6347C108.256 86.807 108.324 86.9793 108.394 87.1569C110.072 91.4833 111.435 96.1182 112.065 100.719C112.18 101.524 112.331 102.313 112.49 103.11C113.742 109.401 114.242 115.883 114.58 122.282C114.597 122.606 114.597 122.606 114.614 122.936C114.779 126.191 114.829 129.436 114.791 132.694C114.78 133.58 114.782 134.463 114.805 135.348C114.847 137.212 114.872 138.719 113.838 140.325C113.197 140.706 113.197 140.706 112.67 140.824C112.66 141.061 112.66 141.061 112.65 141.304C112.639 141.51 112.629 141.717 112.618 141.929C112.609 142.135 112.599 142.34 112.589 142.552C112.534 143.09 112.534 143.09 112.28 143.53C112.527 143.637 112.774 143.743 113.029 143.852C113.82 144.419 113.82 144.419 114.068 145.193C114.292 146.859 113.934 148.537 113.68 150.184C113.653 150.363 113.626 150.543 113.598 150.728C113.14 153.775 112.581 156.783 111.784 159.761C111.615 160.41 111.467 161.06 111.32 161.714C110.446 165.218 108.721 168.247 106.948 171.364C106.825 171.585 106.702 171.805 106.575 172.031C103.908 176.762 100.507 180.378 95.1413 181.978C89.6422 183.483 84.4705 182.09 79.6507 179.352C76.8755 177.751 74.2358 176.072 71.8967 173.868C71.716 173.699 71.5353 173.53 71.3491 173.356C66.9051 169.154 63.0148 164.463 59.5334 159.441C59.1336 158.866 58.7281 158.295 58.3219 157.725C56.3092 154.877 54.5077 151.929 52.7725 148.905C52.4339 148.315 52.0922 147.727 51.7494 147.14C48.9209 142.261 46.3744 137.227 44.1482 132.047C43.9733 131.644 43.7984 131.241 43.6234 130.839C36.1044 113.46 36.1044 113.46 35.5458 104.798C35.9745 103.884 36.3625 103.335 37.2551 102.853C37.2686 102.103 37.2438 101.405 37.0443 100.679C36.2959 100.198 36.2959 100.198 35.5051 99.7903C33.4968 94.1223 35.904 85.5722 38.2689 80.2766C38.5276 79.8058 38.7932 79.3386 39.0653 78.8754C39.2699 78.5258 39.2699 78.5258 39.4786 78.1691C39.5822 77.9938 39.6857 77.8185 39.7924 77.638C39.5598 77.5437 39.5598 77.5437 39.3226 77.4475C33.074 74.8947 26.5983 72.0961 23.6282 65.5615C21.1649 59.4073 23.7954 51.8437 29.7684 48.7256Z" fill="#FEA83E"/>
<path d="M61.6618 64.4372C62.0763 64.2936 62.4912 64.1515 62.9063 64.0097C62.8895 64.2902 62.8895 64.2902 62.8723 64.5764C62.2828 65.0772 61.6869 65.5561 61.0785 66.0329C56.2895 69.9395 52.6925 75.5266 51.0499 81.4988C51.5021 81.4696 51.5021 81.4696 51.9634 81.4399C52.6258 81.6574 52.6258 81.6574 53.2828 82.2016C53.6809 83.0264 53.9247 83.8713 54.1532 84.7565C54.2028 84.9423 54.2523 85.1281 54.3034 85.3196C54.4696 86.0636 54.518 86.618 54.303 87.3534C53.6215 88.0497 53.0826 88.1757 52.122 88.2747C51.2911 87.8536 50.8435 87.5075 50.4985 86.6273C50.3597 86.119 50.2535 85.6021 50.1521 85.0851C49.6768 86.8773 49.3964 88.6224 49.26 90.4704C49.2311 90.8533 49.2311 90.8533 49.2016 91.244C48.6851 98.849 50.0631 106.669 52.4329 113.89C52.6323 114.502 52.8096 115.12 52.976 115.741C49.7711 116.6 46.5663 117.458 43.2644 118.343C41.0552 114.997 40.1706 109.701 39.6433 105.758C39.5162 105.054 39.3466 104.501 39.0142 103.869C38.487 103.491 38.487 103.491 37.9148 103.234C37.6971 103.108 37.4794 102.982 37.2551 102.853C37.1446 102.34 37.1446 102.34 37.1085 101.742C37.0949 101.544 37.0813 101.345 37.0672 101.141C37.0597 100.989 37.0521 100.836 37.0443 100.679C37.2474 100.579 37.2474 100.579 37.4546 100.476C38.2094 99.8822 38.6442 99.1706 39.0075 98.2942C39.0685 97.5604 39.0831 96.9194 39.0484 96.1922C38.8244 81.2145 47.7788 69.3203 61.6618 64.4372Z" fill="#FD9B1F"/>
<path d="M44.2868 122.158C44.5407 121.719 44.5407 121.719 45.3369 121.482C45.6464 121.407 45.956 121.332 46.2749 121.254C46.5305 121.178 46.7861 121.102 47.0495 121.023C47.6622 120.882 47.6622 120.882 48.102 121.136C48.298 120.993 48.298 120.993 48.498 120.847C49.0941 120.483 49.6214 120.308 50.2953 120.13C50.507 120.073 50.7187 120.015 50.9368 119.956C51.4775 119.86 51.4775 119.86 51.9173 120.114C52.0405 120.016 52.1637 119.918 52.2906 119.816C53.0094 119.406 53.6557 119.335 54.4721 119.243C54.5218 119.396 54.5714 119.549 54.6226 119.706C55.1674 121.348 55.7948 122.938 56.4799 124.526C56.6422 124.903 56.6422 124.903 56.8076 125.288C59.527 131.569 62.6302 137.587 65.9734 143.556C66.5945 144.666 67.2116 145.778 67.8283 146.891C66.044 147.548 64.2382 148.103 62.4072 148.615C62.0765 148.709 61.7465 148.805 61.4171 148.903C60.936 149.047 60.4524 149.182 59.9687 149.317C59.6838 149.399 59.399 149.481 59.1055 149.565C58.3366 149.62 58.3366 149.62 57.6892 149.23C57.1317 148.625 56.7343 148.056 56.3303 147.341C56.1808 147.077 56.0313 146.813 55.8773 146.541C55.6389 146.109 55.6389 146.109 55.3957 145.669C55.3127 145.519 55.2296 145.37 55.144 145.217C51.3738 138.439 47.9506 131.399 45.121 124.177C44.9187 123.664 44.7062 123.155 44.4747 122.654C44.3817 122.409 44.3817 122.409 44.2868 122.158Z" fill="#FC9A1F"/>
<path d="M29.7685 48.7257C30.1696 48.5499 30.5732 48.3795 30.9793 48.2154C31.2411 48.0968 31.2411 48.0968 31.5083 47.9757C34.7211 46.6457 38.6547 47.2608 41.8339 48.4239C42.9787 48.8991 44.0953 49.4311 45.2065 49.9794C45.1561 49.7474 45.1056 49.5153 45.0537 49.2762C44.0537 44.2169 44.5013 39.8015 47.3849 35.4372C49.3898 32.6373 52.8369 31.0579 56.1585 30.5022C60.239 30.1371 63.4274 31.3006 66.6489 33.7438C69.3609 36.1622 70.8285 39.4314 71.9134 42.8233C72.1644 42.4632 72.1644 42.4632 72.4205 42.0957C74.9754 38.4885 77.9627 35.2798 82.4389 34.241C85.9467 33.657 88.6915 34.2822 91.7315 36.0145C92.0307 36.1782 92.0307 36.1782 92.3359 36.3452C95.1695 37.9594 97.1438 40.4981 98.071 43.6327C99.252 48.7172 97.6473 53.4024 95.0468 57.7358C93.6624 59.952 92.0361 62.0103 90.4314 64.0694C90.5989 64.1608 90.7663 64.2521 90.9388 64.3463C92.4342 65.1824 93.7708 66.0675 95.0569 67.198C95.2304 67.3497 95.4039 67.5014 95.5826 67.6576C101.406 72.8634 105.357 79.4139 108.188 86.6349C108.256 86.8072 108.324 86.9795 108.394 87.157C110.072 91.4835 111.435 96.1183 112.065 100.719C112.18 101.524 112.331 102.313 112.491 103.11C113.742 109.401 114.242 115.883 114.58 122.282C114.597 122.606 114.597 122.606 114.614 122.936C114.779 126.191 114.829 129.436 114.791 132.694C114.78 133.58 114.782 134.463 114.805 135.348C114.847 137.219 114.848 138.7 113.838 140.325C113.017 140.731 113.017 140.731 112.49 140.617C112.216 140.501 112.216 140.501 111.936 140.381C111.753 140.308 111.569 140.235 111.38 140.16C110.911 139.808 110.911 139.808 110.657 139.25C110.487 138.049 110.553 136.882 110.605 135.673C110.697 132.972 110.685 130.284 110.621 127.583C110.617 127.401 110.613 127.219 110.609 127.031C110.586 125.027 110.586 125.027 110.415 123.034C110.359 122.484 110.359 122.484 110.613 122.044C108.737 122.39 106.902 122.828 105.062 123.328C104.786 123.402 104.509 123.476 104.223 123.553C103.627 123.714 103.031 123.874 102.435 124.036C101.493 124.291 100.55 124.544 99.6071 124.798C97.6092 125.335 95.6117 125.874 93.6142 126.413C91.2919 127.04 88.9695 127.666 86.6467 128.291C85.7164 128.541 84.7863 128.793 83.8563 129.044C83.2898 129.197 82.7233 129.349 82.1568 129.501C81.8971 129.572 81.6373 129.642 81.3697 129.715C81.1335 129.778 80.8972 129.842 80.6538 129.907C80.448 129.963 80.2422 130.018 80.0302 130.075C79.2951 130.24 78.9838 130.167 78.2851 129.858C77.6377 129.393 77.6377 129.393 77.3217 128.734C77.2659 128.006 77.2659 128.006 77.4639 127.314C78.827 125.797 81.6228 125.515 83.5424 125.016C83.8265 124.942 84.1106 124.867 84.4033 124.79C85.0152 124.629 85.6273 124.469 86.2394 124.309C87.3728 124.012 88.5056 123.713 89.6383 123.413C89.8034 123.369 89.9685 123.326 90.1386 123.281C90.3049 123.237 90.4711 123.193 90.6424 123.148C92.8902 122.553 95.1385 121.961 97.3881 121.373C99.0739 120.932 100.758 120.487 102.442 120.04C103.084 119.87 103.726 119.701 104.369 119.535C105.264 119.303 106.157 119.065 107.051 118.826C107.318 118.758 107.585 118.69 107.861 118.62C108.103 118.554 108.345 118.489 108.594 118.421C108.911 118.337 108.911 118.337 109.234 118.253C109.757 118.052 109.757 118.052 109.934 117.538C110.047 116.684 109.937 115.852 109.841 115.002C109.81 114.712 109.81 114.712 109.779 114.417C109.716 113.829 109.65 113.242 109.584 112.655C109.53 112.175 109.53 112.175 109.476 111.685C108.549 103.708 107.365 95.3286 104.246 87.877C104.169 87.6906 104.092 87.5041 104.012 87.312C100.033 77.7557 93.5103 69.268 83.8089 65.0743C78.733 63.0362 73.1236 62.4223 67.7282 63.2755C67.5498 63.3037 67.3714 63.3319 67.1876 63.361C58.926 64.7017 51.632 68.4154 46.3235 74.9588C46.1645 75.1394 46.0054 75.32 45.8414 75.5061C43.8457 78.0832 42.2207 81.2339 41.2114 84.3211C41.1557 84.4914 41.1 84.6617 41.0426 84.8371C39.8 88.7316 39.1089 92.8132 39.2402 96.9077C39.278 98.3292 39.1577 99.0967 38.2119 100.18C37.5372 100.524 37.5372 100.524 36.8245 100.552C36.1072 100.303 36.1072 100.303 35.5052 99.7905C33.5678 94.0429 35.8746 85.6384 38.269 80.2768C38.5277 79.8059 38.7933 79.3388 39.0654 78.8755C39.27 78.5259 39.27 78.5259 39.4787 78.1693C39.5823 77.994 39.6858 77.8187 39.7925 77.6381C39.5599 77.5438 39.5599 77.5438 39.3227 77.4476C33.074 74.8949 26.5984 72.0962 23.6283 65.5617C21.165 59.4074 23.7955 51.8439 29.7685 48.7257Z" fill="#010100"/>
<path d="M53.2387 35.5596C55.6261 34.4796 58.4737 33.9136 61.0211 34.7754C64.1708 36.1566 66.1514 38.8436 67.4136 41.9844C68.4438 45.0247 68.9911 48.135 69.3562 51.3151C69.3801 51.5155 69.4039 51.7159 69.4285 51.9223C69.59 53.2836 69.7354 54.6458 69.8707 56.0099C69.9011 56.3022 69.9315 56.5945 69.9628 56.8957C69.9846 57.1415 70.0063 57.3872 70.0288 57.6404C70.0475 57.8462 70.0662 58.0521 70.0855 58.2641C70.0474 58.7506 70.0474 58.7506 69.4467 59.2834C68.7908 59.38 68.7908 59.38 67.9658 59.4362C63.552 59.846 59.1803 61.0988 55.2261 63.0937C54.3495 62.1121 53.8619 61.0026 53.3255 59.8159C53.2288 59.6034 53.132 59.3908 53.0323 59.1719C51.5436 55.8738 50.2661 52.5546 49.2418 49.084C49.1356 48.7426 49.1356 48.7426 49.0272 48.3943C47.5855 43.5205 48.6274 38.2172 53.2387 35.5596Z" fill="#8CD26F"/>
<path d="M32.4792 51.7749C35.1503 50.8031 38.3636 51.1865 40.9765 52.2281C42.2949 52.9126 43.5647 53.6879 44.8387 54.4509C45.2954 54.7206 45.7595 54.9776 46.2249 55.2319C47.9185 56.2288 48.4746 57.1734 49.0524 59.0347C49.4861 60.4186 50.174 61.6929 50.8287 62.9828C51.5207 64.3806 51.5207 64.3806 51.3429 65.2496C50.8567 65.6572 50.8567 65.6572 50.2192 66.0851C46.8921 68.3846 44.4191 70.9961 42.0437 74.2468C39.1814 73.2649 36.5346 72.0396 33.9054 70.5376C33.6373 70.3868 33.3692 70.236 33.093 70.0807C30.2362 68.4123 27.8039 66.1432 26.8061 62.9023C25.7286 58.2699 28.229 53.7403 32.4792 51.7749Z" fill="#6CC646"/>
<path d="M74.4505 46.4744C76.5787 42.566 79.0484 39.4338 83.4612 38.0562C86.5831 37.653 88.974 38.5899 91.5133 40.3596C93.3817 41.9834 94.3205 44.1429 94.5461 46.5977C94.5517 49.9024 93.4537 52.332 91.8194 55.159C91.6548 55.4439 91.4903 55.7289 91.3208 56.0225C88.6259 60.6267 88.6259 60.6267 86.7862 62.258C86.6583 62.1883 86.5303 62.1186 86.3985 62.0468C82.8976 60.2794 78.6455 59.3052 74.7298 59.1602C74.2343 59.1158 74.2343 59.1158 73.5746 58.7349C73.5003 58.1515 73.5003 58.1515 73.5 57.3725C73.482 56.2893 73.4189 55.2592 73.2516 54.1884C72.7608 51.0445 72.9453 49.3029 74.4505 46.4744Z" fill="#6CC646"/>
<path d="M60.0526 153.25C60.9238 152.567 61.9069 152.315 62.9553 152.025C63.1442 151.972 63.333 151.919 63.5275 151.865C63.9257 151.755 64.3242 151.645 64.7229 151.537C65.3334 151.37 65.9414 151.196 66.5498 151.021C66.9373 150.915 67.325 150.809 67.7128 150.703C67.8945 150.65 68.0762 150.597 68.2633 150.542C69.5211 150.213 69.5211 150.213 70.224 150.622C70.6908 151.215 71.1244 151.811 71.5388 152.442C71.7089 152.697 71.879 152.953 72.0543 153.217C72.326 153.627 72.326 153.627 72.6032 154.046C77.1477 160.821 82.8369 168.487 90.02 172.643C90.1697 172.729 90.3195 172.816 90.4737 172.905C90.7883 173.087 91.1032 173.268 91.4184 173.449C91.8958 173.723 92.3717 174 92.8476 174.276C94.3096 175.121 95.7491 175.935 97.3317 176.532C94.1178 178.578 90.7112 179.01 86.9945 178.187C82.351 177.147 78.1297 174.277 74.6807 171.077C74.4702 170.882 74.4702 170.882 74.2554 170.684C68.7247 165.505 64.2966 159.491 60.0526 153.25Z" fill="#FD9A1F"/>
<path d="M62.7654 81.5196C64.4129 80.5981 66.2893 80.1469 68.1019 79.6715C68.3602 79.6008 68.6185 79.5302 68.8846 79.4574C69.1353 79.3907 69.386 79.324 69.6444 79.2553C69.8688 79.1956 70.0932 79.1359 70.3244 79.0743C71.5341 78.8368 72.2458 78.7898 73.341 79.3945C74.3196 80.2118 74.5493 81.1703 74.8216 82.3784C74.8727 82.5736 74.9238 82.7688 74.9765 82.97C75.4556 84.9112 75.3952 86.2683 74.3752 88.0393C73.3792 89.6708 72.591 90.555 70.7631 91.1098C68.4095 91.6614 66.8576 91.0818 64.8171 89.846C62.8268 88.3976 62.4771 85.6951 61.9696 83.4057C62.0202 82.5628 62.2481 82.1965 62.7654 81.5196Z" fill="#030201"/>
<path d="M81.8514 82.6438C82.7145 81.6834 83.7526 81.4844 84.9701 81.146C85.2817 81.0357 85.5933 80.9253 85.9144 80.8117C86.7043 80.6813 86.7043 80.6813 87.4433 80.9248C88.2389 81.6353 88.3944 82.1196 88.4883 83.1773C87.9278 84.1075 87.547 84.5219 86.5327 84.9319C86.2287 85.0021 85.9248 85.0723 85.6117 85.1446C85.3063 85.2185 85.001 85.2924 84.6864 85.3686C83.7967 85.5411 83.4994 85.5532 82.6727 85.1886C82.0252 84.7232 82.0252 84.7232 81.7093 84.0643C81.6535 83.3358 81.6535 83.3358 81.8514 82.6438Z" fill="#F4F2EF"/>
<path d="M50.6218 91.0001C51.5011 90.0571 52.5367 89.8487 53.7542 89.5103C54.0658 89.3999 54.3774 89.2896 54.6985 89.1759C55.4884 89.0456 55.4884 89.0456 56.2274 89.289C57.023 89.9996 57.1785 90.4838 57.2724 91.5415C56.517 92.779 55.8538 93.1899 54.4645 93.5485C54.1719 93.6298 53.8793 93.7111 53.5779 93.7948C52.5228 93.9004 51.9585 93.7097 51.0293 93.2144C50.5012 92.369 50.3671 91.968 50.6218 91.0001Z" fill="#F4F2F0"/>
<path d="M50.5761 81.8118C51.3977 81.4056 51.7769 81.3867 52.6555 81.638C53.6164 82.5015 53.8367 83.5303 54.1533 84.7566C54.2028 84.9425 54.2524 85.1283 54.3034 85.3198C54.4696 86.0637 54.518 86.6182 54.3031 87.3536C53.6216 88.0499 53.0826 88.1759 52.122 88.2749C51.0301 87.6237 50.5263 87.0199 50.1788 85.7878C50.1379 85.6221 50.097 85.4564 50.0548 85.2856C50.005 85.1215 49.9551 84.9575 49.9038 84.7884C49.5663 83.504 49.7843 82.8531 50.5761 81.8118Z" fill="#060401"/>
<path d="M81.7919 73.4476C82.6135 73.0413 82.9927 73.0224 83.8713 73.2738C84.8322 74.1373 85.0525 75.1661 85.3691 76.3924C85.4186 76.5782 85.4682 76.764 85.5193 76.9555C85.6854 77.6995 85.7339 78.254 85.5189 78.9893C84.8374 79.6857 84.2985 79.8116 83.3378 79.9106C82.2459 79.2594 81.7422 78.6557 81.3947 77.4236C81.3537 77.2578 81.3128 77.0921 81.2706 76.9213C81.2208 76.7573 81.171 76.5932 81.1196 76.4241C80.7821 75.1398 81.0001 74.4888 81.7919 73.4476Z" fill="#050301"/>
<path d="M66.2156 84.6842C67.0599 84.0274 67.9288 83.8159 68.9566 83.5548C69.27 83.4741 69.5833 83.3935 69.9062 83.3105C70.1456 83.2506 70.3849 83.1908 70.6316 83.1292C71.1645 83.9022 71.4467 84.3758 71.4091 85.3372C70.9263 86.4878 70.7 86.9391 69.5866 87.51C68.5047 87.5695 67.9863 87.3829 67.0908 86.8043C66.4433 86.1957 66.3325 85.5408 66.2156 84.6842Z" fill="#444444"/>
<path d="M36.3076 103.479C36.8687 103.058 37.134 103.095 38.0418 103.014C39.0133 103.584 39.3929 103.949 39.7694 105.02C39.8377 105.361 39.9001 105.702 39.9573 106.044C40.0103 106.316 40.0103 106.316 40.0644 106.594C40.1649 107.114 40.2584 107.636 40.3494 108.158C40.6739 109.948 41.0927 111.698 41.5599 113.456C41.6186 113.678 41.6773 113.9 41.7378 114.129C42.0818 115.405 42.4752 116.637 42.9516 117.869C43.85 117.969 44.5456 117.86 45.4158 117.624C45.8153 117.518 45.8153 117.518 46.2228 117.409C46.6581 117.29 46.6581 117.29 47.1021 117.168C47.4092 117.086 47.7163 117.003 48.0327 116.918C48.6997 116.739 49.3664 116.558 50.0329 116.377C51.0861 116.091 52.1401 115.807 53.1942 115.523C54.8605 115.075 56.5264 114.625 58.1921 114.174C61.1773 113.366 64.1629 112.559 67.1491 111.755C68.1974 111.473 69.2455 111.189 70.2933 110.905C71.0967 110.687 71.9004 110.471 72.704 110.254C72.9953 110.174 73.2866 110.095 73.5868 110.013C73.8515 109.942 74.1162 109.871 74.389 109.798C74.7351 109.704 74.7351 109.704 75.0882 109.608C75.8405 109.436 76.1597 109.492 76.8805 109.789C77.5338 110.276 77.5338 110.276 77.8883 111.122C77.9985 112.01 77.9985 112.01 77.7965 112.577C77.1754 113.341 76.5685 113.454 75.628 113.724C75.4534 113.775 75.2787 113.827 75.0988 113.879C74.5409 114.042 73.9815 114.197 73.4215 114.352C73.0678 114.451 72.7141 114.551 72.3603 114.65C71.2491 114.96 70.1349 115.258 69.0203 115.556C68.6115 115.665 68.2028 115.775 67.794 115.885C66.9456 116.112 66.0971 116.339 65.2484 116.566C64.1662 116.855 63.0844 117.145 62.0028 117.436C61.162 117.662 60.3211 117.887 59.48 118.112C59.0811 118.219 58.6822 118.326 58.2834 118.433C56.3292 118.959 54.3882 119.463 52.391 119.801C51.36 120.049 50.3706 120.363 49.3715 120.715C48.4102 121.049 47.5037 121.237 46.4947 121.381C46.2208 121.489 45.9468 121.597 45.6646 121.708C45.4388 121.795 45.213 121.883 44.9804 121.973C44.8353 121.889 44.6901 121.805 44.5406 121.719C44.8919 123.173 45.4004 124.529 45.9667 125.914C46.0629 126.149 46.159 126.384 46.2581 126.627C47.207 128.916 48.2629 131.146 49.3594 133.368C49.7408 134.143 50.1177 134.919 50.4945 135.696C52.0787 138.948 53.7336 142.143 55.5266 145.284C55.8119 145.791 56.0873 146.301 56.3586 146.815C56.5082 147.094 56.6578 147.372 56.8119 147.659C56.9342 147.892 57.0564 148.124 57.1824 148.364C57.7114 149.06 57.9448 149.148 58.8103 149.307C59.6655 149.182 60.4843 148.943 61.3145 148.706C61.6919 148.603 61.6919 148.603 62.0769 148.498C62.6228 148.348 63.1682 148.197 63.7133 148.044C64.5759 147.802 65.4395 147.566 66.3036 147.33C68.4495 146.743 70.5934 146.15 72.737 145.555C74.5482 145.053 76.3604 144.554 78.174 144.06C79.0253 143.826 79.8751 143.588 80.725 143.349C81.2469 143.207 81.7688 143.064 82.2908 142.922C82.645 142.821 82.645 142.821 83.0063 142.717C84.0104 142.449 84.6523 142.301 85.6818 142.52C86.2698 142.879 86.2698 142.879 86.6401 143.698C86.7345 144.613 86.7345 144.613 86.5423 145.327C85.2516 146.7 82.8217 146.989 81.034 147.46C80.6997 147.549 80.6997 147.549 80.3586 147.64C79.8801 147.768 79.4015 147.895 78.9228 148.022C78.1657 148.222 77.4089 148.424 76.6522 148.625C75.0491 149.053 73.4456 149.479 71.842 149.905C69.976 150.4 68.1101 150.897 66.2446 151.394C65.4981 151.593 64.7514 151.791 64.0046 151.989C63.55 152.11 63.0955 152.231 62.6409 152.352C62.4326 152.407 62.2242 152.462 62.0096 152.518C60.9858 152.776 60.9858 152.776 60.0525 153.25C60.2106 153.423 60.3687 153.596 60.5316 153.774C61.062 154.387 61.5207 155.001 61.9753 155.67C65.7685 161.188 69.9125 166.272 74.8075 170.857C74.964 171.004 75.1205 171.151 75.2818 171.302C79.8699 175.518 85.5508 178.512 91.8751 178.366C95.4741 178.111 98.7909 175.817 101.153 173.195C103.705 170.019 105.427 166.143 106.717 162.307C106.781 162.12 106.845 161.932 106.912 161.739C108.356 157.424 109.192 152.749 109.661 148.228C109.679 148.056 109.697 147.883 109.716 147.706C109.764 147.228 109.808 146.75 109.852 146.272C110.013 145.393 110.25 144.847 110.766 144.122C111.475 143.688 111.475 143.688 112.281 143.53C113.124 143.816 113.124 143.816 113.82 144.419C114.417 146.332 113.98 148.242 113.68 150.184C113.653 150.363 113.626 150.543 113.598 150.728C113.14 153.775 112.581 156.783 111.784 159.761C111.615 160.41 111.467 161.06 111.32 161.714C110.446 165.218 108.721 168.247 106.948 171.365C106.825 171.585 106.702 171.805 106.575 172.031C103.908 176.762 100.507 180.378 95.1414 181.978C89.6423 183.483 84.4705 182.09 79.6507 179.352C76.8756 177.751 74.2358 176.072 71.8967 173.868C71.716 173.699 71.5353 173.53 71.3491 173.356C66.9052 169.154 63.0149 164.463 59.5335 159.441C59.1337 158.866 58.7282 158.295 58.322 157.725C56.3093 154.877 54.5077 151.929 52.7725 148.905C52.4339 148.315 52.0923 147.727 51.7494 147.14C48.9209 142.261 46.3745 137.227 44.1482 132.047C43.9734 131.644 43.8253 131.312 43.6235 130.839C40.0613 122.49 35.4595 111.928 35.5313 106.348C35.547 105.129 35.3786 104.175 36.3076 103.479Z" fill="#020100"/>
</g>
</g>
<defs>
<clipPath id="clip0_757_4950">
<rect width="200" height="200" fill="white"/>
</clipPath>
<clipPath id="clip1_757_4950">
<rect width="130" height="130" fill="white" transform="translate(39 76) rotate(-30)"/>
</clipPath>
<clipPath id="clip2_757_4950">
<rect width="130" height="130" fill="white" transform="translate(-16 124) rotate(-60)"/>
</clipPath>
</defs>
</svg>
