<svg width="200" height="200" viewBox="0 0 200 200" fill="none" xmlns="http://www.w3.org/2000/svg">
<g clip-path="url(#clip0_757_5099)">
<path d="M75.6582 55.7452C76.0386 55.6872 76.4199 55.6343 76.8019 55.5875C77.0512 55.5463 77.0512 55.5463 77.3054 55.5043C80.3348 55.1062 83.5336 56.5228 85.9675 58.2331C86.8311 58.8967 87.6578 59.6022 88.4763 60.3203C88.4862 60.1119 88.4962 59.9034 88.5065 59.6887C88.8083 55.1671 90.1924 51.5213 93.6325 48.4728C95.9709 46.5524 99.2559 45.9958 102.201 46.2796C105.748 46.8977 108.189 48.6103 110.368 51.4167C112.12 54.0861 112.622 57.1946 112.771 60.3203C113.066 60.0717 113.066 60.0717 113.367 59.8181C116.356 57.3375 119.622 55.2934 123.657 55.4297C126.767 55.7318 128.955 56.8867 131.141 59.0484C131.357 59.2553 131.357 59.2553 131.579 59.4665C133.617 61.481 134.715 64.0847 134.789 66.9561C134.635 71.5403 132.207 75.1519 129.015 78.2385C127.336 79.8047 125.487 81.1818 123.657 82.5646C123.778 82.6802 123.9 82.7958 124.025 82.915C125.104 83.9647 126.037 85.0199 126.871 86.272C126.984 86.4402 127.097 86.6084 127.213 86.7816C130.972 92.5244 132.836 98.9828 133.596 105.755C133.614 105.917 133.633 106.079 133.652 106.245C134.093 110.299 134.195 114.543 133.684 118.591C133.599 119.301 133.547 120.005 133.501 120.717C133.133 126.342 132.083 131.957 130.914 137.465C130.855 137.744 130.855 137.744 130.795 138.028C130.194 140.828 129.499 143.594 128.725 146.351C128.515 147.1 128.316 147.85 128.133 148.606C127.745 150.198 127.424 151.482 126.181 152.611C125.55 152.788 125.55 152.788 125.077 152.768C125.014 152.968 125.014 152.968 124.95 153.171C124.894 153.344 124.838 153.517 124.781 153.695C124.726 153.867 124.671 154.039 124.615 154.216C124.446 154.661 124.446 154.661 124.13 154.977C124.316 155.123 124.501 155.27 124.692 155.421C125.235 156.081 125.235 156.081 125.269 156.795C125.081 158.26 124.395 159.602 123.805 160.942C123.741 161.089 123.677 161.235 123.612 161.386C122.53 163.868 121.372 166.294 120.018 168.64C119.726 169.152 119.453 169.671 119.179 170.192C117.641 172.968 115.487 175.146 113.274 177.389C113.12 177.548 112.965 177.706 112.806 177.87C109.466 181.279 105.757 183.575 100.839 183.712C95.8296 183.739 91.7568 181.38 88.2886 177.96C86.2973 175.97 84.4386 173.945 82.9546 171.542C82.8397 171.357 82.7247 171.173 82.6063 170.983C79.7899 166.406 77.5549 161.54 75.7422 156.485C75.5336 155.906 75.3192 155.33 75.1042 154.753C74.0436 151.878 73.1848 148.967 72.3998 146.005C72.2466 145.428 72.0903 144.851 71.9329 144.274C70.6418 139.49 69.6252 134.639 68.9139 129.735C68.857 129.354 68.8001 128.972 68.7432 128.591C66.3138 112.13 66.3138 112.13 67.8096 104.651C68.3812 103.973 68.8354 103.596 69.7027 103.389C69.8848 102.755 70.0224 102.158 70.0182 101.496C69.4923 100.917 69.4923 100.917 68.9139 100.392C68.4984 95.1241 72.486 88.4146 75.6976 84.4578C76.0243 84.1169 76.3559 83.7808 76.6922 83.4496C76.9454 83.1993 76.9454 83.1993 77.2037 82.9441C77.3314 82.8189 77.4591 82.6936 77.5907 82.5646C77.4148 82.4317 77.4148 82.4317 77.2353 82.2961C72.5123 78.7083 67.6525 74.8602 66.6177 68.6385C65.9266 62.8548 69.8794 57.0334 75.6582 55.7452Z" fill="#FEA83E"/>
<path d="M99.1549 76.334C99.5393 76.3064 99.9238 76.2801 100.308 76.2542C100.23 76.4885 100.23 76.4885 100.151 76.7275C99.5364 77.0184 98.9217 77.2894 98.2969 77.5557C93.3437 79.7823 89.0201 83.7065 86.2676 88.4018C86.6581 88.4799 86.6581 88.4799 87.0564 88.5596C87.5692 88.8948 87.5692 88.8948 88.003 89.5061C88.1534 90.2968 88.1681 91.0694 88.1608 91.8726C88.1606 92.0416 88.1604 92.2106 88.1601 92.3847C88.132 93.0539 88.047 93.5356 87.6973 94.1108C86.9605 94.5469 86.4744 94.5312 85.6366 94.3967C85.0272 93.8504 84.7259 93.4548 84.6333 92.6293C84.6311 92.1663 84.6585 91.7034 84.69 91.2415C83.8791 92.6546 83.2442 94.072 82.7081 95.6095C82.5965 95.928 82.5965 95.928 82.4826 96.2528C80.3147 102.59 79.7057 109.541 80.0749 116.209C80.1051 116.773 80.115 117.338 80.115 117.903C77.1995 117.903 74.2841 117.903 71.2803 117.903C70.1662 114.561 70.6199 109.865 71.069 106.398C71.1212 105.772 71.1031 105.263 70.9648 104.651C70.6032 104.211 70.6032 104.211 70.176 103.862C70.0198 103.706 69.8636 103.55 69.7027 103.389C69.7255 102.929 69.7255 102.929 69.8309 102.413C69.8645 102.242 69.898 102.07 69.9326 101.893C69.9609 101.762 69.9891 101.631 70.0182 101.496C70.2135 101.457 70.2135 101.457 70.4126 101.417C71.1883 101.085 71.7192 100.58 72.2269 99.9184C72.4456 99.3094 72.6037 98.7686 72.7396 98.1436C75.9558 85.3802 86.261 77.3213 99.1549 76.334Z" fill="#FD9B1F"/>
<path d="M70.8357 117.336C71.1512 117.02 71.1512 117.02 71.8809 117C72.1607 117.007 72.4405 117.013 72.7288 117.02C72.9631 117.014 73.1974 117.007 73.4388 117C73.9909 117.02 73.9909 117.02 74.3064 117.336C74.5053 117.259 74.5053 117.259 74.7082 117.18C75.297 117.007 75.7844 116.978 76.3968 116.981C76.5896 116.98 76.7824 116.979 76.981 116.978C77.4617 117.02 77.4617 117.02 77.7772 117.336C77.9041 117.28 78.031 117.225 78.1617 117.168C78.8652 116.983 79.4299 117.07 80.1436 117.178C80.151 117.319 80.1584 117.46 80.6104 121.643C80.6995 123.161 80.8705 124.653 81.0909 126.156C81.1428 126.513 81.1428 126.513 81.1957 126.877C82.0754 132.827 83.3405 138.641 84.8206 144.467C85.0953 145.551 85.3661 146.635 85.6364 147.72C83.9727 147.871 82.3136 147.932 80.6432 147.95C80.3412 147.955 80.0392 147.961 79.7373 147.97C79.2963 147.982 78.8551 147.987 78.4139 147.991C78.1535 147.996 77.8931 148.001 77.6248 148.006C76.9595 147.878 76.9595 147.878 76.499 147.399C76.1632 146.759 75.9553 146.186 75.7751 145.487C75.7082 145.229 75.6413 144.971 75.5724 144.705C75.4684 144.284 75.4684 144.284 75.3622 143.855C75.3256 143.709 75.289 143.564 75.2514 143.414C73.5928 136.804 72.2883 130.05 71.5291 123.277C71.4741 122.796 71.4096 122.315 71.327 121.837C71.3038 121.608 70.8594 117.57 70.8357 117.336Z" fill="#FC9A1F"/>
<path d="M75.6582 55.7454C76.0387 55.6874 76.42 55.6345 76.802 55.5877C77.0512 55.5465 77.0512 55.5465 77.3055 55.5045C80.3349 55.1064 83.5336 56.523 85.9675 58.2332C86.8311 58.8969 87.6578 59.6024 88.4763 60.3205C88.4863 60.1121 88.4962 59.9036 88.5065 59.6888C88.8084 55.1673 90.1925 51.5215 93.6325 48.473C95.971 46.5526 99.2559 45.996 102.202 46.2798C105.748 46.8979 108.19 48.6105 110.368 51.4169C112.12 54.0863 112.622 57.1948 112.772 60.3205C113.066 60.0719 113.066 60.0719 113.367 59.8183C116.356 57.3376 119.622 55.2936 123.657 55.4299C126.767 55.732 128.955 56.8869 131.141 59.0486C131.358 59.2555 131.358 59.2555 131.579 59.4667C133.617 61.4812 134.715 64.0849 134.789 66.9563C134.635 71.5405 132.208 75.1521 129.015 78.2387C127.336 79.8049 125.487 81.182 123.657 82.5648C123.778 82.6804 123.9 82.796 124.025 82.9151C125.104 83.9649 126.037 85.0201 126.871 86.2722C126.984 86.4404 127.097 86.6086 127.213 86.7818C130.972 92.5246 132.836 98.983 133.596 105.756C133.614 105.917 133.633 106.079 133.652 106.246C134.093 110.3 134.195 114.543 133.684 118.592C133.599 119.301 133.547 120.005 133.501 120.718C133.133 126.342 132.083 131.957 130.914 137.466C130.855 137.744 130.855 137.744 130.795 138.028C130.194 140.829 129.499 143.594 128.725 146.351C128.515 147.1 128.316 147.85 128.133 148.606C127.744 150.204 127.408 151.461 126.181 152.611C125.392 152.768 125.392 152.768 124.97 152.552C124.764 152.391 124.764 152.391 124.554 152.226C124.415 152.122 124.276 152.018 124.132 151.911C123.815 151.506 123.815 151.506 123.726 150.975C123.854 149.917 124.176 148.942 124.495 147.927C125.188 145.656 125.789 143.371 126.349 141.065C126.387 140.909 126.425 140.753 126.464 140.593C126.9 138.887 126.9 138.887 127.208 137.157C127.286 136.677 127.286 136.677 127.601 136.361C125.931 136.228 124.274 136.182 122.598 136.188C122.347 136.188 122.095 136.189 121.835 136.189C121.292 136.189 120.75 136.19 120.207 136.192C119.35 136.194 118.492 136.195 117.634 136.196C115.816 136.197 113.998 136.2 112.18 136.204C110.066 136.207 107.953 136.21 105.839 136.212C104.993 136.213 104.146 136.215 103.299 136.217C102.784 136.218 102.269 136.218 101.753 136.219C101.517 136.22 101.28 136.221 101.036 136.221C100.821 136.221 100.606 136.221 100.385 136.221C100.198 136.222 100.01 136.222 99.8175 136.223C99.1562 136.195 98.9086 136.062 98.3857 135.642C97.942 135.099 97.942 135.099 97.8237 134.468C97.942 133.837 97.942 133.837 98.2674 133.295C99.7693 132.317 102.206 132.714 103.949 132.727C104.207 132.729 104.465 132.73 104.731 132.731C105.287 132.734 105.843 132.737 106.399 132.74C107.429 132.746 108.458 132.75 109.488 132.753C109.638 132.753 109.788 132.754 109.942 132.754C110.093 132.755 110.245 132.755 110.4 132.756C112.443 132.763 114.486 132.771 116.529 132.784C118.06 132.793 119.591 132.799 121.122 132.802C121.706 132.803 122.289 132.807 122.873 132.811C123.685 132.818 124.497 132.819 125.31 132.82C125.552 132.823 125.794 132.826 126.044 132.829C126.264 132.828 126.485 132.827 126.712 132.827C127 132.828 127 132.828 127.293 132.829C127.783 132.778 127.783 132.778 128.05 132.382C128.34 131.683 128.436 130.952 128.548 130.209C128.588 129.956 128.588 129.956 128.628 129.698C128.709 129.185 128.786 128.671 128.863 128.158C128.927 127.738 128.927 127.738 128.992 127.31C130.02 120.329 130.921 112.948 129.967 105.913C129.945 105.738 129.922 105.562 129.898 105.381C128.694 96.3647 125.088 87.6774 117.808 81.9116C113.963 79.0274 109.341 77.2305 104.568 76.7277C104.41 76.711 104.252 76.6944 104.09 76.6773C96.7726 75.9363 89.7372 77.4296 83.7435 81.776C83.5674 81.8931 83.3913 82.0103 83.2098 82.131C80.9298 83.8644 78.8341 86.169 77.2753 88.5597C77.1893 88.6916 77.1032 88.8235 77.0146 88.9594C75.0742 91.9823 73.5594 95.2894 72.7396 98.7945C72.4485 100.01 72.1718 100.634 71.1226 101.338C70.4718 101.476 70.4718 101.476 69.8605 101.338C69.3083 100.964 69.3083 100.964 68.9139 100.392C68.5767 95.0729 72.446 88.4641 75.6977 84.4579C76.0243 84.1171 76.356 83.781 76.6923 83.4497C76.9455 83.1995 76.9455 83.1995 77.2037 82.9443C77.3315 82.819 77.4592 82.6938 77.5908 82.5648C77.4149 82.4319 77.4149 82.4319 77.2354 82.2963C72.5124 78.7085 67.6526 74.8604 66.6178 68.6387C65.9266 62.855 69.8794 57.0335 75.6582 55.7454Z" fill="#010100"/>
<path d="M98.5729 49.9081C100.845 49.5344 103.391 49.7017 105.357 51.0124C107.716 52.9011 108.786 55.6321 109.143 58.585C109.326 61.3998 109.083 64.1641 108.67 66.9463C108.644 67.1218 108.619 67.2973 108.593 67.4781C108.42 68.6702 108.234 69.8596 108.039 71.0481C107.998 71.3031 107.957 71.5581 107.915 71.8209C107.878 72.0344 107.84 72.2479 107.802 72.4679C107.771 72.6469 107.74 72.8259 107.708 73.0102C107.565 73.4145 107.565 73.4145 106.934 73.73C106.356 73.6629 106.356 73.6629 105.643 73.523C101.803 72.867 97.8077 72.9361 93.9978 73.73C93.4771 72.6975 93.3155 71.6449 93.1302 70.5156C93.0964 70.3133 93.0625 70.1109 93.0277 69.9024C92.5142 66.7645 92.1848 63.6568 92.1047 60.4781C92.0922 60.1642 92.0922 60.1642 92.0794 59.844C91.9642 55.3793 94.0546 51.115 98.5729 49.9081Z" fill="#8CD26F"/>
<path d="M77.2654 58.9499C79.7536 58.7324 82.3936 59.7886 84.3745 61.267C85.3378 62.1478 86.2393 63.0946 87.147 64.0319C87.4733 64.3647 87.8088 64.6884 88.146 65.0101C89.3567 66.2414 89.6139 67.1696 89.6811 68.8808C89.7344 70.1541 90.0284 71.392 90.2908 72.6357C90.5602 73.9796 90.5602 73.9796 90.2116 74.6767C89.7063 74.9121 89.7063 74.9121 89.0679 75.1302C85.7211 76.3253 83.0281 77.9794 80.2727 80.1983C78.0666 78.714 76.0988 77.072 74.2088 75.1992C74.0155 75.0103 73.8223 74.8213 73.6232 74.6266C71.5778 72.5609 70.0295 70.0818 69.9196 67.1041C70.0586 62.9272 73.211 59.6513 77.2654 58.9499Z" fill="#6CC646"/>
<path d="M114.095 63.9964C116.79 61.1631 119.598 59.0663 123.657 58.9006C126.398 59.2683 128.215 60.6073 129.967 62.6869C131.184 64.49 131.49 66.5364 131.123 68.6713C130.376 71.4774 128.892 73.2899 126.861 75.3176C126.657 75.5221 126.453 75.7265 126.242 75.9371C122.907 79.2321 122.907 79.2321 120.975 80.1983C120.882 80.1101 120.79 80.0218 120.694 79.9309C118.124 77.6346 114.737 75.8407 111.447 74.8271C111.036 74.6767 111.036 74.6767 110.563 74.2034C110.632 73.6913 110.632 73.6913 110.809 73.0301C111.04 72.1066 111.221 71.2179 111.323 70.2711C111.621 67.491 112.174 66.0547 114.095 63.9964Z" fill="#6CC646"/>
<path d="M77.5906 151.349C78.4852 150.968 79.3771 150.977 80.3329 150.969C80.5052 150.967 80.6774 150.965 80.8549 150.964C81.218 150.961 81.581 150.958 81.9441 150.957C82.5002 150.954 83.056 150.944 83.612 150.934C83.9651 150.932 84.3183 150.931 84.6714 150.93C84.8377 150.926 85.004 150.922 85.1754 150.918C86.3177 150.925 86.3177 150.925 86.8212 151.432C87.0826 152.041 87.3151 152.645 87.5234 153.275C87.6096 153.531 87.6958 153.787 87.7846 154.05C87.9219 154.46 87.9219 154.46 88.062 154.879C90.3783 161.663 93.4638 169.463 98.6154 174.624C98.7227 174.732 98.83 174.839 98.9406 174.95C99.1663 175.176 99.3924 175.401 99.6188 175.627C99.9616 175.968 100.303 176.311 100.644 176.654C101.692 177.703 102.729 178.721 103.937 179.588C100.743 180.594 97.7538 180.186 94.7866 178.641C91.0817 176.703 88.1516 173.307 85.9519 169.807C85.8175 169.594 85.8175 169.594 85.6804 169.376C82.1639 163.723 79.7733 157.611 77.5906 151.349Z" fill="#FD9A1F"/>
<path d="M96.2065 116.566C97.8144 116.159 99.5097 116.203 101.156 116.211C101.392 116.21 101.627 116.209 101.869 116.208C102.097 116.208 102.325 116.208 102.56 116.209C102.764 116.209 102.968 116.209 103.178 116.21C104.259 116.283 104.874 116.405 105.666 117.168C106.311 118.084 106.288 118.95 106.244 120.037C106.243 120.214 106.242 120.392 106.241 120.574C106.206 122.331 105.846 123.469 104.578 124.74C103.361 125.898 102.491 126.47 100.814 126.525C98.6906 126.458 97.5052 125.613 96.0543 124.1C94.6944 122.418 95.0123 120.045 95.1022 117.986C95.3369 117.282 95.6136 117.023 96.2065 116.566Z" fill="#030201"/>
<path d="M112.15 121.861C113.101 121.242 114.027 121.309 115.138 121.299C115.427 121.276 115.717 121.253 116.015 121.23C116.715 121.299 116.715 121.299 117.287 121.674C117.801 122.458 117.823 122.904 117.662 123.823C116.975 124.485 116.557 124.75 115.603 124.868C115.329 124.858 115.055 124.848 114.773 124.839C114.497 124.832 114.221 124.825 113.937 124.818C113.142 124.762 112.887 124.705 112.268 124.208C111.825 123.665 111.825 123.665 111.706 123.034C111.825 122.403 111.825 122.403 112.15 121.861Z" fill="#F4F2EF"/>
<path d="M83.7434 121.851C84.7041 121.251 85.6305 121.309 86.7408 121.299C87.0304 121.276 87.32 121.253 87.6184 121.23C88.3184 121.299 88.3184 121.299 88.8903 121.674C89.404 122.458 89.4258 122.904 89.265 123.823C88.3424 124.702 87.686 124.9 86.4253 124.888C86.1585 124.89 85.8917 124.893 85.6168 124.895C84.6973 124.745 84.2616 124.455 83.5856 123.823C83.3297 122.986 83.307 122.615 83.7434 121.851Z" fill="#F4F2F0"/>
<path d="M85.7943 114.042C86.584 113.884 86.9101 113.954 87.5987 114.367C88.2179 115.319 88.1709 116.242 88.1607 117.355C88.1605 117.524 88.1603 117.693 88.1601 117.867C88.1319 118.536 88.0469 119.018 87.6973 119.593C86.9604 120.029 86.4743 120.013 85.6365 119.879C84.8578 119.078 84.5675 118.451 84.5528 117.326C84.5558 117.176 84.5587 117.026 84.5618 116.872C84.5568 116.721 84.5518 116.57 84.5467 116.415C84.5523 115.248 84.8854 114.745 85.7943 114.042Z" fill="#060401"/>
<path d="M114.191 114.042C114.981 113.884 115.307 113.954 115.996 114.367C116.615 115.319 116.568 116.242 116.558 117.355C116.557 117.524 116.557 117.693 116.557 117.867C116.529 118.536 116.444 119.018 116.094 119.593C115.357 120.029 114.871 120.013 114.033 119.879C113.255 119.078 112.965 118.451 112.95 117.326C112.953 117.176 112.956 117.026 112.959 116.872C112.954 116.721 112.949 116.57 112.944 116.415C112.949 115.248 113.282 114.745 114.191 114.042Z" fill="#050301"/>
<path d="M98.4151 120.037C99.2811 119.672 100.067 119.69 100.998 119.702C101.283 119.705 101.567 119.707 101.86 119.71C102.077 119.714 102.294 119.718 102.517 119.722C102.793 120.499 102.925 120.965 102.675 121.772C102.003 122.639 101.709 122.971 100.634 123.202C99.7018 123.007 99.3043 122.73 98.6758 122.036C98.2647 121.372 98.3196 120.791 98.4151 120.037Z" fill="#444444"/>
<path d="M68.7561 103.705C69.3279 103.476 69.7765 103.442 70.3337 103.705C71.1553 104.093 71.2679 104.805 71.3437 105.801C71.3244 106.105 71.2997 106.409 71.2704 106.712C71.2535 106.955 71.2535 106.955 71.2362 107.203C71.2032 107.668 71.164 108.131 71.1225 108.595C70.9908 110.188 70.9482 111.77 70.945 113.368C70.9443 113.57 70.9435 113.772 70.9428 113.98C70.9447 115.14 71.0015 116.086 71.1225 117.43C71.2505 118.853 71.3947 120.173 71.5357 121.595C71.6856 123.108 71.6862 123.64 71.8521 124.943C71.8802 125.165 71.9083 125.386 71.9373 125.615C72.222 127.774 72.6111 129.907 73.0364 132.042C73.1839 132.786 73.3273 133.531 73.4704 134.276C74.0755 137.396 74.7534 140.484 75.5608 143.559C75.6878 144.053 75.8054 144.549 75.9188 145.047C75.9824 145.318 76.0461 145.588 76.1117 145.866C76.1625 146.092 76.2133 146.317 76.2657 146.549C76.5564 147.26 76.7345 147.388 77.4329 147.72C78.1873 147.808 78.9366 147.792 79.6951 147.779C80.0389 147.777 80.0389 147.777 80.3896 147.776C80.887 147.773 81.3844 147.768 81.8817 147.763C82.6687 147.754 83.4557 147.749 84.2427 147.746C86.1974 147.736 88.152 147.72 90.1066 147.703C91.7582 147.688 93.4098 147.677 95.0615 147.67C95.8371 147.665 96.6126 147.656 97.3883 147.647C97.8636 147.645 98.339 147.642 98.8144 147.641C99.1382 147.635 99.1382 147.635 99.4684 147.629C100.382 147.63 100.96 147.65 101.784 148.071C102.201 148.509 102.201 148.509 102.33 149.288C102.201 150.087 102.201 150.087 101.876 150.649C100.468 151.52 98.34 151.213 96.7157 151.206C96.4116 151.206 96.4116 151.206 96.1014 151.206C95.6663 151.205 95.2312 151.204 94.7961 151.203C94.1079 151.201 93.4197 151.2 92.7315 151.199C91.2736 151.197 89.8157 151.194 88.3579 151.191C86.6613 151.187 84.9648 151.184 83.2683 151.182C82.5895 151.181 81.9107 151.179 81.2319 151.177C80.8185 151.176 80.4051 151.176 79.9917 151.175C79.8024 151.175 79.6131 151.174 79.4181 151.173C78.4905 151.159 78.4905 151.159 77.5907 151.349C77.6855 151.532 77.7803 151.714 77.878 151.903C78.1889 152.543 78.4386 153.169 78.6722 153.84C80.6367 159.387 82.9979 164.644 86.1098 169.649C86.2092 169.809 86.3087 169.969 86.4112 170.134C89.3465 174.756 93.4874 178.589 98.8884 179.903C102.001 180.505 105.338 179.313 107.939 177.624C110.827 175.509 113.171 172.611 115.138 169.649C115.235 169.504 115.332 169.36 115.432 169.211C117.639 165.877 119.412 162.099 120.838 158.369C120.893 158.226 120.948 158.084 121.004 157.938C121.154 157.543 121.3 157.148 121.446 156.752C121.782 156.043 122.108 155.633 122.71 155.135C123.41 154.928 123.41 154.928 124.13 154.977C124.781 155.411 124.781 155.411 125.235 156.081C125.306 157.841 124.501 159.363 123.805 160.942C123.741 161.089 123.677 161.235 123.612 161.386C122.53 163.868 121.372 166.294 120.017 168.641C119.726 169.152 119.453 169.671 119.179 170.192C117.641 172.968 115.487 175.146 113.274 177.389C113.12 177.548 112.965 177.707 112.806 177.87C109.466 181.279 105.757 183.575 100.839 183.713C95.8296 183.739 91.7567 181.38 88.2885 177.96C86.2972 175.97 84.4385 173.945 82.9545 171.542C82.8396 171.358 82.7246 171.173 82.6062 170.983C79.7898 166.406 77.5548 161.54 75.7421 156.485C75.5336 155.906 75.3192 155.33 75.1041 154.753C74.0435 151.878 73.1847 148.967 72.3997 146.006C72.2465 145.428 72.0903 144.851 71.9328 144.275C70.6417 139.49 69.6251 134.639 68.9138 129.735C68.857 129.354 68.8068 129.038 68.7431 128.591C67.6184 120.695 66.1147 110.683 67.4447 105.964C67.7353 104.932 67.8093 104.084 68.7561 103.705Z" fill="#020100"/>
</g>
<g clip-path="url(#clip1_757_5099)">
<path d="M100.797 28.6679C101.906 29.2637 102.761 30.0542 103.664 30.8875C103.82 31.031 103.977 31.1745 104.138 31.3223C104.468 31.6248 104.796 31.9277 105.125 32.2311C105.627 32.6949 106.133 33.1562 106.638 33.6174C106.958 33.9121 107.278 34.207 107.598 34.502C107.825 34.7083 107.825 34.7083 108.056 34.9188C108.196 35.0487 108.336 35.1786 108.479 35.3124C108.602 35.4255 108.725 35.5387 108.852 35.6553C109.402 36.2836 109.64 36.9181 109.575 37.7214C109.399 38.7894 108.785 39.3156 107.969 40.0507C107.716 40.2852 107.464 40.52 107.212 40.755C106.472 41.4422 105.727 42.1244 104.98 42.8046C105.367 44.0737 105.836 45.2869 106.386 46.503C106.501 46.7596 106.501 46.7596 106.617 47.0214C106.859 47.563 107.103 48.1041 107.346 48.6452C107.666 49.3577 107.985 50.0703 108.303 50.7831C108.417 51.0373 108.417 51.0373 108.533 51.2967C109.097 52.5591 109.641 53.827 110.16 55.1054C110.622 55.1486 110.622 55.1486 111.028 54.6751C111.217 54.4829 111.405 54.2897 111.592 54.0956C111.741 53.9433 111.741 53.9433 111.893 53.7879C112.18 53.4937 112.465 53.1982 112.75 52.9023C112.933 52.7127 112.933 52.7127 113.12 52.5193C113.648 51.968 114.167 51.4097 114.684 50.8498C115.854 49.5837 117.042 48.3396 118.273 47.1234C118.835 46.5502 118.835 46.5502 119.324 45.9257C119.268 45.3953 119.109 44.9631 118.926 44.457C118.776 42.6121 118.739 41.0759 119.922 39.4999C120.033 39.3333 120.144 39.1667 120.258 38.9951C121.594 37.7971 123.116 37.2421 124.94 37.0444C126.784 37.2116 128.37 37.6856 129.709 38.8961C130.998 40.3465 131.432 41.8837 131.277 43.7226C131.025 45.0298 130.478 46.0618 129.484 47.0273C129.291 47.1371 129.098 47.2469 128.899 47.3601C128.441 47.7189 128.441 47.7189 128.476 48.167C128.626 49.4387 128.852 50.6814 129.136 51.9334C129.179 52.1294 129.223 52.3253 129.267 52.5272C129.359 52.9372 129.45 53.3471 129.543 53.7569C129.684 54.3863 129.824 55.016 129.964 55.6458C130.053 56.0454 130.142 56.445 130.231 56.8445C130.294 57.1274 130.294 57.1274 130.359 57.4159C130.398 57.5895 130.437 57.763 130.477 57.9418C130.529 58.1712 130.529 58.1712 130.581 58.4052C130.666 58.7867 130.666 58.7867 130.879 59.1445C130.973 59.0762 131.067 59.008 131.164 58.9377C136.152 55.3232 136.152 55.3232 137.641 54.5329C138.025 54.3174 138.34 54.1219 138.648 53.8203C138.736 53.2826 138.747 52.9434 138.686 52.4204C138.588 50.6596 138.938 49.3655 140.168 47.9682C141.438 46.7469 143.028 46.1015 144.862 46.0634C146.747 46.0951 148.287 46.6956 149.606 47.9453C151.032 49.7657 151.271 51.5281 150.929 53.7249C150.48 55.0739 149.144 56.3363 147.85 57.0446C146.845 57.4621 146.134 57.5118 145.023 57.4921C144.999 57.6963 144.975 57.9006 144.95 58.111C144.826 59.023 144.619 59.9126 144.404 60.8096C144.361 60.9896 144.319 61.1696 144.275 61.3551C144.134 61.9506 143.992 62.5459 143.85 63.1412C143.75 63.5622 143.65 63.9833 143.55 64.4043C143.392 65.0685 143.235 65.7326 143.076 66.3967C142.745 67.7889 142.416 69.1815 142.089 70.5746C140.095 79.0774 140.095 79.0774 139.157 82.387C137.51 88.2825 137.184 93.8457 137.262 99.9094C137.264 100.065 137.265 100.221 137.267 100.381C137.275 101.117 137.287 101.852 137.309 102.588C137.313 102.85 137.317 103.112 137.322 103.374C137.331 103.713 137.331 103.713 137.34 104.059C137.235 104.809 136.969 105.193 136.457 105.777C135.473 106.382 134.512 106.355 133.358 106.355C133.21 106.355 133.062 106.356 132.909 106.357C132.421 106.358 131.933 106.359 131.445 106.359C131.105 106.36 130.765 106.36 130.425 106.361C129.713 106.362 129.001 106.362 128.289 106.362C127.377 106.362 126.466 106.365 125.554 106.368C124.852 106.37 124.15 106.37 123.448 106.37C123.111 106.37 122.775 106.371 122.439 106.373C121.969 106.374 121.499 106.374 121.029 106.373C120.891 106.374 120.752 106.375 120.61 106.376C119.831 106.371 119.216 106.307 118.527 105.961C118.129 105.41 118.129 105.41 118.129 104.859C116.88 104.859 115.631 104.859 114.344 104.859C114.278 105.102 114.212 105.344 114.145 105.594C113.752 106.038 113.556 106.142 112.949 106.328C112.678 106.345 112.405 106.351 112.133 106.352C111.966 106.352 111.799 106.353 111.627 106.353C111.444 106.353 111.261 106.353 111.072 106.353C110.877 106.353 110.682 106.353 110.481 106.354C109.826 106.355 109.17 106.355 108.514 106.355C108.046 106.355 107.577 106.356 107.108 106.357C105.832 106.358 104.556 106.359 103.28 106.359C102.483 106.359 101.686 106.359 100.889 106.36C98.2542 106.361 95.6189 106.362 92.9837 106.362C92.7705 106.362 92.7705 106.362 92.5531 106.362C92.4108 106.362 92.2685 106.362 92.1219 106.362C89.8169 106.362 87.5119 106.364 85.2069 106.366C82.8402 106.369 80.4735 106.37 78.1068 106.37C76.7781 106.37 75.4493 106.371 74.1206 106.373C72.8707 106.374 71.6208 106.374 70.3709 106.373C69.9121 106.373 69.4533 106.373 68.9945 106.374C68.3681 106.376 67.7419 106.375 67.1156 106.373C66.8432 106.375 66.8432 106.375 66.5654 106.376C65.5488 106.371 64.6976 106.293 63.7422 105.961C62.7377 104.986 62.7377 104.986 62.7575 104.254C62.7736 104.075 62.7898 103.896 62.8064 103.711C63.5562 94.1427 61.7159 85.2522 59.4217 75.9777C59.3848 75.8286 59.3479 75.6795 59.31 75.5258C58.5516 72.4593 57.7774 69.3964 56.984 66.3374C56.4701 64.3563 55.9648 62.3738 55.4802 60.3865C55.429 60.1786 55.3778 59.9707 55.325 59.7565C55.2788 59.5655 55.2327 59.3744 55.1852 59.1776C55.1447 59.0109 55.1042 58.8441 55.0624 58.6724C54.9766 58.2265 54.9766 58.2265 54.9766 57.4921C54.7876 57.5073 54.5986 57.5224 54.4038 57.538C52.9604 57.5273 51.7467 56.9667 50.7183 56.0578C49.208 54.5479 48.8697 53.1102 48.9191 51.1022C49.0167 49.6888 49.7449 48.4425 50.8677 47.4863C52.4408 46.399 54.0136 45.9546 55.9727 46.1093C57.7688 46.4117 59.0723 47.1588 60.2185 48.4616C61.0857 49.6222 61.4131 50.5034 61.1978 51.9159C61.1165 52.5921 61.0865 53.1756 61.3516 53.8203C62.2158 54.7823 63.4504 55.4099 64.5869 56.0647C65.5081 56.6107 66.3773 57.2199 67.2534 57.8249C67.5713 58.0404 67.8894 58.2558 68.2075 58.4711C68.8971 58.938 68.8971 58.938 69.1211 59.1445C69.6733 57.2409 70.1011 55.314 70.5299 53.3843C70.6532 52.8306 70.7784 52.2773 70.9036 51.724C70.9827 51.3695 71.0617 51.015 71.1405 50.6604C71.1966 50.4143 71.1966 50.4143 71.2537 50.1632C71.4314 49.3548 71.5891 48.591 71.5117 47.7617C71.2053 47.4201 71.2053 47.4201 70.7771 47.165C69.6533 46.3405 68.9961 45.2063 68.7227 43.9062C68.5218 42.0334 68.938 40.4412 70.2417 38.9721C71.6271 37.6602 73.0901 37.16 75.0634 37.0896C76.7468 37.1526 78.2191 37.7365 79.4805 38.7656C80.5926 40.0099 81.1453 41.1381 81.1241 42.7587C81.1246 42.8896 81.1251 43.0205 81.1257 43.1554C81.1184 43.8845 81.0325 44.4855 80.763 45.1684C80.623 45.5386 80.623 45.5386 80.6758 45.9257C81.1889 46.6232 81.8144 47.1776 82.4688 47.7617C82.8743 48.3222 82.9153 48.4205 82.8921 49.0468C82.8885 49.1718 82.8849 49.2967 82.8812 49.4255C82.8766 49.5429 82.872 49.6603 82.8672 49.7812C82.8672 50.5573 83.3295 50.9169 83.8633 51.468C83.9545 51.5706 84.0456 51.6732 84.1396 51.7789C84.6906 52.3556 84.6906 52.3556 85.4605 52.5822C85.8579 52.5681 86.2551 52.5517 86.6524 52.5351C87.1076 52.7646 87.1076 52.7646 87.4617 53.0859C87.5914 53.2016 87.7211 53.3173 87.8547 53.4366C88.4698 54.0395 89.0637 54.6549 89.6407 55.289C90.4108 53.7727 91.102 52.2328 91.7698 50.6762C91.9785 50.1904 92.1873 49.7046 92.3963 49.2189C92.4746 49.0366 92.4746 49.0366 92.5546 48.8506C92.9072 48.0326 93.2707 47.2194 93.6398 46.4077C93.7811 46.0935 93.7811 46.0935 93.9253 45.7731C94.1036 45.3774 94.2843 44.9826 94.4676 44.5888C94.586 44.3241 94.586 44.3241 94.7067 44.0539C94.7771 43.9005 94.8474 43.7472 94.9199 43.5891C95.0578 43.1763 95.0578 43.1763 94.8932 42.7997C94.5612 42.3577 94.1888 42.0077 93.7682 41.6349C93.6005 41.4841 93.4328 41.3332 93.2601 41.1777C92.9061 40.8628 92.5518 40.5482 92.197 40.234C92.0293 40.0829 91.8616 39.9317 91.6889 39.7761C91.4579 39.5711 91.4579 39.5711 91.2223 39.3619C90.7225 38.828 90.4711 38.3336 90.3932 37.6317C90.4608 36.8004 90.6355 36.2978 91.2533 35.6792C91.3793 35.5523 91.5053 35.4254 91.6352 35.2947C92.2606 34.6874 92.8921 34.087 93.534 33.4944C93.7404 33.3032 93.7404 33.3032 93.9511 33.1082C94.2392 32.8417 94.5277 32.5754 94.8164 32.3094C95.2581 31.9019 95.6982 31.493 96.1382 31.084C96.4197 30.8241 96.7013 30.5642 96.983 30.3045C97.1139 30.1825 97.2449 30.0605 97.3798 29.9348C97.5029 29.8219 97.6259 29.7091 97.7527 29.5928C97.86 29.4937 97.9673 29.3945 98.0778 29.2924C98.8766 28.6667 99.7651 28.4683 100.797 28.6679Z" fill="#020100"/>
<path d="M99.8008 31.7891C100.361 32.0241 100.768 32.2677 101.2 32.6698C101.312 32.7727 101.423 32.8756 101.538 32.9816C101.656 33.0922 101.774 33.2027 101.896 33.3166C102.018 33.4302 102.141 33.5438 102.267 33.6608C102.658 34.0229 103.047 34.3862 103.437 34.7495C103.702 34.9956 103.967 35.2416 104.232 35.4875C104.881 36.0896 105.529 36.693 106.176 37.2969C105.876 37.9487 105.464 38.3601 104.917 38.8531C104.749 39.0065 104.58 39.1598 104.407 39.3178C104.23 39.4764 104.054 39.635 103.872 39.7983C103.523 40.114 103.174 40.43 102.826 40.7464C102.671 40.886 102.516 41.0255 102.356 41.1693C101.751 41.7519 101.712 42.2299 101.724 43.0313C101.867 44.0872 102.366 45.0485 102.809 46.0233C102.917 46.2678 103.025 46.5124 103.132 46.7571C103.363 47.2794 103.595 47.8009 103.83 48.3218C104.201 49.1495 104.569 49.9787 104.936 50.8081C105.376 51.8015 105.817 52.7946 106.259 53.787C107.262 56.0385 108.25 58.2954 109.236 60.5535C109.512 61.1859 109.789 61.818 110.066 62.4501C110.951 64.4683 111.834 66.4872 112.712 68.5082C113.084 69.366 113.457 70.2235 113.831 71.081C114.086 71.6675 114.341 72.2543 114.595 72.8414C114.875 73.4869 115.155 74.1317 115.436 74.7765C115.56 75.0643 115.56 75.0643 115.687 75.3579C115.802 75.6221 115.802 75.6221 115.92 75.8916C116.02 76.1207 116.02 76.1207 116.121 76.3544C116.349 76.7951 116.575 77.1438 116.934 77.5039C117.62 77.583 118.098 77.6202 118.714 77.3088C119.049 76.7469 118.975 76.3036 118.926 75.668C118.742 75.1171 118.497 74.5983 118.241 74.073C118.112 73.8009 117.984 73.5286 117.856 73.2562C117.798 73.1374 117.741 73.0187 117.682 72.8964C117.528 72.539 117.424 72.1872 117.332 71.8125C117.489 71.7098 117.647 71.6071 117.809 71.5013C119.694 70.2679 121.556 69.0074 123.414 67.741C123.902 67.4094 124.389 67.0785 124.877 66.7479C126.351 65.7491 127.823 64.7479 129.285 63.7344C130.908 62.6097 132.542 61.5004 134.178 60.3921C134.666 60.0614 135.153 59.7303 135.641 59.3991C135.801 59.2903 135.961 59.1816 136.126 59.0695C136.444 58.8535 136.761 58.6372 137.079 58.4206C137.824 57.913 138.571 57.4106 139.33 56.9206C139.468 56.8308 139.605 56.7411 139.747 56.6486C140.001 56.4827 140.257 56.3185 140.515 56.1567C141.29 55.6491 141.71 55.1961 142.035 54.3711C142.066 53.9692 142.066 53.9692 141.973 53.5908C141.607 51.3204 141.607 51.3204 142.16 50.2632C142.803 49.6078 143.32 49.1227 144.299 48.9766C145.506 48.9259 146.26 49.0951 147.215 49.7813C147.939 50.5457 148.142 51.3223 148.089 52.3257C147.887 53.3566 147.106 53.9738 146.219 54.5547C145.744 54.7733 145.403 54.7698 144.874 54.7957C143.923 54.8829 143.338 55.0226 142.633 55.6563C142.127 56.7119 141.878 57.8635 141.627 58.9889C141.591 59.1447 141.555 59.3005 141.518 59.461C141.443 59.7923 141.367 60.1237 141.292 60.4552C141.095 61.3276 140.894 62.1993 140.694 63.071C140.654 63.2423 140.615 63.4137 140.574 63.5902C140.277 64.8812 139.962 66.1677 139.632 67.4522C139.093 69.5607 138.612 71.6796 138.133 73.8003C137.722 75.6175 137.297 77.4284 136.815 79.231C136.392 80.8311 136.041 82.4449 135.688 84.0592C134.874 87.7657 134.874 87.7657 134.465 88.5195C131.178 88.5195 127.891 88.5195 124.504 88.5195C123.035 85.146 123.035 85.146 122.573 84.0815C122.451 83.8037 122.33 83.526 122.208 83.2484C122.146 83.1036 122.083 82.9588 122.019 82.8096C121.68 82.0202 121.68 82.0202 121.117 81.3594C120.737 81.3011 120.737 81.3011 120.32 81.3135C120.181 81.3125 120.041 81.3116 119.897 81.3106C119.475 81.3305 119.475 81.3305 119.125 81.7266C118.895 83.2013 119.596 84.4141 120.221 85.7427C120.427 86.1893 120.632 86.6365 120.837 87.0838C120.975 87.3784 120.975 87.3784 121.115 87.6789C121.316 88.1523 121.316 88.1523 121.316 88.5195C107.248 88.5195 93.1788 88.5195 78.6836 88.5195C79.3553 86.4561 79.3553 86.4561 79.7785 85.5333C79.8719 85.3278 79.9654 85.1223 80.0616 84.9106C80.1616 84.6929 80.2615 84.4752 80.3645 84.251C80.5835 83.7693 80.8017 83.2872 81.0197 82.8052C81.0751 82.6829 81.1305 82.5606 81.1876 82.4346C81.7144 81.2699 82.2242 80.0992 82.7302 78.9268C83.8839 76.2577 85.0494 73.5931 86.2166 70.929C86.3657 70.5885 86.5148 70.248 86.664 69.9076C87.019 69.0971 87.3741 68.2865 87.7292 67.476C88.704 65.2511 89.6783 63.0259 90.6525 60.8007C91.1232 59.7256 91.594 58.6505 92.0647 57.5754C92.1584 57.3615 92.252 57.1476 92.3485 56.9272C92.9633 55.5231 93.5782 54.1189 94.193 52.7148C94.5671 51.8606 94.9411 51.0064 95.3152 50.1522C95.571 49.5679 95.8268 48.9837 96.0826 48.3995C96.3646 47.7557 96.6465 47.1118 96.9285 46.468C97.0121 46.277 97.0957 46.0861 97.1818 45.8894C97.2589 45.7133 97.336 45.5372 97.4155 45.3558C97.4822 45.2035 97.5488 45.0512 97.6176 44.8943C97.6806 44.75 97.7436 44.6057 97.8086 44.457C97.8806 44.2953 97.9527 44.1335 98.0269 43.9668C98.3264 43.2556 98.3751 42.6347 98.207 41.8867C97.8481 41.3036 97.3337 40.8807 96.8125 40.418C96.5594 40.1837 96.3067 39.9489 96.0545 39.7137C95.3156 39.0263 94.5713 38.344 93.8242 37.6641C94.0793 37.1482 94.3436 36.7729 94.7799 36.3744C94.8916 36.2716 95.0032 36.1687 95.1183 36.0627C95.2382 35.9541 95.3582 35.8454 95.4818 35.7335C95.605 35.6204 95.7283 35.5073 95.8553 35.3908C96.2481 35.0309 96.6423 34.6722 97.0366 34.3135C97.3036 34.0692 97.5706 33.8249 97.8374 33.5805C98.4908 32.9824 99.1455 32.3854 99.8008 31.7891Z" fill="#FDD301"/>
<path d="M65.7344 91.2734C88.3497 91.2734 110.965 91.2734 134.266 91.2734C134.266 95.2721 134.266 99.2708 134.266 103.391C132.637 103.401 132.637 103.401 130.975 103.411C130.287 103.417 129.6 103.423 128.913 103.429C127.821 103.439 126.73 103.448 125.639 103.454C124.759 103.459 123.88 103.466 123 103.476C122.664 103.479 122.328 103.481 121.992 103.482C121.522 103.484 121.053 103.489 120.583 103.495C120.443 103.495 120.304 103.494 120.16 103.494C119.605 103.504 119.215 103.518 118.748 103.809C118.47 104.17 118.47 104.17 118.328 104.859C116.948 104.859 115.567 104.859 114.145 104.859C114.013 104.556 113.882 104.254 113.746 103.941C113.137 103.567 113.019 103.528 112.334 103.526C112.085 103.524 112.085 103.524 111.83 103.522C111.648 103.522 111.465 103.523 111.277 103.523C111.082 103.522 110.888 103.521 110.688 103.52C110.035 103.517 109.382 103.516 108.728 103.516C108.261 103.514 107.794 103.512 107.326 103.51C106.056 103.505 104.785 103.502 103.514 103.5C102.321 103.497 101.128 103.493 99.9349 103.489C97.5719 103.48 95.2089 103.474 92.8459 103.468C90.5503 103.463 88.2546 103.456 85.959 103.449C85.8175 103.448 85.6761 103.448 85.5303 103.448C84.8206 103.445 84.1109 103.443 83.4012 103.441C77.5123 103.422 71.6233 103.406 65.7344 103.391C65.7344 99.392 65.7344 95.3933 65.7344 91.2734Z" fill="#FD9801"/>
<path d="M56.6451 49.2649C57.3349 49.7038 57.7897 50.1926 58.1641 50.8828C58.237 51.9269 58.1606 52.9399 57.9501 53.9666C57.9734 54.603 58.1834 54.9375 58.5626 55.4727C59.0927 55.9163 59.6692 56.2889 60.2559 56.666C60.6005 56.8935 60.9449 57.1211 61.2894 57.3488C61.4656 57.464 61.6417 57.5793 61.8232 57.698C62.636 58.2326 63.4378 58.7806 64.2403 59.3281C64.5549 59.5419 64.8696 59.7556 65.1843 59.9693C65.3403 60.0752 65.4963 60.1812 65.6571 60.2904C66.138 60.6167 66.6191 60.9428 67.1002 61.2688C68.7058 62.3571 70.3072 63.4501 71.9 64.5543C73.8913 65.933 75.9017 67.2879 77.9094 68.6462C78.0766 68.7595 78.2438 68.8728 78.4161 68.9895C78.7322 69.2036 79.0484 69.4175 79.3648 69.6312C80.4137 70.3418 81.4448 71.0717 82.4688 71.8125C82.3601 72.9703 81.9478 73.9308 81.4626 74.9974C81.3808 75.1806 81.2991 75.3638 81.2148 75.5525C80.9494 76.1461 80.6819 76.7389 80.4144 77.3318C80.1408 77.9427 79.8677 78.5539 79.5946 79.165C79.4135 79.5702 79.2322 79.9754 79.0507 80.3805C78.3103 82.0335 77.5833 83.6911 76.8658 85.3525C76.7707 85.5724 76.6756 85.7923 76.5776 86.0188C76.4169 86.3907 76.2564 86.7625 76.0961 87.1345C75.8968 87.5964 75.6965 88.058 75.4962 88.5195C72.2091 88.5195 68.922 88.5195 65.5352 88.5195C65.2015 87.7506 64.9864 87.0412 64.8123 86.2375C64.7503 85.9597 64.6882 85.6819 64.6262 85.4041C64.5938 85.2576 64.5615 85.1111 64.5281 84.9602C63.9347 82.278 63.2989 79.6069 62.6217 76.9417C62.0364 74.6359 61.4832 72.3283 60.973 70.0073C60.6098 68.3626 60.2095 66.7277 59.7944 65.0936C59.4617 63.7824 59.1441 62.4689 58.8365 61.1526C58.7551 60.8086 58.6736 60.4646 58.5921 60.1206C58.4426 59.488 58.299 58.8546 58.1595 58.2201C58.0947 57.9392 58.0299 57.6583 57.9649 57.3774C57.9262 57.19 57.9262 57.19 57.8866 56.9987C57.6784 56.1234 57.3405 55.6496 56.5704 55.1055C55.9939 54.9453 55.9939 54.9453 55.3875 54.9104C54.1017 54.7534 53.3901 54.4283 52.5238 53.522C51.899 52.7116 51.8379 52.0445 51.9884 51.0664C52.3226 50.3252 52.78 49.77 53.4202 49.2305C54.507 48.8744 55.5637 48.9143 56.6451 49.2649Z" fill="#FDD301"/>
<path d="M75.6954 40.0508C76.8259 40.4114 77.551 41.084 78.0861 42.0703C78.2011 42.9238 78.2132 43.6344 77.6876 44.3652C77.266 44.9813 77.1129 45.4766 77.1468 46.2083C77.4612 47.206 78.3337 47.9325 79.0821 48.6797C79.3115 48.9313 79.5399 49.1836 79.767 49.437C80.2125 49.9632 80.2125 49.9632 80.6759 50.1484C80.8048 50.1266 80.9337 50.1049 81.0666 50.0824C81.7952 49.9738 82.3625 49.9627 82.9985 50.3493C83.8069 50.9654 84.5632 51.6764 85.0587 52.5351C85.1043 53.0975 85.0094 53.5149 84.8758 54.062C84.8464 54.9493 85.508 55.4508 86.1264 56.0772C86.3 56.2412 86.4736 56.4052 86.6525 56.5742C86.9948 56.9014 87.3352 57.2302 87.6735 57.561C87.826 57.7025 87.9785 57.8441 88.1357 57.9899C88.4454 58.4101 88.4454 58.4101 88.4073 58.795C88.1851 59.5304 87.8821 60.2268 87.5715 60.9338C87.5039 61.0894 87.4362 61.2451 87.3666 61.4054C87.2231 61.735 87.0792 62.0644 86.935 62.3938C86.7181 62.8889 86.5025 63.3846 86.2871 63.8803C85.5043 65.6779 84.7036 67.4666 83.8634 69.2422C83.307 68.9991 82.8145 68.7274 82.3163 68.3945C82.1736 68.2994 82.0308 68.2042 81.8837 68.1062C81.7317 68.004 81.5796 67.9017 81.423 67.7964C81.2636 67.6897 81.1042 67.5831 80.94 67.4732C79.7912 66.7024 78.6513 65.9211 77.5169 65.1323C76.2621 64.2603 74.9956 63.4032 73.7266 62.5489C73.497 62.3938 73.497 62.3938 73.2628 62.2355C73.1266 62.1438 72.9904 62.052 72.85 61.9575C72.5079 61.7148 72.5079 61.7148 72.1095 61.3476C72.1022 61.0061 72.1022 61.0061 72.1629 60.5976C72.1958 60.3752 72.1958 60.3752 72.2294 60.1484C72.3491 59.4644 72.492 58.7872 72.6488 58.1096C72.6818 57.9638 72.7147 57.8179 72.7487 57.6677C72.8186 57.3585 72.8889 57.0494 72.9595 56.7404C73.1423 55.94 73.3226 55.1391 73.5025 54.3381C73.5376 54.1815 73.5728 54.0249 73.609 53.8636C73.9255 52.4469 74.2137 51.0267 74.4793 49.6011C74.6807 48.5304 74.6807 48.5304 74.8986 48.1289C75.0302 47.0718 75.0302 47.0718 74.5001 46.1782C74.1702 45.9375 73.8377 45.6995 73.4955 45.474C72.0698 44.531 72.0698 44.531 71.9103 43.7226C71.8064 42.8037 71.7935 42.1102 72.234 41.2671C73.2862 40.1953 74.157 39.8442 75.6954 40.0508Z" fill="#FCD301"/>
<path d="M126.295 40.1783C127.168 40.5886 127.682 41.0746 128.09 41.8866C128.267 42.9044 128.209 43.8391 127.588 44.7151C127.1 45.1989 126.517 45.5253 125.903 45.8597C125.445 46.1087 125.445 46.1087 125.102 46.6601C125.014 47.5515 125.121 48.2675 125.371 49.1307C125.706 50.3343 125.977 51.5447 126.237 52.7638C126.285 52.9867 126.333 53.2096 126.382 53.4393C126.482 53.9063 126.581 54.3733 126.681 54.8403C126.833 55.5556 126.987 56.2705 127.141 56.9854C127.238 57.4409 127.335 57.8964 127.432 58.352C127.478 58.5652 127.524 58.7784 127.572 58.9981C127.614 59.1968 127.656 59.3955 127.699 59.6001C127.755 59.8611 127.755 59.8611 127.811 60.1273C127.89 60.6117 127.939 61.0429 127.891 61.5311C127.507 61.8534 127.165 62.0905 126.733 62.3458C126.474 62.5071 126.216 62.6687 125.958 62.8306C125.819 62.9169 125.68 63.0032 125.537 63.092C124.772 63.5753 124.029 64.0859 123.284 64.5949C123.048 64.7551 123.048 64.7551 122.808 64.9185C121.108 66.0761 119.417 67.2457 117.728 68.4168C117.597 68.5074 117.467 68.598 117.332 68.6913C117.122 68.8451 117.122 68.8451 116.907 69.0021C116.535 69.2421 116.535 69.2421 116.137 69.2421C114.991 66.7793 113.859 64.3106 112.763 61.8286C112.655 61.5848 112.546 61.3414 112.436 61.0982C112.283 60.7562 112.132 60.4129 111.981 60.0696C111.894 59.873 111.807 59.6765 111.717 59.4741C111.549 58.9441 111.522 58.7268 111.754 58.2265C112.16 57.7646 112.16 57.7646 112.675 57.2626C112.859 57.0812 113.043 56.8998 113.226 56.7183C113.398 56.5495 113.569 56.3808 113.746 56.2069C114.403 55.532 115.043 54.8441 115.681 54.1537C116.84 52.8988 118.019 51.6662 119.232 50.4553C119.757 49.9307 120.276 49.4036 120.778 48.861C121.031 48.5882 121.292 48.3208 121.556 48.0564C122.523 47.0604 122.523 47.0604 122.86 45.7995C122.79 45.092 122.507 44.641 122.095 44.0553C121.689 43.3072 121.765 42.4828 122.046 41.7052C122.432 40.9857 122.929 40.5278 123.709 40.1719C124.583 39.9046 125.424 39.8979 126.295 40.1783Z" fill="#FCD201"/>
<path d="M99.8008 31.7891C100.361 32.0241 100.768 32.2677 101.2 32.6698C101.312 32.7727 101.423 32.8756 101.538 32.9816C101.656 33.0922 101.774 33.2027 101.896 33.3166C102.018 33.4302 102.141 33.5438 102.267 33.6608C102.658 34.0229 103.047 34.3862 103.437 34.7495C103.702 34.9956 103.967 35.2416 104.232 35.4875C104.881 36.0896 105.529 36.693 106.176 37.2969C105.876 37.9487 105.464 38.3601 104.917 38.8531C104.749 39.0065 104.58 39.1598 104.407 39.3178C104.23 39.4764 104.054 39.635 103.872 39.7983C103.523 40.114 103.174 40.43 102.826 40.7464C102.671 40.886 102.516 41.0255 102.356 41.1693C101.917 41.5919 101.79 41.7509 101.802 42.3385C101.821 42.6943 101.841 43.05 101.864 43.4057C101.793 43.9063 101.793 43.9063 101.422 44.2402C100.936 44.6972 100.747 45.0797 100.491 45.6725C100.399 45.8825 100.307 46.0924 100.213 46.3087C100.114 46.5401 100.015 46.7715 99.9167 47.003C99.8112 47.2464 99.7054 47.4898 99.5995 47.7331C99.3725 48.2555 99.1469 48.7784 98.9222 49.3017C98.5642 50.1353 98.2035 50.9679 97.8422 51.8003C97.4059 52.8065 96.9701 53.8129 96.5352 54.8196C95.7997 56.522 95.0595 58.2227 94.3153 59.9219C94.2635 60.0401 94.2118 60.1582 94.1585 60.28C93.9005 60.869 93.6424 61.458 93.3842 62.0469C92.9214 63.1027 92.4595 64.1588 91.9975 65.2148C91.7442 65.7937 91.4909 66.3727 91.2375 66.9516C91.1877 67.0653 91.138 67.1789 91.0867 67.2961C90.5425 68.5396 89.9982 69.783 89.4539 71.0265C89.3574 71.2469 89.2609 71.4672 89.1615 71.6943C88.6859 72.7808 88.2101 73.8673 87.7341 74.9538C87.5484 75.3778 87.3626 75.8019 87.1768 76.2259C87.0854 76.4347 86.9939 76.6435 86.8997 76.8586C86.3149 78.194 85.7311 79.5298 85.1479 80.8658C84.7557 81.7644 84.363 82.6628 83.9703 83.5611C83.7838 83.9879 83.5976 84.4147 83.4116 84.8416C83.1564 85.4271 82.9006 86.0123 82.6446 86.5975C82.5687 86.7722 82.4928 86.9468 82.4146 87.1267C82.3454 87.2845 82.2763 87.4422 82.205 87.6048C82.145 87.7424 82.0849 87.88 82.023 88.0218C81.8711 88.3359 81.8711 88.3359 81.6719 88.5195C81.1678 88.533 80.6692 88.5365 80.1653 88.531C80.0237 88.5302 79.882 88.5294 79.7361 88.5285C79.3853 88.5263 79.0344 88.523 78.6836 88.5195C79.1162 87.0438 79.7188 85.6572 80.3645 84.251C80.5835 83.7693 80.8017 83.2872 81.0197 82.8052C81.0751 82.6829 81.1305 82.5606 81.1876 82.4346C81.7144 81.2699 82.2242 80.0992 82.7302 78.9268C83.8839 76.2577 85.0494 73.5931 86.2166 70.929C86.3657 70.5885 86.5148 70.248 86.664 69.9076C87.019 69.0971 87.3741 68.2865 87.7292 67.476C88.704 65.2511 89.6783 63.0259 90.6525 60.8007C91.1232 59.7256 91.594 58.6505 92.0647 57.5754C92.1584 57.3615 92.252 57.1476 92.3485 56.9272C92.9633 55.5231 93.5782 54.1189 94.193 52.7148C94.5671 51.8606 94.9411 51.0064 95.3152 50.1522C95.571 49.5679 95.8268 48.9837 96.0826 48.3995C96.3646 47.7557 96.6465 47.1118 96.9285 46.468C97.0121 46.277 97.0957 46.0861 97.1818 45.8894C97.2589 45.7133 97.336 45.5372 97.4155 45.3558C97.4822 45.2035 97.5488 45.0512 97.6176 44.8943C97.6806 44.75 97.7436 44.6057 97.8086 44.457C97.8806 44.2953 97.9527 44.1335 98.0269 43.9668C98.3264 43.2556 98.3751 42.6347 98.207 41.8867C97.8481 41.3036 97.3337 40.8807 96.8125 40.418C96.5594 40.1837 96.3067 39.9489 96.0545 39.7137C95.3156 39.0263 94.5713 38.344 93.8242 37.6641C94.0793 37.1482 94.3436 36.7729 94.7799 36.3744C94.8916 36.2716 95.0032 36.1687 95.1183 36.0627C95.2382 35.9541 95.3582 35.8454 95.4818 35.7335C95.605 35.6204 95.7283 35.5073 95.8553 35.3908C96.2481 35.0309 96.6423 34.6722 97.0366 34.3135C97.3036 34.0692 97.5706 33.8249 97.8374 33.5805C98.4908 32.9824 99.1455 32.3854 99.8008 31.7891Z" fill="#F6C300"/>
<path d="M100.598 64.1016C101.584 64.5164 102.086 65.1721 102.702 65.9604C102.804 66.0884 102.906 66.2164 103.011 66.3482C104.075 67.6879 105.112 69.0453 106.141 70.408C106.329 70.6517 106.53 70.8875 106.734 71.1204C107.108 71.6297 107.105 72.0315 107.076 72.6344C106.861 73.5978 106.196 74.3365 105.578 75.1172C105.374 75.3812 105.169 75.6454 104.965 75.9096C104.52 76.4835 104.071 77.0548 103.619 77.6244C103.239 78.1031 102.863 78.5837 102.495 79.0702C102.358 79.25 102.221 79.4299 102.079 79.6152C101.964 79.7686 101.849 79.9219 101.73 80.0799C101.221 80.6287 100.793 80.7851 100.025 80.8774C99.1402 80.7796 98.5256 80.4197 97.944 79.7888C97.6799 79.4501 97.4313 79.1052 97.1861 78.7546C96.997 78.4925 96.8077 78.2305 96.6181 77.9686C96.5204 77.8328 96.4228 77.6969 96.3221 77.557C95.7058 76.7116 95.0587 75.8859 94.4164 75.0572C94.2305 74.8159 94.046 74.5736 93.8632 74.3302C93.6681 74.0724 93.4641 73.8204 93.2578 73.5703C92.9062 72.849 92.8647 72.2209 93.0275 71.4453C93.3281 70.8699 93.7291 70.3938 94.1605 69.8962C94.398 69.6092 94.6354 69.3221 94.8726 69.0349C95.0568 68.8155 95.0568 68.8155 95.2448 68.5916C95.6177 68.1401 95.9761 67.6814 96.3309 67.2176C96.4451 67.0685 96.5594 66.9194 96.6771 66.7658C96.8953 66.4802 97.1129 66.1942 97.3299 65.9078C98.2369 64.736 98.9103 63.9072 100.598 64.1016Z" fill="#030200"/>
<path d="M117.93 24.9962C118.639 25.5952 118.96 26.3405 119.319 27.1476C119.752 28.035 120.124 28.563 121.055 29.0467C121.231 29.1395 121.406 29.2322 121.587 29.3278C122.052 29.5557 122.52 29.7624 122.997 29.9647C123.689 30.2789 124.027 30.5506 124.305 31.2383C124.383 31.9141 124.363 32.3796 124.106 33.0169C123.458 33.7073 122.601 33.9919 121.697 34.3329C119.879 35.0692 119.208 36.5083 118.426 38.1159C118.101 38.6264 117.935 38.7697 117.332 38.9493C116.244 39.0289 115.627 39.0447 114.742 38.3985C114.436 37.9414 114.214 37.4564 113.983 36.9642C113.088 35.1998 112.091 34.5348 110.157 33.7972C109.496 33.5091 109.089 33.1199 108.766 32.5235C108.655 31.4638 108.84 30.9608 109.563 30.1368C110.03 29.8815 110.451 29.677 110.945 29.4827C112.787 28.7254 113.506 27.7912 114.301 26.1623C114.645 25.515 114.914 25.1232 115.638 24.814C116.549 24.5724 117.083 24.6255 117.93 24.9962Z" fill="#010000"/>
<path d="M85.0586 20.039C85.5992 20.5868 85.9138 21.2354 86.2571 21.8986C86.3541 22.0856 86.3541 22.0856 86.4532 22.2765C86.5066 22.3889 86.56 22.5013 86.615 22.6172C87.3736 23.7693 88.5048 24.2515 89.7699 24.8052C90.5957 25.1857 91.065 25.4917 91.4336 26.2811C91.5115 26.9512 91.4877 27.4235 91.2469 28.0597C90.7347 28.589 90.2397 28.755 89.5364 29.02C87.7376 29.7443 86.8299 30.6751 86.001 32.2781C85.916 32.4423 85.831 32.6065 85.7435 32.7758C85.6692 32.9287 85.595 33.0815 85.5186 33.2391C85.2116 33.6934 85.0046 33.8173 84.461 33.9921C83.3724 34.0717 82.7559 34.0874 81.8711 33.4413C81.5651 32.9842 81.3427 32.4992 81.1116 32.007C80.2166 30.2426 79.2202 29.5776 77.286 28.84C76.6244 28.5519 76.2182 28.1627 75.8946 27.5663C75.784 26.5066 75.9691 26.0036 76.6915 25.1796C77.1591 24.9243 77.5795 24.7198 78.0735 24.5255C79.3378 24.0059 80.3118 23.4474 80.9 22.2536C80.9642 22.1281 81.0284 22.0027 81.0945 21.8735C81.1536 21.7528 81.2126 21.6321 81.2735 21.5077C81.6393 20.7633 81.8878 20.2694 82.668 19.8554C83.5151 19.6059 84.2638 19.672 85.0586 20.039Z" fill="#010000"/>
<path d="M65.7344 91.2734C88.3497 91.2734 110.965 91.2734 134.266 91.2734C134.266 95.2721 134.266 99.2708 134.266 103.391C134.2 103.391 134.134 103.391 134.066 103.391C134.066 99.4525 134.066 95.5145 134.066 91.457C114.081 91.457 94.0952 91.457 73.5039 91.457C73.5039 92.9111 73.5039 94.3652 73.5039 95.8633C73.7669 95.9845 74.0298 96.1056 74.3008 96.2305C74.5 96.4141 74.5 96.4141 74.5623 97.0222C74.5 97.6992 74.5 97.6992 74.1053 98.0365C73.5715 98.5636 73.5963 98.8771 73.5817 99.5897C73.5756 99.7891 73.5695 99.9886 73.5632 100.194C73.5601 100.446 73.557 100.698 73.5537 100.958C73.5373 101.761 73.5208 102.564 73.5039 103.391C70.94 103.391 68.376 103.391 65.7344 103.391C65.7344 99.392 65.7344 95.3933 65.7344 91.2734Z" fill="#F18401"/>
<path d="M56.6451 49.2649C57.3349 49.7038 57.7897 50.1926 58.1641 50.8828C58.2278 51.7958 58.1786 52.6879 58.0272 53.5908C57.9229 54.3692 58.0781 54.8106 58.5626 55.4727C58.6951 55.5837 58.8276 55.6947 58.9642 55.8091C59.4272 56.2752 59.5251 56.5792 59.6698 57.1927C59.7189 57.3945 59.7681 57.5962 59.8187 57.8041C59.8698 58.0266 59.9208 58.2491 59.9735 58.4783C60.031 58.7189 60.0888 58.9594 60.1469 59.1999C60.2731 59.7249 60.3975 60.2501 60.5205 60.7757C60.7187 61.6223 60.9207 62.468 61.1236 63.3136C61.1587 63.46 61.1939 63.6064 61.23 63.7573C61.3029 64.0612 61.3759 64.3651 61.4488 64.669C61.563 65.1454 61.6767 65.6219 61.7905 66.0985C62.4372 68.8048 63.1042 71.5067 63.7757 74.2078C63.8812 74.6324 63.9866 75.057 64.0921 75.4815C64.5117 77.1702 64.9315 78.8588 65.3524 80.5471C65.602 81.5487 65.8508 82.5504 66.099 83.5523C66.1915 83.925 66.2843 84.2977 66.3775 84.6704C66.5054 85.1822 66.6323 85.6943 66.759 86.2065C66.7968 86.3568 66.8346 86.5071 66.8736 86.6619C67.031 87.3024 67.129 87.8592 67.129 88.5195C66.603 88.5195 66.0771 88.5195 65.5352 88.5195C65.1795 87.7765 64.984 87.0302 64.8123 86.2375C64.7503 85.9597 64.6882 85.6819 64.6262 85.4041C64.5938 85.2576 64.5615 85.1111 64.5281 84.9602C63.9347 82.278 63.2989 79.6069 62.6217 76.9417C62.0364 74.6359 61.4832 72.3283 60.973 70.0073C60.6098 68.3626 60.2095 66.7277 59.7944 65.0936C59.4617 63.7824 59.1441 62.4689 58.8365 61.1526C58.7551 60.8086 58.6736 60.4646 58.5921 60.1206C58.4426 59.488 58.299 58.8546 58.1595 58.2201C58.0947 57.9392 58.0299 57.6583 57.9649 57.3774C57.9262 57.19 57.9262 57.19 57.8866 56.9987C57.6785 56.1234 57.3405 55.6496 56.5704 55.1055C55.9939 54.9453 55.9939 54.9453 55.3875 54.9104C54.1017 54.7534 53.3901 54.4283 52.5238 53.522C51.899 52.7116 51.8379 52.0445 51.9884 51.0664C52.3226 50.3252 52.78 49.77 53.4202 49.2305C54.507 48.8744 55.5637 48.9143 56.6451 49.2649Z" fill="#F4C200"/>
<path d="M146.23 49.168C147.01 49.5249 147.501 49.9958 147.88 50.7005C148.125 51.382 148.15 52.0141 148.012 52.7186C147.507 53.6313 146.819 54.2781 145.82 54.7382C145.505 54.7617 145.19 54.7801 144.874 54.7955C143.923 54.8828 143.338 55.0225 142.633 55.6561C142.368 56.1942 142.187 56.7351 142.035 57.3085C141.838 57.3085 141.641 57.3085 141.437 57.3085C141.01 57.5573 140.61 57.812 140.205 58.0888C140.082 58.1712 139.959 58.2536 139.833 58.3385C138.65 59.1353 137.479 59.9484 136.309 60.7609C134.934 61.7143 133.545 62.6512 132.159 63.5907C131.366 64.1276 130.575 64.6653 129.783 65.203C128.83 65.8503 127.877 66.4974 126.923 67.1437C125.427 68.1581 123.933 69.1757 122.449 70.2059C121.422 70.9176 120.391 71.6235 119.349 72.3173C119.232 72.3964 119.114 72.4755 118.993 72.557C118.175 73.0975 118.175 73.0975 117.73 73.0975C117.439 72.6115 117.332 72.3825 117.332 71.8124C117.711 71.5223 118.082 71.2723 118.49 71.0206C118.748 70.8562 119.006 70.6915 119.264 70.5265C119.472 70.3937 119.472 70.3937 119.685 70.2582C120.45 69.7639 121.2 69.2499 121.951 68.7372C122.275 68.5168 122.599 68.2964 122.923 68.076C123.085 67.9654 123.247 67.8548 123.414 67.7409C123.902 67.4093 124.389 67.0784 124.877 66.7478C126.351 65.749 127.823 64.7478 129.285 63.7343C130.908 62.6096 132.542 61.5002 134.178 60.392C134.666 60.0613 135.153 59.7302 135.641 59.399C135.801 59.2902 135.961 59.1815 136.126 59.0694C136.444 58.8534 136.761 58.6371 137.079 58.4205C137.824 57.9129 138.571 57.4105 139.33 56.9205C139.468 56.8307 139.605 56.741 139.747 56.6485C140.001 56.4825 140.257 56.3184 140.515 56.1566C141.29 55.649 141.71 55.196 142.035 54.371C142.066 53.9691 142.066 53.9691 141.973 53.5907C141.607 51.3203 141.607 51.3203 142.16 50.2631C143.327 49.0739 144.542 48.6689 146.23 49.168Z" fill="#F4C200"/>
<path d="M126.295 40.1783C127.168 40.5886 127.682 41.0746 128.09 41.8866C128.267 42.907 128.207 43.8407 127.586 44.7187C127.11 45.1887 126.521 45.4835 125.93 45.8188C125.363 46.2015 125.111 46.6169 124.775 47.1757C124.333 47.8324 123.751 48.3679 123.183 48.9335C122.726 49.3982 122.301 49.876 121.877 50.3664C121.019 51.3455 120.094 52.2548 119.156 53.1684C118.328 53.9794 117.558 54.8187 116.804 55.6891C116.025 56.5513 115.185 57.3607 114.352 58.1784C113.667 58.8526 113.003 59.5433 112.352 60.246C111.898 59.8278 111.744 59.523 111.555 58.9608C111.627 58.1996 112.123 57.8005 112.675 57.2626C112.859 57.0812 113.043 56.8998 113.226 56.7183C113.398 56.5495 113.569 56.3808 113.746 56.2069C114.403 55.532 115.043 54.8441 115.681 54.1537C116.84 52.8988 118.019 51.6662 119.232 50.4553C119.757 49.9307 120.276 49.4036 120.778 48.861C121.032 48.5882 121.292 48.3208 121.556 48.0564C122.523 47.0604 122.523 47.0604 122.86 45.7995C122.79 45.092 122.507 44.641 122.095 44.0553C121.689 43.3072 121.765 42.4828 122.046 41.7052C122.432 40.9857 122.929 40.5278 123.709 40.1719C124.583 39.9046 125.424 39.8979 126.295 40.1783Z" fill="#F6C300"/>
<path d="M75.6954 40.0508C76.8259 40.4114 77.551 41.084 78.0861 42.0703C78.2264 43.1115 78.1149 43.7781 77.4886 44.6742C77.2696 45.0406 77.191 45.3331 77.1122 45.7446C76.929 46.6543 76.7349 47.5612 76.5346 48.4678C76.4661 48.7796 76.3977 49.0913 76.3292 49.403C76.2565 49.7342 76.1837 50.0654 76.111 50.3966C76.0356 50.7397 75.9603 51.0828 75.8849 51.426C75.6878 52.3236 75.4906 53.2212 75.2934 54.1188C75.0917 55.0369 74.8901 55.9551 74.6884 56.8733C74.2937 58.6707 73.8988 60.4682 73.504 62.2656C72.3332 61.5809 72.3332 61.5809 72.1128 61.1335C72.1079 60.3632 72.2764 59.6491 72.4542 58.8985C72.4924 58.7301 72.5306 58.5617 72.57 58.3882C72.6927 57.8482 72.8181 57.3087 72.9437 56.7693C73.1052 56.0678 73.2655 55.3661 73.4254 54.6644C73.4652 54.4908 73.505 54.3172 73.546 54.1383C73.8773 52.6802 74.1707 51.2169 74.4473 49.7491C74.4776 49.5899 74.508 49.4307 74.5393 49.2666C74.5655 49.1263 74.5917 48.9859 74.6188 48.8413C74.6993 48.4961 74.6993 48.4961 74.8986 48.1289C75.0302 47.0718 75.0302 47.0718 74.5001 46.1782C74.1702 45.9375 73.8377 45.6995 73.4955 45.474C72.0698 44.531 72.0698 44.531 71.9103 43.7226C71.8064 42.8037 71.7935 42.1102 72.234 41.2671C73.2862 40.1953 74.157 39.8442 75.6954 40.0508Z" fill="#F5C200"/>
<path d="M101.392 33.0605C101.972 33.3461 102.368 33.7271 102.829 34.1593C102.926 34.2487 103.022 34.3381 103.121 34.4302C103.427 34.7152 103.73 35.002 104.034 35.2889C104.241 35.4827 104.449 35.6765 104.657 35.8701C105.165 36.3443 105.671 36.8201 106.176 37.2969C105.877 37.9428 105.474 38.3514 104.931 38.8403C104.765 38.992 104.598 39.1437 104.426 39.3C104.251 39.4569 104.077 39.6138 103.897 39.7754C103.552 40.0867 103.208 40.3984 102.864 40.7106C102.712 40.8482 102.559 40.9859 102.401 41.1276C102.027 41.4857 101.706 41.8496 101.394 42.254C100.738 41.6763 100.086 41.0951 99.4368 40.5103C99.2156 40.3121 98.9934 40.1148 98.7701 39.9185C98.4488 39.6358 98.1315 39.3496 97.8147 39.0626C97.7145 38.9759 97.6143 38.8892 97.511 38.7999C97.0421 38.3682 96.8228 38.0799 96.6943 37.4759C96.8484 36.7632 97.1442 36.4844 97.6996 35.9723C97.8847 35.8011 98.0699 35.6299 98.2607 35.4535C98.3581 35.3663 98.4556 35.2791 98.5561 35.1893C98.8546 34.9215 99.1468 34.6487 99.4388 34.3748C100.862 33.0789 100.862 33.0789 101.392 33.0605Z" fill="#FCD201"/>
<path d="M99.8009 67.5898C100.452 67.8431 100.772 68.1026 101.17 68.6369C101.272 68.7716 101.374 68.9062 101.479 69.045C101.582 69.1858 101.686 69.3266 101.793 69.4717C101.897 69.6097 102.001 69.7476 102.107 69.8898C102.31 70.16 102.511 70.4315 102.71 70.7041C102.884 70.9381 103.065 71.1683 103.255 71.3919C103.486 71.6719 103.486 71.6719 103.785 72.1797C103.57 72.8362 103.224 73.3635 102.802 73.9245C102.69 74.0757 102.577 74.2268 102.46 74.3825C102.343 74.5378 102.225 74.6932 102.104 74.8533C101.988 75.0094 101.871 75.1654 101.751 75.3262C101.245 76 100.736 76.6675 100.199 77.3203C99.5431 77.1187 99.4721 77.0383 99.1059 76.5343C98.9694 76.3489 98.9694 76.3489 98.8302 76.1598C98.7355 76.0278 98.6408 75.8958 98.5433 75.7598C98.3482 75.4908 98.1532 75.2219 97.9581 74.953C97.8643 74.8229 97.7706 74.6928 97.674 74.5588C97.4528 74.2573 97.221 73.9624 96.9869 73.6692C96.876 73.5298 96.765 73.3904 96.6507 73.2468C96.5549 73.1306 96.4591 73.0144 96.3604 72.8947C96.2149 72.5469 96.2149 72.5469 96.3278 72.1223C96.6859 71.5036 97.1102 70.942 97.5596 70.3782C97.6483 70.2654 97.737 70.1526 97.8284 70.0364C98.4764 69.2143 99.1337 68.3988 99.8009 67.5898Z" fill="#7E499F"/>
<path d="M146.617 49.414C147.373 49.9842 147.925 50.5563 148.079 51.4608C148.098 52.4668 147.952 53.0304 147.215 53.8202C146.312 54.5535 145.792 54.7597 144.6 54.8415C144.382 54.8569 144.163 54.8723 143.939 54.8881C143.771 54.8992 143.603 54.9103 143.43 54.9218C143.03 53.6515 142.979 52.2658 143.654 51.0778C144.367 50.0595 145.18 49.1321 146.617 49.414Z" fill="#FAD101"/>
<path d="M55.9727 49.047C57.042 49.3937 57.658 49.9502 58.1641 50.8829C58.2586 51.9916 58.1613 52.9558 57.7656 54.004C56.4036 54.1161 55.6356 53.8874 54.5781 53.086C53.781 52.3872 53.2004 51.7166 52.9844 50.6993C53.0138 50.1306 53.1445 49.8393 53.47 49.3568C54.27 48.8713 55.0429 48.9358 55.9727 49.047Z" fill="#FCD201"/>
<path d="M100.996 69.0586C101.899 69.3359 102.222 69.9629 102.752 70.665C102.857 70.7966 102.962 70.9282 103.07 71.0638C103.807 72.0373 103.807 72.0373 103.712 72.6494C103.605 72.7973 103.497 72.9453 103.387 73.0977C103.316 73.2002 103.245 73.3028 103.173 73.4085C102.926 73.7596 102.667 74.0997 102.403 74.4402C102.315 74.5586 102.227 74.6771 102.136 74.7991C101.904 75.0995 101.651 75.3852 101.394 75.668C101.197 75.668 101 75.668 100.797 75.668C100.348 75.2474 100.011 74.7434 99.6513 74.2566C99.4961 74.058 99.4961 74.058 99.3377 73.8553C98.6148 72.8878 98.6148 72.8878 98.5774 72.2593C98.9074 71.6104 99.3364 71.0544 99.8007 70.4814C99.8932 70.3645 99.9856 70.2476 100.081 70.1272C100.748 69.2872 100.748 69.2872 100.996 69.0586Z" fill="#905AB1"/>
<path d="M73.9025 40.0508C75.0497 39.9874 75.9069 39.9835 76.8907 40.6016C77.7674 41.4227 78.1745 42.0465 78.1724 43.2214C78.0021 44.2102 77.4221 45.0645 76.8907 45.9258C75.5043 45.2221 74.4285 44.4756 73.8278 43.0916C73.63 42.0529 73.6225 41.083 73.9025 40.0508Z" fill="#FBD101"/>
<path d="M83.4648 23.8945C83.5963 23.8945 83.7278 23.8945 83.8633 23.8945C84.1006 24.2108 84.1006 24.2108 84.3738 24.6404C85.0333 25.5936 85.8509 26.1947 86.8516 26.832C86.3377 27.3162 85.8094 27.7638 85.2454 28.1975C84.6471 28.6739 84.213 29.1049 83.8633 29.7695C83.1798 29.5596 83.114 29.441 82.7302 28.9089C82.1023 28.0999 81.3676 27.5658 80.4766 27.0156C80.9553 26.5618 81.4138 26.137 81.9707 25.7649C82.5516 25.2965 82.8686 24.8059 83.2431 24.19C83.3528 24.0437 83.3528 24.0437 83.4648 23.8945Z" fill="#F58501"/>
<path d="M116.336 28.8516C116.467 28.8516 116.599 28.8516 116.734 28.8516C116.972 29.1678 116.972 29.1678 117.245 29.5974C117.904 30.5506 118.722 31.1517 119.723 31.7891C119.209 32.2732 118.68 32.7209 118.116 33.1545C117.512 33.6344 117.119 34.0766 116.734 34.7266C116.603 34.7266 116.471 34.7266 116.336 34.7266C116.099 34.4505 116.099 34.4505 115.825 34.0725C115.14 33.1929 114.299 32.5961 113.348 31.9727C113.867 31.4795 114.362 31.0413 114.954 30.6187C115.627 30.0646 115.929 29.5863 116.336 28.8516Z" fill="#F68C00"/>
<path d="M126.496 40.3835C127.209 40.6437 127.501 40.9002 127.907 41.4901C128.3 42.3428 128.257 43.2087 127.972 44.087C127.477 45.0402 126.528 45.6769 125.5 46.1094C124.902 45.9258 124.902 45.9258 124.566 45.3176C124.121 44.1125 124.098 42.8145 124.541 41.6113C125.103 40.8973 125.506 40.4406 126.496 40.3835Z" fill="#FBD101"/>
<path d="M83.4648 23.8945C83.5963 23.8945 83.7278 23.8945 83.8633 23.8945C84.1006 24.2108 84.1006 24.2108 84.3738 24.6404C85.0333 25.5936 85.8509 26.1947 86.8516 26.832C85.8487 27.7658 85.8487 27.7658 85.2578 28.1172C85.0606 28.1172 84.8634 28.1172 84.6602 28.1172C84.3823 27.8217 84.3823 27.8217 84.0999 27.4287C83.5626 26.7288 83.0732 26.3373 82.2695 25.9141C82.5584 25.1598 82.9465 24.5365 83.4648 23.8945Z" fill="#F79400"/>
<path d="M127.119 95.6912C127.989 95.9526 127.989 95.9526 128.289 96.4141C128.389 97.1358 128.409 97.5341 127.965 98.1467C127.349 98.5202 127.021 98.5449 126.297 98.4336C125.824 98.1467 125.824 98.1467 125.5 97.6992C125.388 97.0566 125.388 97.0566 125.5 96.4141C126.033 95.8364 126.291 95.6759 127.119 95.6912Z" fill="#060300"/>
<path d="M116.361 95.6912C117.231 95.9526 117.231 95.9526 117.531 96.4141C117.631 97.1358 117.651 97.5341 117.208 98.1467C116.592 98.5202 116.264 98.5449 115.539 98.4336C115.066 98.1467 115.066 98.1467 114.742 97.6992C114.63 97.0566 114.63 97.0566 114.742 96.4141C115.275 95.8364 115.533 95.6759 116.361 95.6912Z" fill="#060300"/>
<path d="M105.603 95.6912C106.473 95.9526 106.473 95.9526 106.773 96.4141C106.873 97.1358 106.893 97.5341 106.45 98.1467C105.834 98.5202 105.506 98.5449 104.781 98.4336C104.308 98.1467 104.308 98.1467 103.984 97.6992C103.872 97.0566 103.872 97.0566 103.984 96.4141C104.517 95.8364 104.775 95.6759 105.603 95.6912Z" fill="#060300"/>
<path d="M94.8453 95.6912C95.7152 95.9526 95.7152 95.9526 96.0157 96.4141C96.1154 97.1358 96.1351 97.5341 95.692 98.1467C95.076 98.5202 94.7479 98.5449 94.0235 98.4336C93.5504 98.1467 93.5504 98.1467 93.2266 97.6992C93.1146 97.0566 93.1146 97.0566 93.2266 96.4141C93.7594 95.8364 94.0173 95.6759 94.8453 95.6912Z" fill="#060300"/>
<path d="M84.0875 95.6912C84.9574 95.9526 84.9574 95.9526 85.2579 96.4141C85.3575 97.1358 85.3773 97.5341 84.9341 98.1467C84.3182 98.5202 83.9901 98.5449 83.2657 98.4336C82.7925 98.1467 82.7925 98.1467 82.4688 97.6992C82.3568 97.0566 82.3568 97.0566 82.4688 96.4141C83.0016 95.8364 83.2595 95.6759 84.0875 95.6912Z" fill="#060300"/>
<path d="M73.3297 95.6912C74.1996 95.9526 74.1996 95.9526 74.5001 96.4141C74.5997 97.1358 74.6195 97.5341 74.1763 98.1467C73.5604 98.5202 73.2323 98.5449 72.5079 98.4336C72.0347 98.1467 72.0347 98.1467 71.711 97.6992C71.5989 97.0566 71.5989 97.0566 71.711 96.4141C72.2438 95.8364 72.5017 95.6759 73.3297 95.6912Z" fill="#060300"/>
</g>
<defs>
<clipPath id="clip0_757_5099">
<rect width="114.231" height="114.231" fill="white" transform="translate(19.6924 109.226) rotate(-45)"/>
</clipPath>
<clipPath id="clip1_757_5099">
<rect width="102" height="94" fill="white" transform="translate(49 16)"/>
</clipPath>
</defs>
</svg>
